<svg width="233" height="62" viewBox="0 0 233 62" fill="none" xmlns="http://www.w3.org/2000/svg">
<path d="M11.8081 18.184C11.6481 18.184 11.5121 18.128 11.4001 18.016C11.2881 17.92 11.2481 17.768 11.2801 17.56C11.3761 17.032 11.4401 16.664 11.4721 16.456C11.5201 16.264 11.5521 16.12 11.5681 16.024C11.6001 15.928 11.6321 15.792 11.6641 15.616C11.7121 15.44 11.7681 15.112 11.8321 14.632C11.9601 13.864 12.0481 13.152 12.0961 12.496C12.1441 11.824 12.1761 11.208 12.1921 10.648C11.5841 10.712 11.0081 10.776 10.4641 10.84C9.93606 10.904 9.34406 11.056 8.68806 11.296H8.66406C8.40806 11.392 8.16006 11.528 7.92006 11.704C7.68006 11.864 7.39206 12.008 7.05606 12.136C6.96006 12.168 6.88006 12.184 6.81606 12.184C6.62406 12.184 6.48006 12.104 6.38406 11.944C6.30406 11.768 6.28006 11.6 6.31206 11.44C6.20006 11.616 6.08806 11.768 5.97606 11.896C5.70406 12.296 5.46406 12.648 5.25606 12.952C5.06406 13.24 4.83206 13.584 4.56006 13.984C4.30406 14.352 4.08006 14.76 3.88806 15.208C3.69606 15.64 3.48806 16.04 3.26406 16.408C3.15206 16.568 3.00806 16.648 2.83206 16.648C2.65606 16.648 2.49606 16.576 2.35206 16.432C2.20806 16.288 2.13606 16.12 2.13606 15.928C2.13606 15.816 2.16806 15.704 2.23206 15.592C2.47206 15.224 2.68806 14.912 2.88006 14.656C3.08806 14.384 3.31206 14.072 3.55206 13.72C3.84006 13.304 4.08006 12.952 4.27206 12.664C4.48006 12.376 4.71206 12.04 4.96806 11.656C5.27206 11.208 5.54406 10.816 5.78406 10.48C6.04006 10.144 6.28806 9.808 6.52806 9.472C6.78406 9.12 7.05606 8.728 7.34406 8.296C7.60006 7.896 7.80006 7.52 7.94406 7.168C8.10406 6.8 8.27206 6.44 8.44806 6.088C8.64006 5.736 8.91206 5.384 9.26406 5.032L9.28806 5.008C9.65606 4.64 10.0241 4.208 10.3921 3.712C10.7601 3.2 11.0241 2.768 11.1841 2.416C11.4881 2.064 11.8241 1.888 12.1921 1.888C12.6241 1.888 12.9841 2.128 13.2721 2.608C13.3361 2.768 13.3761 2.92 13.3921 3.064C13.4081 3.208 13.4161 3.352 13.4161 3.496C13.4161 3.72 13.4001 3.936 13.3681 4.144C13.3521 4.352 13.3441 4.56 13.3441 4.768C13.3601 5.296 13.3681 5.768 13.3681 6.184C13.3841 6.584 13.3921 7.008 13.3921 7.456C13.3921 7.664 13.3921 7.88 13.3921 8.104C13.3921 8.328 13.3841 8.568 13.3681 8.824C13.3681 8.888 13.3601 8.976 13.3441 9.088C13.3441 9.2 13.3441 9.28 13.3441 9.328H13.5841C13.7761 9.328 13.9201 9.376 14.0161 9.472C14.1121 9.568 14.1601 9.68 14.1601 9.808C14.1601 9.936 14.1121 10.064 14.0161 10.192C13.9201 10.304 13.7681 10.376 13.5601 10.408C13.5121 10.424 13.4641 10.44 13.4161 10.456C13.3681 10.456 13.3121 10.472 13.2481 10.504C13.2161 10.84 13.1841 11.184 13.1521 11.536C13.1201 11.872 13.0801 12.248 13.0321 12.664C12.9681 13.288 12.9121 13.848 12.8641 14.344C12.8321 14.824 12.7841 15.32 12.7201 15.832C12.6721 16.328 12.5841 16.936 12.4561 17.656C12.4241 17.832 12.3441 17.96 12.2161 18.04C12.0881 18.136 11.9521 18.184 11.8081 18.184ZM8.30406 8.824C7.98406 9.336 7.69606 9.744 7.44006 10.048C7.18406 10.352 6.92006 10.688 6.64806 11.056L6.72006 10.984C7.02406 10.872 7.28806 10.752 7.51206 10.624C7.75206 10.48 8.04006 10.376 8.37606 10.312C8.37606 10.312 8.58406 10.264 9.00006 10.168C9.41606 10.072 9.92006 9.96 10.5121 9.832C11.1201 9.688 11.6961 9.568 12.2401 9.472L12.2641 8.656C12.2641 8.512 12.2641 8.368 12.2641 8.224C12.2801 8.08 12.2881 7.952 12.2881 7.84C12.2881 7.328 12.2721 6.864 12.2401 6.448C12.2241 6.032 12.2081 5.504 12.1921 4.864C12.2241 4.64 12.2481 4.432 12.2641 4.24C12.2801 4.048 12.2881 3.872 12.2881 3.712C12.2881 3.456 12.2641 3.28 12.2161 3.184C12.1841 3.184 12.1281 3.192 12.0481 3.208C11.9841 3.208 11.9201 3.24 11.8561 3.304C11.5681 3.496 11.3121 3.792 11.0881 4.192C10.8801 4.592 10.6001 5.056 10.2481 5.584V5.56C9.84806 6.152 9.52806 6.688 9.28806 7.168C9.04806 7.632 8.72006 8.184 8.30406 8.824ZM14.3532 16.408C14.1292 16.472 13.9532 16.432 13.8252 16.288C13.6812 16.144 13.6092 15.984 13.6092 15.808C13.6092 15.52 13.7452 15.344 14.0172 15.28C14.4652 15.152 14.8652 15.016 15.2172 14.872C15.5692 14.728 15.9852 14.6 16.4652 14.488C16.5932 14.12 16.7292 13.824 16.8732 13.6C17.0332 13.328 17.2012 13.056 17.3772 12.784C17.5692 12.512 17.7452 12.2 17.9052 11.848C18.4172 10.76 18.8412 9.728 19.1772 8.752C19.5132 7.76 19.8172 6.824 20.0892 5.944C20.3612 5.064 20.6652 4.248 21.0012 3.496C20.4412 3.528 19.9372 3.584 19.4892 3.664C19.0412 3.728 18.5452 3.864 18.0012 4.072C17.9052 4.104 17.8252 4.12 17.7612 4.12C17.6012 4.12 17.4652 4.056 17.3532 3.928C17.2572 3.8 17.2092 3.656 17.2092 3.496C17.2092 3.384 17.2332 3.28 17.2812 3.184C17.3452 3.088 17.4412 3.016 17.5692 2.968C18.3052 2.68 18.9852 2.504 19.6092 2.44C20.2332 2.36 20.9212 2.304 21.6732 2.272C21.7852 2.272 21.8892 2.272 21.9852 2.272C22.0812 2.256 22.1772 2.248 22.2732 2.248C22.8332 2.248 23.3372 2.28 23.7852 2.344C24.2492 2.392 24.7612 2.416 25.3212 2.416C25.4972 2.416 25.6172 2.456 25.6812 2.536C25.7612 2.6 25.8012 2.672 25.8012 2.752C25.8012 2.864 25.7452 2.984 25.6332 3.112C25.5212 3.224 25.3532 3.28 25.1292 3.28C24.4892 3.264 23.9692 3.28 23.5692 3.328C23.1692 3.36 22.7132 3.392 22.2012 3.424C21.8172 4.256 21.4332 5.16 21.0492 6.136C20.6812 7.112 20.3132 8.096 19.9452 9.088C19.5772 10.08 19.2252 11.032 18.8892 11.944C18.5532 12.84 18.2252 13.64 17.9052 14.344C18.4012 14.344 18.8652 14.384 19.2972 14.464C19.7452 14.544 20.2012 14.616 20.6652 14.68C20.8412 14.696 20.9692 14.752 21.0492 14.848C21.1292 14.944 21.1692 15.048 21.1692 15.16C21.1692 15.288 21.1132 15.4 21.0012 15.496C20.8892 15.592 20.7292 15.632 20.5212 15.616C20.1692 15.568 19.8412 15.528 19.5372 15.496C19.2492 15.464 18.9452 15.448 18.6252 15.448C18.4332 15.448 18.2252 15.456 18.0012 15.472C17.7932 15.488 17.5772 15.512 17.3532 15.544C17.2252 15.72 17.0492 15.808 16.8252 15.808C16.6812 15.808 16.5692 15.776 16.4892 15.712C16.1532 15.808 15.8252 15.912 15.5052 16.024C15.2012 16.152 14.8172 16.28 14.3532 16.408ZM33.5014 22.792C33.2934 22.792 33.0854 22.776 32.8774 22.744C32.6854 22.712 32.4934 22.672 32.3014 22.624C31.9654 22.528 31.7174 22.352 31.5574 22.096C31.4134 21.84 31.3414 21.576 31.3414 21.304C31.3414 21.08 31.3974 20.904 31.5094 20.776C31.6214 20.664 31.7574 20.608 31.9174 20.608C31.9654 20.608 32.0054 20.608 32.0374 20.608C32.0854 20.624 32.1334 20.64 32.1814 20.656C32.2934 20.704 32.4214 20.856 32.5654 21.112C32.7254 21.368 32.8854 21.536 33.0454 21.616C33.0934 21.632 33.1574 21.64 33.2374 21.64C33.5094 21.64 33.8134 21.52 34.1494 21.28C34.5014 21.04 34.7654 20.816 34.9414 20.608C35.6294 19.824 36.1574 19.048 36.5254 18.28C36.8934 17.512 37.1814 16.768 37.3894 16.048C37.6134 15.328 37.8294 14.656 38.0374 14.032C37.6854 14.352 37.3174 14.632 36.9334 14.872C36.5494 15.096 36.0854 15.28 35.5414 15.424C35.0134 15.568 34.3174 15.688 33.4534 15.784C33.3414 15.8 33.2374 15.808 33.1414 15.808C33.0454 15.808 32.9494 15.808 32.8534 15.808C32.1014 15.808 31.4694 15.664 30.9574 15.376C30.4454 15.072 30.0614 14.688 29.8054 14.224C29.5494 13.76 29.4214 13.264 29.4214 12.736C29.4214 11.952 29.6774 11.232 30.1894 10.576C30.4934 10.192 30.8774 9.784 31.3414 9.352C31.8054 8.904 32.3414 8.488 32.9494 8.104C33.5734 7.72 34.2614 7.408 35.0134 7.168C35.7814 6.928 36.6054 6.824 37.4854 6.856C37.9334 6.856 38.2534 6.936 38.4454 7.096C38.6534 7.24 38.7814 7.424 38.8294 7.648C38.8934 7.856 38.9254 8.072 38.9254 8.296C38.9094 8.536 38.8134 8.656 38.6374 8.656C38.4934 8.656 38.3174 8.6 38.1094 8.488C37.9014 8.376 37.6694 8.272 37.4134 8.176C36.4854 8.112 35.6054 8.24 34.7734 8.56C33.9574 8.88 33.2294 9.288 32.5894 9.784C31.9654 10.264 31.4774 10.744 31.1254 11.224C30.8374 11.608 30.6934 12.056 30.6934 12.568C30.6934 12.952 30.7894 13.328 30.9814 13.696C31.1894 14.048 31.5014 14.336 31.9174 14.56C32.3334 14.768 32.8534 14.848 33.4774 14.8C34.2454 14.736 34.8934 14.592 35.4214 14.368C35.9494 14.144 36.4134 13.864 36.8134 13.528C37.2134 13.192 37.5814 12.824 37.9174 12.424C38.2534 12.024 38.6134 11.624 38.9974 11.224C39.0934 11.128 39.2134 11.08 39.3574 11.08C39.4854 11.08 39.6054 11.136 39.7174 11.248C39.8294 11.344 39.8854 11.488 39.8854 11.68C39.8854 11.728 39.8854 11.784 39.8854 11.848C39.8854 11.896 39.8694 11.952 39.8374 12.016C39.7254 12.416 39.5734 12.96 39.3814 13.648C39.1894 14.32 38.9654 15.056 38.7094 15.856C38.4694 16.64 38.1894 17.4 37.8694 18.136C37.5334 18.888 37.1254 19.624 36.6454 20.344C36.1814 21.064 35.7014 21.688 35.2054 22.216H35.2294C35.0534 22.424 34.8054 22.568 34.4854 22.648C34.1814 22.744 33.8534 22.792 33.5014 22.792ZM45.3919 17.368C45.2639 17.368 45.1119 17.344 44.9359 17.296C43.9599 16.976 43.2479 16.448 42.7999 15.712C42.3519 14.96 42.1279 14.168 42.1279 13.336C42.1279 13.208 42.1279 13.088 42.1279 12.976C42.1439 12.848 42.1599 12.728 42.1759 12.616C42.3199 11.704 42.6239 10.896 43.0879 10.192C43.5679 9.488 44.1039 8.912 44.6959 8.464C45.3039 8 45.8559 7.704 46.3519 7.576C46.6719 7.496 46.9919 7.432 47.3119 7.384C47.6319 7.32 47.9439 7.288 48.2479 7.288C49.0159 7.288 49.6719 7.456 50.2159 7.792C50.7599 8.128 51.0319 8.68 51.0319 9.448C51.0319 9.88 50.8959 10.272 50.6239 10.624C50.3679 10.976 50.0399 11.28 49.6399 11.536C49.2559 11.776 48.8799 11.968 48.5119 12.112C47.9519 12.336 47.3119 12.504 46.5919 12.616C45.8879 12.728 45.2239 12.784 44.5999 12.784C44.1999 12.784 43.8319 12.76 43.4959 12.712V12.736C43.4959 12.8 43.4879 12.864 43.4719 12.928C43.4559 12.976 43.4479 13.032 43.4479 13.096C43.4319 13.16 43.4239 13.224 43.4239 13.288C43.4239 13.336 43.4239 13.384 43.4239 13.432C43.4239 13.928 43.5199 14.368 43.7119 14.752C43.9199 15.12 44.1599 15.44 44.4319 15.712C44.7039 15.968 44.9279 16.176 45.1039 16.336C45.3919 16.48 45.5919 16.616 45.7039 16.744C45.8319 16.888 45.8959 17 45.8959 17.08C45.8959 17.272 45.7279 17.368 45.3919 17.368ZM45.2479 11.704C45.7279 11.704 46.2319 11.672 46.7599 11.608C47.2879 11.528 47.7759 11.384 48.2239 11.176C48.5759 11 48.9039 10.768 49.2079 10.48C49.5119 10.176 49.6639 9.816 49.6639 9.4C49.6639 9.08 49.5359 8.84 49.2799 8.68C49.0239 8.52 48.6639 8.44 48.1999 8.44C47.6719 8.44 47.0959 8.536 46.4719 8.728C46.2479 8.792 45.9679 8.944 45.6319 9.184C45.3119 9.424 44.9839 9.752 44.6479 10.168C44.3119 10.568 44.0319 11.048 43.8079 11.608C43.9999 11.624 44.2159 11.648 44.4559 11.68C44.7119 11.696 44.9759 11.704 45.2479 11.704ZM60.3008 16.192C60.0608 16.192 59.8368 16.056 59.6288 15.784C59.4208 15.496 59.3168 15.136 59.3168 14.704C59.3168 14.432 59.3408 14.088 59.3888 13.672C59.4368 13.256 59.5088 12.84 59.6048 12.424C59.7008 11.992 59.8128 11.624 59.9408 11.32C60.1968 10.744 60.3248 10.288 60.3248 9.952C60.3248 9.536 60.1328 9.328 59.7488 9.328C59.7008 9.328 59.6448 9.328 59.5808 9.328C59.5168 9.328 59.4528 9.344 59.3888 9.376C59.0688 9.472 58.6368 9.688 58.0928 10.024C57.5488 10.344 56.9728 10.72 56.3648 11.152C55.7728 11.584 55.2128 12.016 54.6848 12.448C54.1568 12.88 53.7488 13.256 53.4608 13.576C53.0608 14.024 52.7968 14.368 52.6688 14.608C52.5408 14.848 52.4768 14.968 52.4768 14.968C52.3488 15.144 52.2048 15.232 52.0448 15.232C51.9008 15.232 51.7808 15.16 51.6848 15.016C51.5888 14.856 51.5648 14.648 51.6128 14.392C51.8368 13.08 52.0768 11.96 52.3328 11.032C52.6048 10.104 52.9168 9.304 53.2688 8.632C53.4128 8.376 53.6128 8.248 53.8688 8.248C54.0128 8.248 54.1408 8.304 54.2528 8.416C54.3648 8.512 54.4208 8.664 54.4208 8.872C54.4208 8.984 54.3728 9.2 54.2768 9.52C54.1968 9.84 54.0928 10.104 53.9648 10.312C53.8048 10.568 53.6688 10.864 53.5568 11.2C53.4608 11.52 53.3408 11.968 53.1968 12.544C53.3728 12.272 53.5248 12.08 53.6528 11.968C53.7808 11.84 53.9488 11.672 54.1568 11.464C54.8128 10.808 55.5888 10.216 56.4848 9.688C57.3968 9.144 58.2688 8.688 59.1008 8.32C59.2768 8.24 59.5008 8.16 59.7728 8.08C60.0448 8 60.3168 7.96 60.5888 7.96C60.9088 7.96 61.1968 8.048 61.4528 8.224C61.7088 8.4 61.8368 8.736 61.8368 9.232C61.8368 9.488 61.7888 9.8 61.6928 10.168C61.6128 10.536 61.4688 10.968 61.2608 11.464C61.0048 12.056 60.8368 12.672 60.7568 13.312C60.6928 13.952 60.6608 14.496 60.6608 14.944C60.6608 15.072 60.6608 15.2 60.6608 15.328C60.6768 15.44 60.6848 15.544 60.6848 15.64C60.6848 15.8 60.6608 15.928 60.6128 16.024C60.5648 16.136 60.4608 16.192 60.3008 16.192ZM66.2279 17.368C66.0999 17.368 65.9479 17.344 65.7719 17.296C64.7959 16.976 64.0839 16.448 63.6359 15.712C63.1879 14.96 62.9639 14.168 62.9639 13.336C62.9639 13.208 62.9639 13.088 62.9639 12.976C62.9799 12.848 62.9959 12.728 63.0119 12.616C63.1559 11.704 63.4599 10.896 63.9239 10.192C64.4039 9.488 64.9399 8.912 65.5319 8.464C66.1399 8 66.6919 7.704 67.1879 7.576C67.5079 7.496 67.8279 7.432 68.1479 7.384C68.4679 7.32 68.7799 7.288 69.0839 7.288C69.8519 7.288 70.5079 7.456 71.0519 7.792C71.5959 8.128 71.8679 8.68 71.8679 9.448C71.8679 9.88 71.7319 10.272 71.4599 10.624C71.2039 10.976 70.8759 11.28 70.4759 11.536C70.0919 11.776 69.7159 11.968 69.3479 12.112C68.7879 12.336 68.1479 12.504 67.4279 12.616C66.7239 12.728 66.0599 12.784 65.4359 12.784C65.0359 12.784 64.6679 12.76 64.3319 12.712V12.736C64.3319 12.8 64.3239 12.864 64.3079 12.928C64.2919 12.976 64.2839 13.032 64.2839 13.096C64.2679 13.16 64.2599 13.224 64.2599 13.288C64.2599 13.336 64.2599 13.384 64.2599 13.432C64.2599 13.928 64.3559 14.368 64.5479 14.752C64.7559 15.12 64.9959 15.44 65.2679 15.712C65.5399 15.968 65.7639 16.176 65.9399 16.336C66.2279 16.48 66.4279 16.616 66.5399 16.744C66.6679 16.888 66.7319 17 66.7319 17.08C66.7319 17.272 66.5639 17.368 66.2279 17.368ZM66.0839 11.704C66.5639 11.704 67.0679 11.672 67.5959 11.608C68.1239 11.528 68.6119 11.384 69.0599 11.176C69.4119 11 69.7399 10.768 70.0439 10.48C70.3479 10.176 70.4999 9.816 70.4999 9.4C70.4999 9.08 70.3719 8.84 70.1159 8.68C69.8599 8.52 69.4999 8.44 69.0359 8.44C68.5079 8.44 67.9319 8.536 67.3079 8.728C67.0839 8.792 66.8039 8.944 66.4679 9.184C66.1479 9.424 65.8199 9.752 65.4839 10.168C65.1479 10.568 64.8679 11.048 64.6439 11.608C64.8359 11.624 65.0519 11.648 65.2919 11.68C65.5479 11.696 65.8119 11.704 66.0839 11.704ZM73.7208 15.616C73.5768 15.616 73.4408 15.56 73.3128 15.448C73.2008 15.32 73.1448 15.112 73.1448 14.824C73.1448 14.76 73.1448 14.696 73.1448 14.632C73.1608 14.552 73.1768 14.472 73.1928 14.392C73.3368 13.688 73.5208 12.944 73.7448 12.16C73.9848 11.376 74.2248 10.64 74.4648 9.952C74.7048 9.248 74.8808 8.696 74.9928 8.296C75.0728 8.04 75.1848 7.856 75.3288 7.744C75.4888 7.632 75.6488 7.576 75.8088 7.576C75.9848 7.576 76.1288 7.632 76.2408 7.744C76.3688 7.84 76.4328 7.976 76.4328 8.152C76.4328 8.296 76.3848 8.456 76.2888 8.632C76.1928 8.808 76.0728 9.088 75.9288 9.472C75.8008 9.856 75.6728 10.24 75.5448 10.624C75.4168 11.008 75.3048 11.296 75.2088 11.488C75.7688 10.944 76.2728 10.496 76.7208 10.144C77.1688 9.792 77.7608 9.448 78.4968 9.112C78.8168 8.952 79.2328 8.872 79.7448 8.872C80.1128 8.872 80.4808 8.944 80.8488 9.088C81.2168 9.232 81.5208 9.488 81.7608 9.856C82.0008 10.224 82.1208 10.744 82.1208 11.416C82.1208 11.672 81.9768 11.8 81.6888 11.8C81.5768 11.8 81.4568 11.752 81.3288 11.656C81.2168 11.56 81.1208 11.4 81.0408 11.176C80.9288 10.808 80.7528 10.52 80.5128 10.312C80.2888 10.088 79.9928 9.976 79.6248 9.976C79.4008 9.976 79.1448 10.024 78.8568 10.12C78.5048 10.232 78.0648 10.448 77.5368 10.768C77.0088 11.072 76.4648 11.456 75.9048 11.92C75.3608 12.384 74.8568 12.912 74.3928 13.504C74.3928 13.616 74.3688 13.744 74.3208 13.888C74.2888 14.032 74.2728 14.192 74.2728 14.368C74.2728 14.4 74.2888 14.48 74.3208 14.608C74.3528 14.736 74.3688 14.864 74.3688 14.992C74.3688 15.168 74.2968 15.32 74.1528 15.448C74.0248 15.56 73.8808 15.616 73.7208 15.616ZM85.7791 15.472C85.3311 15.472 84.8911 15.376 84.4591 15.184C84.0431 14.992 83.6991 14.728 83.4271 14.392C83.1551 14.056 83.0191 13.672 83.0191 13.24C83.0191 12.6 83.1871 12.04 83.5231 11.56C83.8591 11.08 84.2831 10.672 84.7951 10.336C85.3231 10 85.8591 9.744 86.4031 9.568C86.9311 9.392 87.5071 9.304 88.1311 9.304C88.7871 9.304 89.4191 9.424 90.0271 9.664C90.6511 9.888 91.0911 10.28 91.3471 10.84C91.4751 10.424 91.5711 10.016 91.6351 9.616C91.6991 9.2 91.7311 8.84 91.7311 8.536C91.7311 8.024 91.6271 7.632 91.4191 7.36C91.2271 7.088 90.8751 6.952 90.3631 6.952C90.1551 6.952 89.9151 7.032 89.6431 7.192C89.3711 7.336 89.1071 7.528 88.8511 7.768C88.7551 7.864 88.6831 7.928 88.6351 7.96C88.6031 7.992 88.5151 8.008 88.3711 8.008C88.2111 8.008 88.0831 7.952 87.9871 7.84C87.9071 7.728 87.8671 7.6 87.8671 7.456C87.8671 7.264 87.9391 7.096 88.0831 6.952C88.2271 6.808 88.3871 6.648 88.5631 6.472C88.7391 6.296 88.9631 6.144 89.2351 6.016C89.5231 5.872 89.8831 5.8 90.3151 5.8C91.2111 5.8 91.8671 6.008 92.2831 6.424C92.6991 6.84 92.9071 7.52 92.9071 8.464C92.9071 8.928 92.8431 9.408 92.7151 9.904C92.6031 10.4 92.4671 10.928 92.3071 11.488C92.2111 11.84 92.0751 12.24 91.8991 12.688C91.7391 13.12 91.5311 13.552 91.2751 13.984C91.0191 14.416 90.7071 14.784 90.3391 15.088C90.2271 15.184 90.1071 15.232 89.9791 15.232C89.8191 15.232 89.6831 15.176 89.5711 15.064C89.4591 14.952 89.4031 14.824 89.4031 14.68C89.4031 14.536 89.4751 14.392 89.6191 14.248C89.7951 14.104 89.9791 13.872 90.1711 13.552C90.3791 13.232 90.5711 12.832 90.7471 12.352C90.6991 11.696 90.3871 11.216 89.8111 10.912C89.2511 10.608 88.6271 10.456 87.9391 10.456C87.5391 10.456 87.1551 10.504 86.7871 10.6C86.3871 10.712 85.9871 10.904 85.5871 11.176C85.1871 11.432 84.8511 11.736 84.5791 12.088C84.3231 12.44 84.1951 12.808 84.1951 13.192C84.1951 13.496 84.3471 13.768 84.6511 14.008C84.9711 14.248 85.3471 14.368 85.7791 14.368C86.1471 14.368 86.4351 14.36 86.6431 14.344C86.8671 14.328 87.0751 14.28 87.2671 14.2C87.4751 14.104 87.7391 13.936 88.0591 13.696C88.2031 13.6 88.3231 13.552 88.4191 13.552C88.5471 13.552 88.6511 13.592 88.7311 13.672C88.8111 13.752 88.8511 13.856 88.8511 13.984C88.8511 14.16 88.7631 14.312 88.5871 14.44C88.0431 14.888 87.5631 15.176 87.1471 15.304C86.7471 15.416 86.2911 15.472 85.7791 15.472ZM97.5426 17.32C97.4786 17.32 97.4226 17.312 97.3746 17.296C97.3266 17.296 97.2706 17.288 97.2066 17.272C96.7586 17.16 96.3186 16.984 95.8866 16.744C95.4706 16.504 95.1266 16.152 94.8546 15.688C94.5826 15.208 94.4466 14.584 94.4466 13.816C94.4466 13.512 94.4706 13.184 94.5186 12.832C94.5986 12.272 94.7426 11.616 94.9506 10.864C95.1746 10.096 95.4386 9.296 95.7426 8.464H95.7186C95.6226 8.464 95.5346 8.48 95.4546 8.512C95.3746 8.544 95.2946 8.56 95.2146 8.56C94.9586 8.56 94.8306 8.408 94.8306 8.104C94.8306 7.928 94.9026 7.76 95.0466 7.6C95.1906 7.44 95.3266 7.36 95.4546 7.36L96.1746 7.336C96.5746 6.296 96.9746 5.312 97.3746 4.384C97.7906 3.44 98.1426 2.696 98.4306 2.152C98.5106 2.008 98.6226 1.904 98.7666 1.84C98.9266 1.76 99.0866 1.72 99.2466 1.72C99.4066 1.72 99.5426 1.76 99.6546 1.84C99.7826 1.904 99.8466 2 99.8466 2.128C99.8466 2.16 99.8306 2.224 99.7986 2.32L98.3106 5.56C98.1666 5.864 98.0306 6.152 97.9026 6.424C97.7906 6.696 97.6706 6.968 97.5426 7.24C97.8626 7.24 98.1906 7.248 98.5266 7.264C98.8786 7.28 99.2706 7.312 99.7026 7.36C99.7826 7.376 99.8626 7.432 99.9426 7.528C100.023 7.624 100.063 7.728 100.063 7.84C100.063 7.92 100.031 8 99.9666 8.08C99.9186 8.144 99.8066 8.184 99.6306 8.2C99.2466 8.248 98.8226 8.28 98.3586 8.296C97.8946 8.296 97.4786 8.304 97.1106 8.32C96.7426 9.296 96.4466 10.184 96.2226 10.984C96.0146 11.784 95.8466 12.536 95.7186 13.24C95.7026 13.352 95.6866 13.464 95.6706 13.576C95.6706 13.688 95.6706 13.792 95.6706 13.888C95.6706 14.608 95.8626 15.144 96.2466 15.496C96.6306 15.848 97.0626 16.096 97.5426 16.24C97.8306 16.336 98.0306 16.432 98.1426 16.528C98.2706 16.64 98.3346 16.744 98.3346 16.84C98.3346 16.968 98.2546 17.08 98.0946 17.176C97.9506 17.272 97.7666 17.32 97.5426 17.32ZM103.494 17.368C103.366 17.368 103.214 17.344 103.038 17.296C102.062 16.976 101.35 16.448 100.902 15.712C100.454 14.96 100.229 14.168 100.229 13.336C100.229 13.208 100.229 13.088 100.229 12.976C100.246 12.848 100.262 12.728 100.278 12.616C100.422 11.704 100.726 10.896 101.19 10.192C101.67 9.488 102.206 8.912 102.798 8.464C103.406 8 103.958 7.704 104.454 7.576C104.774 7.496 105.094 7.432 105.414 7.384C105.734 7.32 106.046 7.288 106.35 7.288C107.118 7.288 107.774 7.456 108.318 7.792C108.862 8.128 109.134 8.68 109.134 9.448C109.134 9.88 108.998 10.272 108.726 10.624C108.47 10.976 108.142 11.28 107.742 11.536C107.358 11.776 106.982 11.968 106.614 12.112C106.054 12.336 105.414 12.504 104.694 12.616C103.99 12.728 103.326 12.784 102.702 12.784C102.302 12.784 101.934 12.76 101.598 12.712V12.736C101.598 12.8 101.59 12.864 101.574 12.928C101.558 12.976 101.55 13.032 101.55 13.096C101.534 13.16 101.526 13.224 101.526 13.288C101.526 13.336 101.526 13.384 101.526 13.432C101.526 13.928 101.622 14.368 101.814 14.752C102.022 15.12 102.262 15.44 102.534 15.712C102.806 15.968 103.03 16.176 103.206 16.336C103.494 16.48 103.694 16.616 103.806 16.744C103.934 16.888 103.998 17 103.998 17.08C103.998 17.272 103.83 17.368 103.494 17.368ZM103.35 11.704C103.83 11.704 104.334 11.672 104.862 11.608C105.39 11.528 105.878 11.384 106.326 11.176C106.678 11 107.006 10.768 107.31 10.48C107.614 10.176 107.766 9.816 107.766 9.4C107.766 9.08 107.638 8.84 107.382 8.68C107.126 8.52 106.766 8.44 106.302 8.44C105.774 8.44 105.198 8.536 104.574 8.728C104.35 8.792 104.07 8.944 103.734 9.184C103.414 9.424 103.086 9.752 102.75 10.168C102.414 10.568 102.134 11.048 101.91 11.608C102.102 11.624 102.318 11.648 102.558 11.68C102.814 11.696 103.078 11.704 103.35 11.704ZM114.389 15.784C113.509 15.784 112.741 15.632 112.085 15.328C111.445 15.024 110.941 14.632 110.573 14.152C110.221 13.656 110.045 13.128 110.045 12.568C110.045 12.28 110.093 11.984 110.189 11.68C110.301 11.376 110.469 11.088 110.693 10.816C110.981 10.448 111.341 10.048 111.773 9.616C112.221 9.184 112.725 8.776 113.285 8.392C113.861 8.008 114.493 7.696 115.181 7.456C115.869 7.2 116.605 7.072 117.389 7.072C117.965 7.072 118.357 7.12 118.565 7.216C118.789 7.312 118.941 7.44 119.021 7.6C119.101 7.744 119.197 7.888 119.309 8.032C119.501 7.424 119.725 6.784 119.981 6.112C120.237 5.44 120.485 4.808 120.725 4.216C120.965 3.624 121.157 3.144 121.301 2.776C121.397 2.568 121.509 2.32 121.637 2.032C121.781 1.728 121.901 1.464 121.997 1.24C122.109 0.999999 122.165 0.879999 122.165 0.879999C122.277 0.607999 122.485 0.472 122.789 0.472C123.013 0.472 123.221 0.552 123.413 0.711999C123.605 0.871999 123.701 1.064 123.701 1.288C123.701 1.448 123.637 1.616 123.509 1.792H123.485C123.485 1.792 123.413 1.872 123.269 2.032C123.125 2.176 122.965 2.36 122.789 2.584C122.629 2.808 122.509 3.016 122.429 3.208C122.237 3.688 121.997 4.256 121.709 4.912C121.437 5.552 121.157 6.256 120.869 7.024C120.581 7.792 120.325 8.576 120.101 9.376C119.893 10.16 119.765 10.936 119.717 11.704C119.701 11.816 119.645 11.904 119.549 11.968C119.453 12.032 119.341 12.064 119.213 12.064C119.037 12.064 118.877 12.024 118.733 11.944C118.589 11.848 118.533 11.72 118.565 11.56C118.645 11.336 118.693 11.112 118.709 10.888C118.741 10.648 118.757 10.424 118.757 10.216C118.757 9.768 118.685 9.384 118.541 9.064C118.413 8.728 118.205 8.52 117.917 8.44C117.789 8.392 117.653 8.36 117.509 8.344C117.365 8.328 117.221 8.32 117.077 8.32C116.565 8.32 116.045 8.44 115.517 8.68C114.989 8.904 114.485 9.2 114.005 9.568C113.541 9.92 113.117 10.288 112.733 10.672C112.349 11.056 112.045 11.408 111.821 11.728C111.597 12.032 111.485 12.36 111.485 12.712C111.485 13.128 111.685 13.528 112.085 13.912C112.485 14.28 113.173 14.504 114.149 14.584C114.229 14.6 114.309 14.608 114.389 14.608C114.469 14.608 114.557 14.608 114.653 14.608C115.309 14.608 115.989 14.528 116.693 14.368C117.413 14.192 118.045 13.992 118.589 13.768C119.021 13.592 119.405 13.384 119.741 13.144C120.077 12.904 120.373 12.672 120.629 12.448C120.757 12.336 120.893 12.28 121.037 12.28C121.181 12.28 121.301 12.336 121.397 12.448C121.509 12.544 121.565 12.656 121.565 12.784C121.565 12.944 121.493 13.088 121.349 13.216C121.093 13.44 120.765 13.712 120.365 14.032C119.981 14.336 119.517 14.6 118.973 14.824C118.333 15.08 117.589 15.304 116.741 15.496C115.893 15.688 115.109 15.784 114.389 15.784ZM134.461 6.808C134.381 6.904 134.277 6.912 134.149 6.832C134.037 6.752 133.941 6.632 133.861 6.472C133.781 6.296 133.757 6.128 133.789 5.968H133.813C133.877 5.728 133.957 5.528 134.053 5.368C134.149 5.208 134.277 5.048 134.437 4.888C134.533 4.792 134.661 4.744 134.821 4.744C134.965 4.744 135.093 4.792 135.205 4.888C135.333 4.968 135.397 5.072 135.397 5.2C135.397 5.264 135.373 5.336 135.325 5.416C135.277 5.48 135.181 5.648 135.037 5.92C134.909 6.192 134.717 6.488 134.461 6.808ZM131.437 15.664C131.181 15.664 130.925 15.568 130.669 15.376C130.429 15.168 130.333 14.84 130.381 14.392C130.445 13.768 130.533 13.24 130.645 12.808C130.757 12.376 130.885 11.984 131.029 11.632C131.173 11.264 131.325 10.872 131.485 10.456C131.661 10.04 131.837 9.536 132.013 8.944C132.109 8.672 132.309 8.536 132.613 8.536C132.821 8.536 133.005 8.6 133.165 8.728C133.325 8.856 133.373 9.032 133.309 9.256C133.101 9.928 132.893 10.472 132.685 10.888C132.477 11.304 132.285 11.672 132.109 11.992C131.933 12.296 131.781 12.632 131.653 13C131.541 13.352 131.469 13.808 131.437 14.368C131.437 14.416 131.541 14.52 131.749 14.68C131.957 14.824 132.061 14.992 132.061 15.184C132.061 15.328 131.981 15.456 131.821 15.568C131.741 15.632 131.613 15.664 131.437 15.664ZM138.811 15.784C137.931 15.784 137.163 15.632 136.507 15.328C135.867 15.024 135.363 14.632 134.995 14.152C134.643 13.656 134.467 13.128 134.467 12.568C134.467 12.28 134.515 11.984 134.611 11.68C134.723 11.376 134.891 11.088 135.115 10.816C135.403 10.448 135.763 10.048 136.195 9.616C136.643 9.184 137.147 8.776 137.707 8.392C138.283 8.008 138.915 7.696 139.603 7.456C140.291 7.2 141.027 7.072 141.811 7.072C142.387 7.072 142.779 7.12 142.987 7.216C143.211 7.312 143.363 7.44 143.443 7.6C143.523 7.744 143.619 7.888 143.731 8.032C143.923 7.424 144.147 6.784 144.403 6.112C144.659 5.44 144.907 4.808 145.147 4.216C145.387 3.624 145.579 3.144 145.723 2.776C145.819 2.568 145.931 2.32 146.059 2.032C146.203 1.728 146.323 1.464 146.419 1.24C146.531 0.999999 146.587 0.879999 146.587 0.879999C146.699 0.607999 146.907 0.472 147.211 0.472C147.435 0.472 147.643 0.552 147.835 0.711999C148.027 0.871999 148.123 1.064 148.123 1.288C148.123 1.448 148.059 1.616 147.931 1.792H147.907C147.907 1.792 147.835 1.872 147.691 2.032C147.547 2.176 147.387 2.36 147.211 2.584C147.051 2.808 146.931 3.016 146.851 3.208C146.659 3.688 146.419 4.256 146.131 4.912C145.859 5.552 145.579 6.256 145.291 7.024C145.003 7.792 144.747 8.576 144.523 9.376C144.315 10.16 144.187 10.936 144.139 11.704C144.123 11.816 144.067 11.904 143.971 11.968C143.875 12.032 143.763 12.064 143.635 12.064C143.459 12.064 143.299 12.024 143.155 11.944C143.011 11.848 142.955 11.72 142.987 11.56C143.067 11.336 143.115 11.112 143.131 10.888C143.163 10.648 143.179 10.424 143.179 10.216C143.179 9.768 143.107 9.384 142.963 9.064C142.835 8.728 142.627 8.52 142.339 8.44C142.211 8.392 142.075 8.36 141.931 8.344C141.787 8.328 141.643 8.32 141.499 8.32C140.987 8.32 140.467 8.44 139.939 8.68C139.411 8.904 138.907 9.2 138.427 9.568C137.963 9.92 137.539 10.288 137.155 10.672C136.771 11.056 136.467 11.408 136.243 11.728C136.019 12.032 135.907 12.36 135.907 12.712C135.907 13.128 136.107 13.528 136.507 13.912C136.907 14.28 137.595 14.504 138.571 14.584C138.651 14.6 138.731 14.608 138.811 14.608C138.891 14.608 138.979 14.608 139.075 14.608C139.731 14.608 140.411 14.528 141.115 14.368C141.835 14.192 142.467 13.992 143.011 13.768C143.443 13.592 143.827 13.384 144.163 13.144C144.499 12.904 144.795 12.672 145.051 12.448C145.179 12.336 145.315 12.28 145.459 12.28C145.603 12.28 145.723 12.336 145.819 12.448C145.931 12.544 145.987 12.656 145.987 12.784C145.987 12.944 145.915 13.088 145.771 13.216C145.515 13.44 145.187 13.712 144.787 14.032C144.403 14.336 143.939 14.6 143.395 14.824C142.755 15.08 142.011 15.304 141.163 15.496C140.315 15.688 139.531 15.784 138.811 15.784ZM150.509 17.368C150.381 17.368 150.229 17.344 150.053 17.296C149.077 16.976 148.365 16.448 147.917 15.712C147.469 14.96 147.245 14.168 147.245 13.336C147.245 13.208 147.245 13.088 147.245 12.976C147.261 12.848 147.277 12.728 147.293 12.616C147.437 11.704 147.741 10.896 148.205 10.192C148.685 9.488 149.221 8.912 149.813 8.464C150.421 8 150.973 7.704 151.469 7.576C151.789 7.496 152.109 7.432 152.429 7.384C152.749 7.32 153.061 7.288 153.365 7.288C154.133 7.288 154.789 7.456 155.333 7.792C155.877 8.128 156.149 8.68 156.149 9.448C156.149 9.88 156.013 10.272 155.741 10.624C155.485 10.976 155.157 11.28 154.757 11.536C154.373 11.776 153.997 11.968 153.629 12.112C153.069 12.336 152.429 12.504 151.709 12.616C151.005 12.728 150.341 12.784 149.717 12.784C149.317 12.784 148.949 12.76 148.613 12.712V12.736C148.613 12.8 148.605 12.864 148.589 12.928C148.573 12.976 148.565 13.032 148.565 13.096C148.549 13.16 148.541 13.224 148.541 13.288C148.541 13.336 148.541 13.384 148.541 13.432C148.541 13.928 148.637 14.368 148.829 14.752C149.037 15.12 149.277 15.44 149.549 15.712C149.821 15.968 150.045 16.176 150.221 16.336C150.509 16.48 150.709 16.616 150.821 16.744C150.949 16.888 151.013 17 151.013 17.08C151.013 17.272 150.845 17.368 150.509 17.368ZM150.365 11.704C150.845 11.704 151.349 11.672 151.877 11.608C152.405 11.528 152.893 11.384 153.341 11.176C153.693 11 154.021 10.768 154.325 10.48C154.629 10.176 154.781 9.816 154.781 9.4C154.781 9.08 154.653 8.84 154.397 8.68C154.141 8.52 153.781 8.44 153.317 8.44C152.789 8.44 152.213 8.536 151.589 8.728C151.365 8.792 151.085 8.944 150.749 9.184C150.429 9.424 150.101 9.752 149.765 10.168C149.429 10.568 149.149 11.048 148.925 11.608C149.117 11.624 149.333 11.648 149.573 11.68C149.829 11.696 150.093 11.704 150.365 11.704ZM159.724 15.472C159.276 15.472 158.836 15.376 158.404 15.184C157.988 14.992 157.644 14.728 157.372 14.392C157.1 14.056 156.964 13.672 156.964 13.24C156.964 12.6 157.132 12.04 157.468 11.56C157.804 11.08 158.228 10.672 158.74 10.336C159.268 10 159.804 9.744 160.348 9.568C160.876 9.392 161.452 9.304 162.076 9.304C162.732 9.304 163.364 9.424 163.972 9.664C164.596 9.888 165.036 10.28 165.292 10.84C165.42 10.424 165.516 10.016 165.58 9.616C165.644 9.2 165.676 8.84 165.676 8.536C165.676 8.024 165.572 7.632 165.364 7.36C165.172 7.088 164.82 6.952 164.308 6.952C164.1 6.952 163.86 7.032 163.588 7.192C163.316 7.336 163.052 7.528 162.796 7.768C162.7 7.864 162.628 7.928 162.58 7.96C162.548 7.992 162.46 8.008 162.316 8.008C162.156 8.008 162.028 7.952 161.932 7.84C161.852 7.728 161.812 7.6 161.812 7.456C161.812 7.264 161.884 7.096 162.028 6.952C162.172 6.808 162.332 6.648 162.508 6.472C162.684 6.296 162.908 6.144 163.18 6.016C163.468 5.872 163.828 5.8 164.26 5.8C165.156 5.8 165.812 6.008 166.228 6.424C166.644 6.84 166.852 7.52 166.852 8.464C166.852 8.928 166.788 9.408 166.66 9.904C166.548 10.4 166.412 10.928 166.252 11.488C166.156 11.84 166.02 12.24 165.844 12.688C165.684 13.12 165.476 13.552 165.22 13.984C164.964 14.416 164.652 14.784 164.284 15.088C164.172 15.184 164.052 15.232 163.924 15.232C163.764 15.232 163.628 15.176 163.516 15.064C163.404 14.952 163.348 14.824 163.348 14.68C163.348 14.536 163.42 14.392 163.564 14.248C163.74 14.104 163.924 13.872 164.116 13.552C164.324 13.232 164.516 12.832 164.692 12.352C164.644 11.696 164.332 11.216 163.756 10.912C163.196 10.608 162.572 10.456 161.884 10.456C161.484 10.456 161.1 10.504 160.732 10.6C160.332 10.712 159.932 10.904 159.532 11.176C159.132 11.432 158.796 11.736 158.524 12.088C158.268 12.44 158.14 12.808 158.14 13.192C158.14 13.496 158.292 13.768 158.596 14.008C158.916 14.248 159.292 14.368 159.724 14.368C160.092 14.368 160.38 14.36 160.588 14.344C160.812 14.328 161.02 14.28 161.212 14.2C161.42 14.104 161.684 13.936 162.004 13.696C162.148 13.6 162.268 13.552 162.364 13.552C162.492 13.552 162.596 13.592 162.676 13.672C162.756 13.752 162.796 13.856 162.796 13.984C162.796 14.16 162.708 14.312 162.532 14.44C161.988 14.888 161.508 15.176 161.092 15.304C160.692 15.416 160.236 15.472 159.724 15.472Z" fill="black"/>
<path d="M177.97 19.0219C177.418 19.0385 176.984 19.4995 177 20.0516C177.017 20.6036 177.478 21.0376 178.03 21.021L178 20.0214L177.97 19.0219ZM224.257 61.6885C224.637 62.0891 225.27 62.1055 225.671 61.7252L232.198 55.5285C232.598 55.1482 232.614 54.5153 232.234 54.1148C231.854 53.7142 231.221 53.6978 230.82 54.0781L225.019 59.5863L219.511 53.7846C219.13 53.384 218.497 53.3676 218.097 53.7479C217.696 54.1281 217.68 54.7611 218.06 55.1616L224.257 61.6885ZM178 20.0214L178.03 21.021C185.91 20.7833 197.667 22.5203 207.308 28.4523C216.884 34.3445 224.413 44.3897 223.982 60.9741L224.982 61L225.982 61.0259C226.432 43.667 218.484 32.9812 208.356 26.749C198.292 20.5567 186.118 18.7761 177.97 19.0219L178 20.0214Z" fill="#FF5E00"/>
</svg>
