<svg width="177" height="51" viewBox="0 0 177 51" fill="none" xmlns="http://www.w3.org/2000/svg">
<path d="M1.00951 11L4.33751 1.77H6.11851L9.44651 11H7.95151L7.10651 8.595H3.33651L2.50451 11H1.00951ZM3.77851 7.321H6.67751L5.22151 3.109L3.77851 7.321ZM10.5511 11V1.77H11.9551V11H10.5511ZM19.9948 13.106C19.4488 13.106 18.9678 13.0237 18.5518 12.859C18.1358 12.6943 17.7935 12.4603 17.5248 12.157C17.2561 11.8623 17.0741 11.5157 16.9788 11.117L18.4088 11.026C18.5041 11.312 18.6688 11.5373 18.9028 11.702C19.1455 11.8753 19.5095 11.962 19.9948 11.962C20.5668 11.962 21.0045 11.8407 21.3078 11.598C21.6198 11.3553 21.7758 10.987 21.7758 10.493V9.492C21.6111 9.84733 21.3468 10.129 20.9828 10.337C20.6188 10.545 20.2115 10.649 19.7608 10.649C19.1801 10.649 18.6645 10.506 18.2138 10.22C17.7631 9.934 17.4121 9.53967 17.1608 9.037C16.9095 8.53433 16.7838 7.95367 16.7838 7.295C16.7838 6.62767 16.9051 6.04267 17.1478 5.54C17.3991 5.03733 17.7458 4.643 18.1878 4.357C18.6385 4.071 19.1455 3.928 19.7088 3.928C20.2028 3.928 20.6361 4.04067 21.0088 4.266C21.3901 4.49133 21.6631 4.79467 21.8278 5.176V4.084H23.1538V10.454C23.1538 11.026 23.0238 11.507 22.7638 11.897C22.5125 12.2957 22.1485 12.5947 21.6718 12.794C21.2038 13.002 20.6448 13.106 19.9948 13.106ZM19.9818 9.479C20.5191 9.479 20.9481 9.284 21.2688 8.894C21.5981 8.504 21.7671 7.96667 21.7758 7.282C21.7845 6.83133 21.7151 6.44567 21.5678 6.125C21.4205 5.79567 21.2081 5.54433 20.9308 5.371C20.6621 5.189 20.3458 5.098 19.9818 5.098C19.4185 5.098 18.9808 5.29733 18.6688 5.696C18.3655 6.086 18.2138 6.61467 18.2138 7.282C18.2138 7.958 18.3698 8.49533 18.6818 8.894C19.0025 9.284 19.4358 9.479 19.9818 9.479ZM27.8293 11.156C27.1533 11.156 26.5683 11.0087 26.0743 10.714C25.589 10.4193 25.212 9.999 24.9433 9.453C24.6833 8.907 24.5533 8.27 24.5533 7.542C24.5533 6.814 24.6833 6.18133 24.9433 5.644C25.212 5.098 25.589 4.67767 26.0743 4.383C26.5597 4.07967 27.1317 3.928 27.7903 3.928C28.4143 3.928 28.9647 4.07533 29.4413 4.37C29.918 4.656 30.2863 5.072 30.5463 5.618C30.815 6.164 30.9493 6.82267 30.9493 7.594V7.945H25.9833C26.018 8.621 26.1957 9.128 26.5163 9.466C26.8457 9.804 27.2877 9.973 27.8423 9.973C28.2497 9.973 28.5877 9.87767 28.8563 9.687C29.125 9.49633 29.3113 9.24067 29.4153 8.92L30.8453 9.011C30.6633 9.65233 30.3037 10.1723 29.7663 10.571C29.2377 10.961 28.592 11.156 27.8293 11.156ZM25.9833 6.905H29.4933C29.45 6.28967 29.2723 5.83467 28.9603 5.54C28.657 5.24533 28.267 5.098 27.7903 5.098C27.2963 5.098 26.889 5.254 26.5683 5.566C26.2563 5.86933 26.0613 6.31567 25.9833 6.905ZM32.3456 11V4.084H33.6066L33.6586 5.93L33.4896 5.839C33.5676 5.38833 33.7149 5.02433 33.9316 4.747C34.1483 4.46967 34.4126 4.266 34.7246 4.136C35.0366 3.99733 35.3746 3.928 35.7386 3.928C36.2586 3.928 36.6876 4.045 37.0256 4.279C37.3723 4.50433 37.6323 4.81633 37.8056 5.215C37.9876 5.605 38.0786 6.05133 38.0786 6.554V11H36.7006V6.97C36.7006 6.56267 36.6573 6.22033 36.5706 5.943C36.4839 5.66567 36.3409 5.45333 36.1416 5.306C35.9423 5.15867 35.6823 5.085 35.3616 5.085C34.8763 5.085 34.4819 5.24533 34.1786 5.566C33.8753 5.88667 33.7236 6.35467 33.7236 6.97V11H32.3456ZM42.7209 11.156C42.0449 11.156 41.4599 11.0087 40.9659 10.714C40.4806 10.4193 40.1036 9.999 39.8349 9.453C39.5749 8.907 39.4449 8.27 39.4449 7.542C39.4449 6.814 39.5749 6.18133 39.8349 5.644C40.1036 5.098 40.4806 4.67767 40.9659 4.383C41.4513 4.07967 42.0233 3.928 42.6819 3.928C43.3059 3.928 43.8563 4.07533 44.3329 4.37C44.8096 4.656 45.1779 5.072 45.4379 5.618C45.7066 6.164 45.8409 6.82267 45.8409 7.594V7.945H40.8749C40.9096 8.621 41.0873 9.128 41.4079 9.466C41.7373 9.804 42.1793 9.973 42.7339 9.973C43.1413 9.973 43.4793 9.87767 43.7479 9.687C44.0166 9.49633 44.2029 9.24067 44.3069 8.92L45.7369 9.011C45.5549 9.65233 45.1953 10.1723 44.6579 10.571C44.1293 10.961 43.4836 11.156 42.7209 11.156ZM40.8749 6.905H44.3849C44.3416 6.28967 44.1639 5.83467 43.8519 5.54C43.5486 5.24533 43.1586 5.098 42.6819 5.098C42.1879 5.098 41.7806 5.254 41.4599 5.566C41.1479 5.86933 40.9529 6.31567 40.8749 6.905ZM47.2372 11V4.084H48.4982L48.5502 5.917L48.4332 5.878C48.5285 5.254 48.7192 4.799 49.0052 4.513C49.2999 4.227 49.6942 4.084 50.1882 4.084H50.8512V5.319H50.1882C49.8415 5.319 49.5512 5.37533 49.3172 5.488C49.0832 5.60067 48.9055 5.774 48.7842 6.008C48.6715 6.242 48.6152 6.54533 48.6152 6.918V11H47.2372ZM53.7953 11.156C53.076 11.156 52.4996 10.9913 52.0663 10.662C51.6416 10.3327 51.4293 9.869 51.4293 9.271C51.4293 8.673 51.607 8.20933 51.9623 7.88C52.3263 7.542 52.8853 7.29933 53.6393 7.152L56.0183 6.697C56.0183 6.15967 55.8926 5.761 55.6413 5.501C55.39 5.23233 55.0173 5.098 54.5233 5.098C54.0813 5.098 53.7346 5.19767 53.4833 5.397C53.232 5.58767 53.0586 5.87367 52.9633 6.255L51.5463 6.164C51.6763 5.47067 51.997 4.92467 52.5083 4.526C53.0283 4.12733 53.7 3.928 54.5233 3.928C55.4593 3.928 56.17 4.17933 56.6553 4.682C57.1493 5.176 57.3963 5.87367 57.3963 6.775V9.466C57.3963 9.63067 57.4223 9.74767 57.4743 9.817C57.535 9.87767 57.6303 9.908 57.7603 9.908H58.0073V11C57.964 11.0087 57.8946 11.0173 57.7993 11.026C57.704 11.0347 57.6043 11.039 57.5003 11.039C57.2056 11.039 56.95 10.9913 56.7333 10.896C56.5253 10.8007 56.3693 10.6447 56.2653 10.428C56.1613 10.2027 56.1093 9.90367 56.1093 9.531L56.2523 9.596C56.183 9.89933 56.0313 10.168 55.7973 10.402C55.572 10.636 55.2816 10.8223 54.9263 10.961C54.5796 11.091 54.2026 11.156 53.7953 11.156ZM54.0163 10.064C54.4323 10.064 54.7876 9.986 55.0823 9.83C55.377 9.66533 55.6066 9.44 55.7713 9.154C55.936 8.868 56.0183 8.543 56.0183 8.179V7.737L53.9903 8.127C53.5743 8.205 53.2796 8.33067 53.1063 8.504C52.9416 8.66867 52.8593 8.881 52.8593 9.141C52.8593 9.43567 52.959 9.66533 53.1583 9.83C53.3663 9.986 53.6523 10.064 54.0163 10.064ZM61.4673 11C60.8087 11 60.3233 10.8483 60.0113 10.545C59.6993 10.2417 59.5433 9.76933 59.5433 9.128V2.459H60.9213V9.024C60.9213 9.34467 60.9907 9.56567 61.1293 9.687C61.268 9.80833 61.4803 9.869 61.7663 9.869H62.7543V11H61.4673ZM58.4903 5.215V4.084H62.7543V5.215H58.4903ZM66.8039 11.156C66.1279 11.156 65.5429 11.0087 65.0489 10.714C64.5636 10.4193 64.1866 9.999 63.9179 9.453C63.6579 8.907 63.5279 8.27 63.5279 7.542C63.5279 6.814 63.6579 6.18133 63.9179 5.644C64.1866 5.098 64.5636 4.67767 65.0489 4.383C65.5343 4.07967 66.1063 3.928 66.7649 3.928C67.3889 3.928 67.9393 4.07533 68.4159 4.37C68.8926 4.656 69.2609 5.072 69.5209 5.618C69.7896 6.164 69.9239 6.82267 69.9239 7.594V7.945H64.9579C64.9926 8.621 65.1703 9.128 65.4909 9.466C65.8203 9.804 66.2623 9.973 66.8169 9.973C67.2243 9.973 67.5623 9.87767 67.8309 9.687C68.0996 9.49633 68.2859 9.24067 68.3899 8.92L69.8199 9.011C69.6379 9.65233 69.2783 10.1723 68.7409 10.571C68.2123 10.961 67.5666 11.156 66.8039 11.156ZM64.9579 6.905H68.4679C68.4246 6.28967 68.2469 5.83467 67.9349 5.54C67.6316 5.24533 67.2416 5.098 66.7649 5.098C66.2709 5.098 65.8636 5.254 65.5429 5.566C65.2309 5.86933 65.0359 6.31567 64.9579 6.905ZM73.7772 11.156C73.1879 11.156 72.6722 11.0087 72.2302 10.714C71.7969 10.4193 71.4632 10.0033 71.2292 9.466C71.0039 8.92 70.8912 8.27867 70.8912 7.542C70.8912 6.80533 71.0082 6.16833 71.2422 5.631C71.4762 5.085 71.8099 4.66467 72.2432 4.37C72.6765 4.07533 73.1879 3.928 73.7772 3.928C74.2539 3.928 74.6785 4.02767 75.0512 4.227C75.4239 4.42633 75.7055 4.70367 75.8962 5.059V1.77H77.2742V11H75.9872L75.9482 9.96C75.7575 10.3327 75.4672 10.6273 75.0772 10.844C74.6959 11.052 74.2625 11.156 73.7772 11.156ZM74.1412 9.96C74.5139 9.96 74.8302 9.86467 75.0902 9.674C75.3502 9.48333 75.5495 9.206 75.6882 8.842C75.8269 8.478 75.8962 8.04467 75.8962 7.542C75.8962 7.022 75.8269 6.58433 75.6882 6.229C75.5495 5.865 75.3502 5.592 75.0902 5.41C74.8302 5.21933 74.5139 5.124 74.1412 5.124C73.5865 5.124 73.1445 5.34067 72.8152 5.774C72.4859 6.19867 72.3212 6.788 72.3212 7.542C72.3212 8.28733 72.4859 8.87667 72.8152 9.31C73.1445 9.74333 73.5865 9.96 74.1412 9.96ZM82.3905 11V4.084H83.7685V11H82.3905ZM82.3645 3.083V1.705H83.7945V3.083H82.3645ZM88.0467 11.156C87.4574 11.156 86.9417 11.0087 86.4997 10.714C86.0664 10.4193 85.7327 10.0033 85.4987 9.466C85.2734 8.92 85.1607 8.27867 85.1607 7.542C85.1607 6.80533 85.2777 6.16833 85.5117 5.631C85.7457 5.085 86.0794 4.66467 86.5127 4.37C86.9461 4.07533 87.4574 3.928 88.0467 3.928C88.5234 3.928 88.9481 4.02767 89.3207 4.227C89.6934 4.42633 89.9751 4.70367 90.1657 5.059V1.77H91.5437V11H90.2567L90.2177 9.96C90.0271 10.3327 89.7367 10.6273 89.3467 10.844C88.9654 11.052 88.5321 11.156 88.0467 11.156ZM88.4107 9.96C88.7834 9.96 89.0997 9.86467 89.3597 9.674C89.6197 9.48333 89.8191 9.206 89.9577 8.842C90.0964 8.478 90.1657 8.04467 90.1657 7.542C90.1657 7.022 90.0964 6.58433 89.9577 6.229C89.8191 5.865 89.6197 5.592 89.3597 5.41C89.0997 5.21933 88.7834 5.124 88.4107 5.124C87.8561 5.124 87.4141 5.34067 87.0847 5.774C86.7554 6.19867 86.5907 6.788 86.5907 7.542C86.5907 8.28733 86.7554 8.87667 87.0847 9.31C87.4141 9.74333 87.8561 9.96 88.4107 9.96ZM96.219 11.156C95.543 11.156 94.958 11.0087 94.464 10.714C93.9786 10.4193 93.6016 9.999 93.333 9.453C93.073 8.907 92.943 8.27 92.943 7.542C92.943 6.814 93.073 6.18133 93.333 5.644C93.6016 5.098 93.9786 4.67767 94.464 4.383C94.9493 4.07967 95.5213 3.928 96.18 3.928C96.804 3.928 97.3543 4.07533 97.831 4.37C98.3076 4.656 98.676 5.072 98.936 5.618C99.2046 6.164 99.339 6.82267 99.339 7.594V7.945H94.373C94.4076 8.621 94.5853 9.128 94.906 9.466C95.2353 9.804 95.6773 9.973 96.232 9.973C96.6393 9.973 96.9773 9.87767 97.246 9.687C97.5146 9.49633 97.701 9.24067 97.805 8.92L99.235 9.011C99.053 9.65233 98.6933 10.1723 98.156 10.571C97.6273 10.961 96.9816 11.156 96.219 11.156ZM94.373 6.905H97.883C97.8396 6.28967 97.662 5.83467 97.35 5.54C97.0466 5.24533 96.6566 5.098 96.18 5.098C95.686 5.098 95.2786 5.254 94.958 5.566C94.646 5.86933 94.451 6.31567 94.373 6.905ZM102.812 11.156C102.093 11.156 101.516 10.9913 101.083 10.662C100.658 10.3327 100.446 9.869 100.446 9.271C100.446 8.673 100.624 8.20933 100.979 7.88C101.343 7.542 101.902 7.29933 102.656 7.152L105.035 6.697C105.035 6.15967 104.909 5.761 104.658 5.501C104.407 5.23233 104.034 5.098 103.54 5.098C103.098 5.098 102.751 5.19767 102.5 5.397C102.249 5.58767 102.075 5.87367 101.98 6.255L100.563 6.164C100.693 5.47067 101.014 4.92467 101.525 4.526C102.045 4.12733 102.717 3.928 103.54 3.928C104.476 3.928 105.187 4.17933 105.672 4.682C106.166 5.176 106.413 5.87367 106.413 6.775V9.466C106.413 9.63067 106.439 9.74767 106.491 9.817C106.552 9.87767 106.647 9.908 106.777 9.908H107.024V11C106.981 11.0087 106.911 11.0173 106.816 11.026C106.721 11.0347 106.621 11.039 106.517 11.039C106.222 11.039 105.967 10.9913 105.75 10.896C105.542 10.8007 105.386 10.6447 105.282 10.428C105.178 10.2027 105.126 9.90367 105.126 9.531L105.269 9.596C105.2 9.89933 105.048 10.168 104.814 10.402C104.589 10.636 104.298 10.8223 103.943 10.961C103.596 11.091 103.219 11.156 102.812 11.156ZM103.033 10.064C103.449 10.064 103.804 9.986 104.099 9.83C104.394 9.66533 104.623 9.44 104.788 9.154C104.953 8.868 105.035 8.543 105.035 8.179V7.737L103.007 8.127C102.591 8.205 102.296 8.33067 102.123 8.504C101.958 8.66867 101.876 8.881 101.876 9.141C101.876 9.43567 101.976 9.66533 102.175 9.83C102.383 9.986 102.669 10.064 103.033 10.064Z" fill="black"/>
<path d="M121.97 8.02188C121.418 8.03854 120.984 8.49955 121 9.05158C121.017 9.60362 121.478 10.0376 122.03 10.021L122 9.02143L121.97 8.02188ZM168.257 50.6885C168.637 51.0891 169.27 51.1055 169.671 50.7252L176.198 44.5285C176.598 44.1482 176.614 43.5153 176.234 43.1148C175.854 42.7142 175.221 42.6978 174.82 43.0781L169.019 48.5863L163.511 42.7846C163.13 42.384 162.497 42.3676 162.097 42.7479C161.696 43.1281 161.68 43.7611 162.06 44.1616L168.257 50.6885ZM122 9.02143L122.03 10.021C129.91 9.78327 141.667 11.5203 151.308 17.4523C160.884 23.3445 168.413 33.3897 167.982 49.9741L168.982 50L169.982 50.0259C170.432 32.667 162.484 21.9812 152.356 15.749C142.292 9.55665 130.118 7.77607 121.97 8.02188L122 9.02143Z" fill="#FF5E00"/>
</svg>
