<svg width="144" height="89" viewBox="0 0 144 89" fill="none" xmlns="http://www.w3.org/2000/svg">
<path d="M87.4381 59.6536C87.2468 59.1355 86.6717 58.8706 86.1536 59.0619C85.6355 59.2532 85.3706 59.8283 85.5619 60.3464L86.5 60L87.4381 59.6536ZM0.889067 79.2083C0.451833 79.5457 0.370909 80.1737 0.708318 80.6109L6.20671 87.7361C6.54412 88.1733 7.1721 88.2542 7.60933 87.9168C8.04656 87.5794 8.12749 86.9514 7.79008 86.5142L2.90262 80.1807L9.23607 75.2933C9.67331 74.9559 9.75423 74.3279 9.41682 73.8907C9.07941 73.4534 8.45144 73.3725 8.01421 73.7099L0.889067 79.2083ZM86.5 60L85.5619 60.3464C86.4724 62.8122 86.5077 65.7383 84.94 68.6242C83.3646 71.5244 80.1082 74.4952 74.2236 76.886C62.4215 81.6812 40.3863 84.0028 1.62781 79.0082L1.5 80L1.37219 80.9918C40.2137 85.9972 62.6785 83.7355 74.9764 78.739C81.1418 76.234 84.8354 73.0068 86.6975 69.5789C88.5673 66.1367 88.5276 62.6045 87.4381 59.6536L86.5 60Z" fill="#FF5E00"/>
<path d="M44.2807 26.184C44.1207 26.184 43.9847 26.128 43.8727 26.016C43.7607 25.92 43.7207 25.768 43.7527 25.56C43.8487 25.032 43.9127 24.664 43.9447 24.456C43.9927 24.264 44.0247 24.12 44.0407 24.024C44.0727 23.928 44.1047 23.792 44.1367 23.616C44.1847 23.44 44.2407 23.112 44.3047 22.632C44.4327 21.864 44.5207 21.152 44.5687 20.496C44.6167 19.824 44.6487 19.208 44.6647 18.648C44.0567 18.712 43.4807 18.776 42.9367 18.84C42.4087 18.904 41.8167 19.056 41.1607 19.296H41.1367C40.8807 19.392 40.6327 19.528 40.3927 19.704C40.1527 19.864 39.8647 20.008 39.5287 20.136C39.4327 20.168 39.3527 20.184 39.2887 20.184C39.0967 20.184 38.9527 20.104 38.8567 19.944C38.7767 19.768 38.7527 19.6 38.7847 19.44C38.6727 19.616 38.5607 19.768 38.4487 19.896C38.1767 20.296 37.9367 20.648 37.7287 20.952C37.5367 21.24 37.3047 21.584 37.0327 21.984C36.7767 22.352 36.5527 22.76 36.3607 23.208C36.1687 23.64 35.9607 24.04 35.7367 24.408C35.6247 24.568 35.4807 24.648 35.3047 24.648C35.1287 24.648 34.9687 24.576 34.8247 24.432C34.6807 24.288 34.6087 24.12 34.6087 23.928C34.6087 23.816 34.6407 23.704 34.7047 23.592C34.9447 23.224 35.1607 22.912 35.3527 22.656C35.5607 22.384 35.7847 22.072 36.0247 21.72C36.3127 21.304 36.5527 20.952 36.7447 20.664C36.9527 20.376 37.1847 20.04 37.4407 19.656C37.7447 19.208 38.0167 18.816 38.2567 18.48C38.5127 18.144 38.7607 17.808 39.0007 17.472C39.2567 17.12 39.5287 16.728 39.8167 16.296C40.0727 15.896 40.2727 15.52 40.4167 15.168C40.5767 14.8 40.7447 14.44 40.9207 14.088C41.1127 13.736 41.3847 13.384 41.7367 13.032L41.7607 13.008C42.1287 12.64 42.4967 12.208 42.8647 11.712C43.2327 11.2 43.4967 10.768 43.6567 10.416C43.9607 10.064 44.2967 9.888 44.6647 9.888C45.0967 9.888 45.4567 10.128 45.7447 10.608C45.8087 10.768 45.8487 10.92 45.8647 11.064C45.8807 11.208 45.8887 11.352 45.8887 11.496C45.8887 11.72 45.8727 11.936 45.8407 12.144C45.8247 12.352 45.8167 12.56 45.8167 12.768C45.8327 13.296 45.8407 13.768 45.8407 14.184C45.8567 14.584 45.8647 15.008 45.8647 15.456C45.8647 15.664 45.8647 15.88 45.8647 16.104C45.8647 16.328 45.8567 16.568 45.8407 16.824C45.8407 16.888 45.8327 16.976 45.8167 17.088C45.8167 17.2 45.8167 17.28 45.8167 17.328H46.0567C46.2487 17.328 46.3927 17.376 46.4887 17.472C46.5847 17.568 46.6327 17.68 46.6327 17.808C46.6327 17.936 46.5847 18.064 46.4887 18.192C46.3927 18.304 46.2407 18.376 46.0327 18.408C45.9847 18.424 45.9367 18.44 45.8887 18.456C45.8407 18.456 45.7847 18.472 45.7207 18.504C45.6887 18.84 45.6567 19.184 45.6247 19.536C45.5927 19.872 45.5527 20.248 45.5047 20.664C45.4407 21.288 45.3847 21.848 45.3367 22.344C45.3047 22.824 45.2567 23.32 45.1927 23.832C45.1447 24.328 45.0567 24.936 44.9287 25.656C44.8967 25.832 44.8167 25.96 44.6887 26.04C44.5607 26.136 44.4247 26.184 44.2807 26.184ZM40.7767 16.824C40.4567 17.336 40.1687 17.744 39.9127 18.048C39.6567 18.352 39.3927 18.688 39.1207 19.056L39.1927 18.984C39.4967 18.872 39.7607 18.752 39.9847 18.624C40.2247 18.48 40.5127 18.376 40.8487 18.312C40.8487 18.312 41.0567 18.264 41.4727 18.168C41.8887 18.072 42.3927 17.96 42.9847 17.832C43.5927 17.688 44.1687 17.568 44.7127 17.472L44.7367 16.656C44.7367 16.512 44.7367 16.368 44.7367 16.224C44.7527 16.08 44.7607 15.952 44.7607 15.84C44.7607 15.328 44.7447 14.864 44.7127 14.448C44.6967 14.032 44.6807 13.504 44.6647 12.864C44.6967 12.64 44.7207 12.432 44.7367 12.24C44.7527 12.048 44.7607 11.872 44.7607 11.712C44.7607 11.456 44.7367 11.28 44.6887 11.184C44.6567 11.184 44.6007 11.192 44.5207 11.208C44.4567 11.208 44.3927 11.24 44.3287 11.304C44.0407 11.496 43.7847 11.792 43.5607 12.192C43.3527 12.592 43.0727 13.056 42.7207 13.584V13.56C42.3207 14.152 42.0007 14.688 41.7607 15.168C41.5207 15.632 41.1927 16.184 40.7767 16.824ZM50.9538 23.352C50.6818 23.352 50.4018 23.312 50.1138 23.232C49.8258 23.152 49.5378 23.032 49.2498 22.872C48.7218 22.568 48.3538 22.176 48.1458 21.696C47.9378 21.216 47.8338 20.704 47.8338 20.16C47.8338 19.904 47.8498 19.656 47.8818 19.416C47.9138 19.16 47.9618 18.904 48.0258 18.648C48.1538 18.12 48.3778 17.64 48.6978 17.208C49.0178 16.76 49.3778 16.384 49.7778 16.08C50.1778 15.776 50.5618 15.584 50.9298 15.504C50.9778 15.488 51.0418 15.48 51.1218 15.48C51.3458 15.48 51.5298 15.544 51.6738 15.672C51.8178 15.8 51.8898 15.944 51.8898 16.104C51.8898 16.296 51.7778 16.448 51.5538 16.56V16.584C51.1858 16.744 50.8578 16.912 50.5698 17.088C50.2978 17.248 50.0578 17.472 49.8498 17.76C49.6418 18.048 49.4498 18.464 49.2738 19.008C49.1778 19.296 49.1298 19.68 49.1298 20.16C49.1298 20.528 49.1778 20.88 49.2738 21.216C49.3858 21.536 49.5698 21.752 49.8258 21.864C50.0978 21.976 50.3858 22.032 50.6898 22.032C51.3458 22.032 51.9938 21.808 52.6338 21.36C53.2738 20.896 53.8418 20.416 54.3378 19.92C54.7858 19.472 55.2018 18.968 55.5858 18.408C55.9858 17.832 56.3218 17.304 56.5938 16.824C56.8658 16.328 57.0258 15.968 57.0738 15.744C57.1378 15.472 57.3138 15.336 57.6018 15.336C57.7778 15.336 57.9378 15.408 58.0818 15.552C58.2258 15.68 58.2658 15.856 58.2018 16.08C58.1058 16.416 57.9138 16.856 57.6258 17.4C57.3538 17.944 57.0178 18.512 56.6178 19.104C56.2338 19.68 55.8258 20.208 55.3938 20.688C55.0418 21.088 54.6338 21.496 54.1698 21.912C53.7058 22.312 53.2018 22.656 52.6578 22.944C52.1138 23.216 51.5458 23.352 50.9538 23.352ZM61.3668 25.32C61.3028 25.32 61.2468 25.312 61.1988 25.296C61.1508 25.296 61.0948 25.288 61.0308 25.272C60.5828 25.16 60.1428 24.984 59.7108 24.744C59.2948 24.504 58.9508 24.152 58.6788 23.688C58.4068 23.208 58.2708 22.584 58.2708 21.816C58.2708 21.512 58.2948 21.184 58.3428 20.832C58.4228 20.272 58.5668 19.616 58.7748 18.864C58.9988 18.096 59.2628 17.296 59.5668 16.464H59.5428C59.4468 16.464 59.3588 16.48 59.2788 16.512C59.1988 16.544 59.1188 16.56 59.0388 16.56C58.7828 16.56 58.6548 16.408 58.6548 16.104C58.6548 15.928 58.7268 15.76 58.8708 15.6C59.0148 15.44 59.1508 15.36 59.2788 15.36L59.9988 15.336C60.3988 14.296 60.7988 13.312 61.1988 12.384C61.6148 11.44 61.9668 10.696 62.2548 10.152C62.3348 10.008 62.4468 9.904 62.5908 9.84C62.7508 9.76 62.9108 9.72 63.0708 9.72C63.2308 9.72 63.3668 9.76 63.4788 9.84C63.6068 9.904 63.6708 10 63.6708 10.128C63.6708 10.16 63.6548 10.224 63.6228 10.32L62.1348 13.56C61.9908 13.864 61.8548 14.152 61.7268 14.424C61.6148 14.696 61.4948 14.968 61.3668 15.24C61.6868 15.24 62.0148 15.248 62.3508 15.264C62.7028 15.28 63.0948 15.312 63.5268 15.36C63.6068 15.376 63.6868 15.432 63.7668 15.528C63.8468 15.624 63.8868 15.728 63.8868 15.84C63.8868 15.92 63.8548 16 63.7908 16.08C63.7428 16.144 63.6308 16.184 63.4548 16.2C63.0708 16.248 62.6468 16.28 62.1828 16.296C61.7188 16.296 61.3028 16.304 60.9348 16.32C60.5668 17.296 60.2708 18.184 60.0468 18.984C59.8388 19.784 59.6708 20.536 59.5428 21.24C59.5268 21.352 59.5108 21.464 59.4948 21.576C59.4948 21.688 59.4948 21.792 59.4948 21.888C59.4948 22.608 59.6868 23.144 60.0708 23.496C60.4548 23.848 60.8868 24.096 61.3668 24.24C61.6548 24.336 61.8548 24.432 61.9668 24.528C62.0948 24.64 62.1588 24.744 62.1588 24.84C62.1588 24.968 62.0788 25.08 61.9188 25.176C61.7748 25.272 61.5908 25.32 61.3668 25.32ZM66.5257 23.544C66.4297 23.544 66.3337 23.544 66.2377 23.544C66.1417 23.528 66.0457 23.512 65.9497 23.496C65.2937 23.416 64.7817 23.104 64.4137 22.56C64.0617 22 63.8857 21.376 63.8857 20.688C63.8857 20.24 63.9737 19.768 64.1497 19.272C64.3417 18.76 64.6377 18.296 65.0377 17.88C65.4377 17.448 65.9017 17.104 66.4297 16.848C66.9577 16.592 67.4937 16.464 68.0377 16.464C68.3097 16.464 68.5657 16.496 68.8057 16.56C69.0617 16.624 69.1897 16.752 69.1897 16.944C69.1897 17.072 69.1177 17.2 68.9737 17.328C68.8457 17.44 68.6697 17.472 68.4457 17.424C68.3817 17.408 68.2777 17.4 68.1337 17.4C67.7497 17.4 67.3577 17.504 66.9577 17.712C66.5577 17.92 66.1977 18.2 65.8777 18.552C65.5577 18.888 65.3257 19.264 65.1817 19.68C65.0697 20 65.0137 20.32 65.0137 20.64C65.0137 21.136 65.1257 21.56 65.3497 21.912C65.5897 22.264 65.8617 22.44 66.1657 22.44C66.2457 22.456 66.3177 22.464 66.3817 22.464C66.4617 22.464 66.5337 22.464 66.5977 22.464C67.3017 22.464 67.9737 22.272 68.6137 21.888C69.2697 21.488 69.7737 21.056 70.1257 20.592C70.3017 20.32 70.4217 20.08 70.4857 19.872C70.5497 19.648 70.5817 19.464 70.5817 19.32C70.5817 19 70.4857 18.784 70.2937 18.672C70.1017 18.56 69.9257 18.512 69.7657 18.528C69.5097 18.56 69.2617 18.6 69.0217 18.648C68.7817 18.68 68.5737 18.736 68.3977 18.816C68.3017 18.848 68.2297 18.864 68.1817 18.864C68.0217 18.864 67.8857 18.8 67.7737 18.672C67.6777 18.544 67.6297 18.408 67.6297 18.264C67.6297 18.008 67.7497 17.84 67.9897 17.76C68.2137 17.68 68.4777 17.608 68.7817 17.544C69.0857 17.48 69.3977 17.432 69.7177 17.4C69.7817 17.384 69.8377 17.376 69.8857 17.376C69.9337 17.376 69.9897 17.376 70.0537 17.376C70.6297 17.376 71.0777 17.552 71.3977 17.904C71.7177 18.24 71.8777 18.656 71.8777 19.152C71.8777 19.456 71.8057 19.784 71.6617 20.136C71.5177 20.488 71.2857 20.824 70.9657 21.144C70.6777 21.512 70.3097 21.88 69.8617 22.248C69.4137 22.616 68.9097 22.928 68.3497 23.184C67.7897 23.424 67.1817 23.544 66.5257 23.544ZM75.0429 19.08C74.8349 19.112 74.6669 19.072 74.5389 18.96C74.4269 18.832 74.3709 18.688 74.3709 18.528C74.3709 18.4 74.4109 18.28 74.4909 18.168C74.5869 18.04 74.7229 17.96 74.8989 17.928C75.0589 17.896 75.3869 17.864 75.8829 17.832C76.3789 17.784 76.9389 17.744 77.5629 17.712C78.2029 17.68 78.7869 17.664 79.3149 17.664C79.8749 17.664 80.2989 17.688 80.5869 17.736C80.8269 17.784 80.9469 17.864 80.9469 17.976C80.9469 18.088 80.8509 18.208 80.6589 18.336C80.4669 18.448 80.2349 18.512 79.9629 18.528C79.2749 18.544 78.5949 18.592 77.9229 18.672C77.2669 18.752 76.6829 18.832 76.1709 18.912C75.6589 18.976 75.2829 19.032 75.0429 19.08ZM83.5293 23.616C83.3853 23.616 83.2493 23.56 83.1213 23.448C83.0093 23.32 82.9533 23.112 82.9533 22.824C82.9533 22.76 82.9533 22.696 82.9533 22.632C82.9693 22.552 82.9853 22.472 83.0013 22.392C83.1453 21.688 83.3293 20.944 83.5533 20.16C83.7933 19.376 84.0333 18.64 84.2733 17.952C84.5133 17.248 84.6893 16.696 84.8013 16.296C84.8813 16.04 84.9933 15.856 85.1373 15.744C85.2973 15.632 85.4573 15.576 85.6173 15.576C85.7933 15.576 85.9373 15.632 86.0493 15.744C86.1773 15.84 86.2413 15.976 86.2413 16.152C86.2413 16.296 86.1933 16.456 86.0973 16.632C86.0013 16.808 85.8813 17.088 85.7373 17.472C85.6093 17.856 85.4813 18.24 85.3533 18.624C85.2253 19.008 85.1133 19.296 85.0173 19.488C85.5773 18.944 86.0813 18.496 86.5293 18.144C86.9773 17.792 87.5693 17.448 88.3053 17.112C88.6253 16.952 89.0413 16.872 89.5533 16.872C89.9213 16.872 90.2893 16.944 90.6573 17.088C91.0253 17.232 91.3293 17.488 91.5693 17.856C91.8093 18.224 91.9293 18.744 91.9293 19.416C91.9293 19.672 91.7853 19.8 91.4973 19.8C91.3853 19.8 91.2653 19.752 91.1373 19.656C91.0253 19.56 90.9293 19.4 90.8493 19.176C90.7373 18.808 90.5613 18.52 90.3213 18.312C90.0973 18.088 89.8013 17.976 89.4333 17.976C89.2093 17.976 88.9533 18.024 88.6653 18.12C88.3133 18.232 87.8733 18.448 87.3453 18.768C86.8173 19.072 86.2733 19.456 85.7133 19.92C85.1693 20.384 84.6653 20.912 84.2013 21.504C84.2013 21.616 84.1773 21.744 84.1293 21.888C84.0973 22.032 84.0813 22.192 84.0813 22.368C84.0813 22.4 84.0973 22.48 84.1293 22.608C84.1613 22.736 84.1773 22.864 84.1773 22.992C84.1773 23.168 84.1053 23.32 83.9613 23.448C83.8333 23.56 83.6893 23.616 83.5293 23.616ZM97.6997 14.808C97.6197 14.904 97.5157 14.912 97.3877 14.832C97.2757 14.752 97.1797 14.632 97.0997 14.472C97.0197 14.296 96.9957 14.128 97.0277 13.968H97.0517C97.1157 13.728 97.1957 13.528 97.2917 13.368C97.3877 13.208 97.5157 13.048 97.6757 12.888C97.7717 12.792 97.8997 12.744 98.0597 12.744C98.2037 12.744 98.3317 12.792 98.4437 12.888C98.5717 12.968 98.6357 13.072 98.6357 13.2C98.6357 13.264 98.6117 13.336 98.5637 13.416C98.5157 13.48 98.4197 13.648 98.2757 13.92C98.1477 14.192 97.9557 14.488 97.6997 14.808ZM94.6757 23.664C94.4197 23.664 94.1637 23.568 93.9077 23.376C93.6677 23.168 93.5717 22.84 93.6197 22.392C93.6837 21.768 93.7717 21.24 93.8837 20.808C93.9957 20.376 94.1237 19.984 94.2677 19.632C94.4117 19.264 94.5637 18.872 94.7237 18.456C94.8997 18.04 95.0757 17.536 95.2517 16.944C95.3477 16.672 95.5477 16.536 95.8517 16.536C96.0597 16.536 96.2437 16.6 96.4037 16.728C96.5637 16.856 96.6117 17.032 96.5477 17.256C96.3397 17.928 96.1317 18.472 95.9237 18.888C95.7157 19.304 95.5237 19.672 95.3477 19.992C95.1717 20.296 95.0197 20.632 94.8917 21C94.7797 21.352 94.7077 21.808 94.6757 22.368C94.6757 22.416 94.7797 22.52 94.9877 22.68C95.1957 22.824 95.2997 22.992 95.2997 23.184C95.2997 23.328 95.2197 23.456 95.0597 23.568C94.9797 23.632 94.8517 23.664 94.6757 23.664ZM98.0169 24.936C97.9049 24.936 97.7769 24.928 97.6329 24.912C97.5049 24.896 97.3689 24.872 97.2249 24.84C97.0169 24.792 96.9129 24.64 96.9129 24.384C96.9129 24.24 96.9689 24.112 97.0809 24C97.1929 23.872 97.3529 23.824 97.5609 23.856C97.7369 23.872 98.0169 23.832 98.4009 23.736C98.8009 23.64 99.2409 23.512 99.7209 23.352C100.425 23.096 101.001 22.824 101.449 22.536C101.897 22.248 102.265 21.912 102.553 21.528C102.857 21.144 103.009 20.776 103.009 20.424C103.009 20.264 102.977 20.112 102.913 19.968C102.849 19.808 102.729 19.656 102.553 19.512C102.281 19.272 101.953 19.048 101.569 18.84C101.185 18.632 100.809 18.416 100.441 18.192C100.073 17.952 99.7609 17.688 99.5049 17.4C99.2649 17.096 99.1449 16.728 99.1449 16.296C99.1449 15.912 99.2809 15.584 99.5529 15.312C99.8249 15.024 100.137 14.792 100.489 14.616C100.857 14.424 101.169 14.288 101.425 14.208C101.681 14.128 101.937 14.072 102.193 14.04C102.449 13.992 102.705 13.968 102.961 13.968C103.265 13.968 103.553 14.008 103.825 14.088C104.113 14.152 104.385 14.272 104.641 14.448C104.785 14.544 104.889 14.656 104.953 14.784C105.017 14.912 105.049 15.04 105.049 15.168C105.049 15.344 104.993 15.504 104.881 15.648C104.785 15.776 104.649 15.84 104.473 15.84C104.345 15.84 104.177 15.776 103.969 15.648H103.993C103.641 15.392 103.233 15.264 102.769 15.264C102.513 15.264 102.281 15.296 102.073 15.36C101.737 15.44 101.409 15.544 101.089 15.672C100.769 15.8 100.569 16 100.489 16.272C100.441 16.48 100.561 16.712 100.849 16.968C101.153 17.208 101.529 17.456 101.977 17.712C102.425 17.952 102.841 18.192 103.225 18.432C103.593 18.64 103.889 18.92 104.113 19.272C104.337 19.624 104.449 20 104.449 20.4C104.449 20.896 104.265 21.376 103.897 21.84C103.305 22.56 102.689 23.12 102.049 23.52C101.425 23.92 100.721 24.248 99.9369 24.504C99.5049 24.648 99.1449 24.752 98.8569 24.816C98.5689 24.896 98.2889 24.936 98.0169 24.936ZM107.555 24.72C107.331 24.72 107.115 24.64 106.907 24.48C106.699 24.336 106.595 24.072 106.595 23.688C106.595 23.64 106.595 23.592 106.595 23.544C106.595 23.48 106.603 23.416 106.619 23.352C106.971 21.368 107.395 19.656 107.891 18.216C108.387 16.776 108.907 15.52 109.451 14.448C109.995 13.376 110.491 12.408 110.939 11.544C111.067 11.304 111.235 11.128 111.443 11.016C111.667 10.888 111.875 10.824 112.067 10.824C112.419 10.824 112.595 10.96 112.595 11.232C112.595 11.424 112.499 11.64 112.307 11.88C111.971 12.264 111.595 12.824 111.179 13.56C110.779 14.296 110.379 15.12 109.979 16.032C109.579 16.928 109.227 17.832 108.923 18.744C109.051 18.664 109.179 18.592 109.307 18.528C109.435 18.448 109.555 18.376 109.667 18.312C110.051 18.12 110.491 17.912 110.987 17.688C111.499 17.448 112.011 17.24 112.523 17.064C113.035 16.872 113.491 16.744 113.891 16.68C113.971 16.664 114.059 16.648 114.155 16.632C114.267 16.616 114.371 16.608 114.467 16.608C114.579 16.608 114.667 16.64 114.731 16.704C114.811 16.768 114.851 16.888 114.851 17.064C114.851 17.384 114.763 17.592 114.587 17.688C114.427 17.784 114.251 17.848 114.059 17.88C113.755 17.912 113.363 18.016 112.883 18.192C112.419 18.352 111.939 18.544 111.443 18.768C110.963 18.976 110.539 19.176 110.171 19.368C109.947 19.448 109.747 19.576 109.571 19.752C109.395 19.912 109.267 20.056 109.187 20.184C109.107 20.296 109.099 20.336 109.163 20.304C109.211 20.464 109.347 20.664 109.571 20.904C109.795 21.144 110.059 21.384 110.363 21.624C110.683 21.848 110.995 22.056 111.299 22.248C111.619 22.424 111.883 22.552 112.091 22.632C112.459 22.744 112.715 22.88 112.859 23.04C113.019 23.184 113.099 23.32 113.099 23.448C113.099 23.576 113.035 23.688 112.907 23.784C112.795 23.88 112.651 23.928 112.475 23.928C112.411 23.928 112.331 23.912 112.235 23.88C111.883 23.752 111.435 23.552 110.891 23.28C110.363 23.008 109.851 22.688 109.355 22.32C108.859 21.952 108.483 21.576 108.227 21.192H108.203C108.139 21.544 108.059 21.944 107.963 22.392C107.883 22.84 107.851 23.2 107.867 23.472C107.867 23.568 107.931 23.68 108.059 23.808C108.203 23.92 108.275 24.048 108.275 24.192C108.275 24.336 108.187 24.472 108.011 24.6C107.883 24.68 107.731 24.72 107.555 24.72ZM32.134 48.624C31.51 48.624 30.998 48.48 30.598 48.192C30.198 47.904 29.894 47.544 29.686 47.112C29.494 46.664 29.398 46.208 29.398 45.744C29.398 45.216 29.518 44.704 29.758 44.208C29.998 43.696 30.294 43.216 30.646 42.768C30.998 42.32 31.342 41.92 31.678 41.568C32.526 40.688 33.318 40.04 34.054 39.624C34.806 39.208 35.406 39 35.854 39C36.302 39 36.638 39.072 36.862 39.216C37.086 39.36 37.238 39.536 37.318 39.744C37.414 39.952 37.47 40.144 37.486 40.32C37.518 40.608 37.478 40.848 37.366 41.04C37.254 41.216 37.102 41.304 36.91 41.304C36.734 41.304 36.558 41.224 36.382 41.064C36.206 40.904 36.054 40.728 35.926 40.536C35.51 40.632 35.15 40.728 34.846 40.824C34.542 40.904 34.246 41.032 33.958 41.208C33.686 41.368 33.366 41.608 32.998 41.928C32.342 42.52 31.774 43.144 31.294 43.8C30.83 44.456 30.598 45.16 30.598 45.912C30.598 46.936 31.126 47.448 32.182 47.448C32.87 47.448 33.582 47.272 34.318 46.92C35.054 46.552 35.694 46.08 36.238 45.504C36.366 45.376 36.51 45.312 36.67 45.312C36.798 45.312 36.902 45.352 36.982 45.432C37.078 45.512 37.126 45.616 37.126 45.744C37.126 45.888 37.062 46.016 36.934 46.128C36.166 46.864 35.398 47.464 34.63 47.928C33.878 48.392 33.046 48.624 32.134 48.624ZM41.2478 47.472C40.7998 47.472 40.3598 47.376 39.9278 47.184C39.5118 46.992 39.1678 46.728 38.8958 46.392C38.6238 46.056 38.4878 45.672 38.4878 45.24C38.4878 44.6 38.6558 44.04 38.9918 43.56C39.3278 43.08 39.7518 42.672 40.2638 42.336C40.7918 42 41.3278 41.744 41.8718 41.568C42.3998 41.392 42.9758 41.304 43.5998 41.304C44.2558 41.304 44.8878 41.424 45.4958 41.664C46.1198 41.888 46.5598 42.28 46.8158 42.84C46.9438 42.424 47.0398 42.016 47.1038 41.616C47.1678 41.2 47.1998 40.84 47.1998 40.536C47.1998 40.024 47.0958 39.632 46.8878 39.36C46.6958 39.088 46.3438 38.952 45.8318 38.952C45.6238 38.952 45.3838 39.032 45.1118 39.192C44.8398 39.336 44.5758 39.528 44.3198 39.768C44.2238 39.864 44.1518 39.928 44.1038 39.96C44.0718 39.992 43.9838 40.008 43.8398 40.008C43.6798 40.008 43.5518 39.952 43.4558 39.84C43.3758 39.728 43.3358 39.6 43.3358 39.456C43.3358 39.264 43.4078 39.096 43.5518 38.952C43.6958 38.808 43.8558 38.648 44.0318 38.472C44.2078 38.296 44.4318 38.144 44.7038 38.016C44.9918 37.872 45.3518 37.8 45.7838 37.8C46.6798 37.8 47.3358 38.008 47.7518 38.424C48.1678 38.84 48.3758 39.52 48.3758 40.464C48.3758 40.928 48.3118 41.408 48.1838 41.904C48.0718 42.4 47.9358 42.928 47.7758 43.488C47.6798 43.84 47.5438 44.24 47.3678 44.688C47.2078 45.12 46.9998 45.552 46.7438 45.984C46.4878 46.416 46.1758 46.784 45.8078 47.088C45.6958 47.184 45.5758 47.232 45.4478 47.232C45.2878 47.232 45.1518 47.176 45.0398 47.064C44.9278 46.952 44.8718 46.824 44.8718 46.68C44.8718 46.536 44.9438 46.392 45.0878 46.248C45.2638 46.104 45.4478 45.872 45.6398 45.552C45.8478 45.232 46.0398 44.832 46.2158 44.352C46.1678 43.696 45.8558 43.216 45.2798 42.912C44.7198 42.608 44.0958 42.456 43.4078 42.456C43.0078 42.456 42.6238 42.504 42.2558 42.6C41.8558 42.712 41.4558 42.904 41.0558 43.176C40.6558 43.432 40.3198 43.736 40.0478 44.088C39.7918 44.44 39.6638 44.808 39.6638 45.192C39.6638 45.496 39.8158 45.768 40.1198 46.008C40.4398 46.248 40.8158 46.368 41.2478 46.368C41.6158 46.368 41.9038 46.36 42.1118 46.344C42.3358 46.328 42.5438 46.28 42.7358 46.2C42.9438 46.104 43.2078 45.936 43.5278 45.696C43.6718 45.6 43.7918 45.552 43.8878 45.552C44.0158 45.552 44.1198 45.592 44.1998 45.672C44.2798 45.752 44.3198 45.856 44.3198 45.984C44.3198 46.16 44.2318 46.312 44.0558 46.44C43.5118 46.888 43.0318 47.176 42.6158 47.304C42.2158 47.416 41.7598 47.472 41.2478 47.472ZM50.9234 48.696C50.6674 48.696 50.4114 48.592 50.1554 48.384C49.9154 48.192 49.8114 47.872 49.8434 47.424C49.8914 47.008 50.0034 46.456 50.1794 45.768C50.3714 45.064 50.6114 44.288 50.8994 43.44C51.2034 42.592 51.5234 41.72 51.8594 40.824C52.2114 39.912 52.5634 39.032 52.9154 38.184C53.2674 37.32 53.6034 36.544 53.9234 35.856C54.2434 35.152 54.5154 34.584 54.7394 34.152C54.8834 33.896 55.0834 33.768 55.3394 33.768C55.4834 33.768 55.6114 33.824 55.7234 33.936C55.8354 34.032 55.8914 34.176 55.8914 34.368C55.8914 34.432 55.8674 34.568 55.8194 34.776C55.7874 34.984 55.7314 35.2 55.6514 35.424C55.5874 35.648 55.5154 35.832 55.4354 35.976C55.2754 36.232 55.0834 36.496 54.8594 36.768C54.6354 37.04 54.4354 37.36 54.2594 37.728C53.8754 38.56 53.4914 39.44 53.1074 40.368C52.7234 41.28 52.3714 42.176 52.0514 43.056C51.7314 43.936 51.4674 44.728 51.2594 45.432C51.0674 46.136 50.9554 46.696 50.9234 47.112C50.9234 47.224 50.9714 47.344 51.0674 47.472C51.1794 47.6 51.2834 47.728 51.3794 47.856C51.4914 47.984 51.5474 48.112 51.5474 48.24C51.5474 48.368 51.4674 48.488 51.3074 48.6C51.2274 48.664 51.0994 48.696 50.9234 48.696ZM57.3293 48.624C56.7053 48.624 56.1933 48.48 55.7933 48.192C55.3933 47.904 55.0893 47.544 54.8813 47.112C54.6893 46.664 54.5933 46.208 54.5933 45.744C54.5933 45.216 54.7133 44.704 54.9533 44.208C55.1933 43.696 55.4893 43.216 55.8413 42.768C56.1933 42.32 56.5373 41.92 56.8733 41.568C57.7213 40.688 58.5133 40.04 59.2493 39.624C60.0013 39.208 60.6013 39 61.0493 39C61.4973 39 61.8333 39.072 62.0573 39.216C62.2813 39.36 62.4333 39.536 62.5133 39.744C62.6093 39.952 62.6653 40.144 62.6813 40.32C62.7133 40.608 62.6733 40.848 62.5613 41.04C62.4493 41.216 62.2973 41.304 62.1053 41.304C61.9293 41.304 61.7533 41.224 61.5773 41.064C61.4013 40.904 61.2493 40.728 61.1213 40.536C60.7053 40.632 60.3453 40.728 60.0413 40.824C59.7373 40.904 59.4413 41.032 59.1533 41.208C58.8813 41.368 58.5613 41.608 58.1933 41.928C57.5373 42.52 56.9693 43.144 56.4893 43.8C56.0253 44.456 55.7933 45.16 55.7933 45.912C55.7933 46.936 56.3213 47.448 57.3773 47.448C58.0653 47.448 58.7773 47.272 59.5133 46.92C60.2493 46.552 60.8893 46.08 61.4333 45.504C61.5613 45.376 61.7053 45.312 61.8653 45.312C61.9933 45.312 62.0973 45.352 62.1773 45.432C62.2733 45.512 62.3213 45.616 62.3213 45.744C62.3213 45.888 62.2573 46.016 62.1293 46.128C61.3613 46.864 60.5933 47.464 59.8253 47.928C59.0733 48.392 58.2413 48.624 57.3293 48.624ZM67.0671 47.352C66.7951 47.352 66.5151 47.312 66.2271 47.232C65.9391 47.152 65.6511 47.032 65.3631 46.872C64.8351 46.568 64.4671 46.176 64.2591 45.696C64.0511 45.216 63.9471 44.704 63.9471 44.16C63.9471 43.904 63.9631 43.656 63.9951 43.416C64.0271 43.16 64.0751 42.904 64.1391 42.648C64.2671 42.12 64.4911 41.64 64.8111 41.208C65.1311 40.76 65.4911 40.384 65.8911 40.08C66.2911 39.776 66.6751 39.584 67.0431 39.504C67.0911 39.488 67.1551 39.48 67.2351 39.48C67.4591 39.48 67.6431 39.544 67.7871 39.672C67.9311 39.8 68.0031 39.944 68.0031 40.104C68.0031 40.296 67.8911 40.448 67.6671 40.56V40.584C67.2991 40.744 66.9711 40.912 66.6831 41.088C66.4111 41.248 66.1711 41.472 65.9631 41.76C65.7551 42.048 65.5631 42.464 65.3871 43.008C65.2911 43.296 65.2431 43.68 65.2431 44.16C65.2431 44.528 65.2911 44.88 65.3871 45.216C65.4991 45.536 65.6831 45.752 65.9391 45.864C66.2111 45.976 66.4991 46.032 66.8031 46.032C67.4591 46.032 68.1071 45.808 68.7471 45.36C69.3871 44.896 69.9551 44.416 70.4511 43.92C70.8991 43.472 71.3151 42.968 71.6991 42.408C72.0991 41.832 72.4351 41.304 72.7071 40.824C72.9791 40.328 73.1391 39.968 73.1871 39.744C73.2511 39.472 73.4271 39.336 73.7151 39.336C73.8911 39.336 74.0511 39.408 74.1951 39.552C74.3391 39.68 74.3791 39.856 74.3151 40.08C74.2191 40.416 74.0271 40.856 73.7391 41.4C73.4671 41.944 73.1311 42.512 72.7311 43.104C72.3471 43.68 71.9391 44.208 71.5071 44.688C71.1551 45.088 70.7471 45.496 70.2831 45.912C69.8191 46.312 69.3151 46.656 68.7711 46.944C68.2271 47.216 67.6591 47.352 67.0671 47.352ZM75.3921 48.696C75.1361 48.696 74.8801 48.592 74.6241 48.384C74.3841 48.192 74.2801 47.872 74.3121 47.424C74.3601 47.008 74.4721 46.456 74.6481 45.768C74.8401 45.064 75.0801 44.288 75.3681 43.44C75.6721 42.592 75.9921 41.72 76.3281 40.824C76.6801 39.912 77.0321 39.032 77.3841 38.184C77.7361 37.32 78.0721 36.544 78.3921 35.856C78.7121 35.152 78.9841 34.584 79.2081 34.152C79.3521 33.896 79.5521 33.768 79.8081 33.768C79.9521 33.768 80.0801 33.824 80.1921 33.936C80.3041 34.032 80.3601 34.176 80.3601 34.368C80.3601 34.432 80.3361 34.568 80.2881 34.776C80.2561 34.984 80.2001 35.2 80.1201 35.424C80.0561 35.648 79.9841 35.832 79.9041 35.976C79.7441 36.232 79.5521 36.496 79.3281 36.768C79.1041 37.04 78.9041 37.36 78.7281 37.728C78.3441 38.56 77.9601 39.44 77.5761 40.368C77.1921 41.28 76.8401 42.176 76.5201 43.056C76.2001 43.936 75.9361 44.728 75.7281 45.432C75.5361 46.136 75.4241 46.696 75.3921 47.112C75.3921 47.224 75.4401 47.344 75.5361 47.472C75.6481 47.6 75.7521 47.728 75.8481 47.856C75.9601 47.984 76.0161 48.112 76.0161 48.24C76.0161 48.368 75.9361 48.488 75.7761 48.6C75.6961 48.664 75.5681 48.696 75.3921 48.696ZM81.6541 47.472C81.2061 47.472 80.7661 47.376 80.3341 47.184C79.9181 46.992 79.5741 46.728 79.3021 46.392C79.0301 46.056 78.8941 45.672 78.8941 45.24C78.8941 44.6 79.0621 44.04 79.3981 43.56C79.7341 43.08 80.1581 42.672 80.6701 42.336C81.1981 42 81.7341 41.744 82.2781 41.568C82.8061 41.392 83.3821 41.304 84.0061 41.304C84.6621 41.304 85.2941 41.424 85.9021 41.664C86.5261 41.888 86.9661 42.28 87.2221 42.84C87.3501 42.424 87.4461 42.016 87.5101 41.616C87.5741 41.2 87.6061 40.84 87.6061 40.536C87.6061 40.024 87.5021 39.632 87.2941 39.36C87.1021 39.088 86.7501 38.952 86.2381 38.952C86.0301 38.952 85.7901 39.032 85.5181 39.192C85.2461 39.336 84.9821 39.528 84.7261 39.768C84.6301 39.864 84.5581 39.928 84.5101 39.96C84.4781 39.992 84.3901 40.008 84.2461 40.008C84.0861 40.008 83.9581 39.952 83.8621 39.84C83.7821 39.728 83.7421 39.6 83.7421 39.456C83.7421 39.264 83.8141 39.096 83.9581 38.952C84.1021 38.808 84.2621 38.648 84.4381 38.472C84.6141 38.296 84.8381 38.144 85.1101 38.016C85.3981 37.872 85.7581 37.8 86.1901 37.8C87.0861 37.8 87.7421 38.008 88.1581 38.424C88.5741 38.84 88.7821 39.52 88.7821 40.464C88.7821 40.928 88.7181 41.408 88.5901 41.904C88.4781 42.4 88.3421 42.928 88.1821 43.488C88.0861 43.84 87.9501 44.24 87.7741 44.688C87.6141 45.12 87.4061 45.552 87.1501 45.984C86.8941 46.416 86.5821 46.784 86.2141 47.088C86.1021 47.184 85.9821 47.232 85.8541 47.232C85.6941 47.232 85.5581 47.176 85.4461 47.064C85.3341 46.952 85.2781 46.824 85.2781 46.68C85.2781 46.536 85.3501 46.392 85.4941 46.248C85.6701 46.104 85.8541 45.872 86.0461 45.552C86.2541 45.232 86.4461 44.832 86.6221 44.352C86.5741 43.696 86.2621 43.216 85.6861 42.912C85.1261 42.608 84.5021 42.456 83.8141 42.456C83.4141 42.456 83.0301 42.504 82.6621 42.6C82.2621 42.712 81.8621 42.904 81.4621 43.176C81.0621 43.432 80.7261 43.736 80.4541 44.088C80.1981 44.44 80.0701 44.808 80.0701 45.192C80.0701 45.496 80.2221 45.768 80.5261 46.008C80.8461 46.248 81.2221 46.368 81.6541 46.368C82.0221 46.368 82.3101 46.36 82.5181 46.344C82.7421 46.328 82.9501 46.28 83.1421 46.2C83.3501 46.104 83.6141 45.936 83.9341 45.696C84.0781 45.6 84.1981 45.552 84.2941 45.552C84.4221 45.552 84.5261 45.592 84.6061 45.672C84.6861 45.752 84.7261 45.856 84.7261 45.984C84.7261 46.16 84.6381 46.312 84.4621 46.44C83.9181 46.888 83.4381 47.176 83.0221 47.304C82.6221 47.416 82.1661 47.472 81.6541 47.472ZM93.4176 49.32C93.3536 49.32 93.2976 49.312 93.2496 49.296C93.2016 49.296 93.1456 49.288 93.0816 49.272C92.6336 49.16 92.1936 48.984 91.7616 48.744C91.3456 48.504 91.0016 48.152 90.7296 47.688C90.4576 47.208 90.3216 46.584 90.3216 45.816C90.3216 45.512 90.3456 45.184 90.3936 44.832C90.4736 44.272 90.6176 43.616 90.8256 42.864C91.0496 42.096 91.3136 41.296 91.6176 40.464H91.5936C91.4976 40.464 91.4096 40.48 91.3296 40.512C91.2496 40.544 91.1696 40.56 91.0896 40.56C90.8336 40.56 90.7056 40.408 90.7056 40.104C90.7056 39.928 90.7776 39.76 90.9216 39.6C91.0656 39.44 91.2016 39.36 91.3296 39.36L92.0496 39.336C92.4496 38.296 92.8496 37.312 93.2496 36.384C93.6656 35.44 94.0176 34.696 94.3056 34.152C94.3856 34.008 94.4976 33.904 94.6416 33.84C94.8016 33.76 94.9616 33.72 95.1216 33.72C95.2816 33.72 95.4176 33.76 95.5296 33.84C95.6576 33.904 95.7216 34 95.7216 34.128C95.7216 34.16 95.7056 34.224 95.6736 34.32L94.1856 37.56C94.0416 37.864 93.9056 38.152 93.7776 38.424C93.6656 38.696 93.5456 38.968 93.4176 39.24C93.7376 39.24 94.0656 39.248 94.4016 39.264C94.7536 39.28 95.1456 39.312 95.5776 39.36C95.6576 39.376 95.7376 39.432 95.8176 39.528C95.8976 39.624 95.9376 39.728 95.9376 39.84C95.9376 39.92 95.9056 40 95.8416 40.08C95.7936 40.144 95.6816 40.184 95.5056 40.2C95.1216 40.248 94.6976 40.28 94.2336 40.296C93.7696 40.296 93.3536 40.304 92.9856 40.32C92.6176 41.296 92.3216 42.184 92.0976 42.984C91.8896 43.784 91.7216 44.536 91.5936 45.24C91.5776 45.352 91.5616 45.464 91.5456 45.576C91.5456 45.688 91.5456 45.792 91.5456 45.888C91.5456 46.608 91.7376 47.144 92.1216 47.496C92.5056 47.848 92.9376 48.096 93.4176 48.24C93.7056 48.336 93.9056 48.432 94.0176 48.528C94.1456 48.64 94.2096 48.744 94.2096 48.84C94.2096 48.968 94.1296 49.08 93.9696 49.176C93.8256 49.272 93.6416 49.32 93.4176 49.32ZM100.665 38.808C100.585 38.904 100.481 38.912 100.353 38.832C100.241 38.752 100.145 38.632 100.065 38.472C99.9845 38.296 99.9605 38.128 99.9925 37.968H100.017C100.081 37.728 100.161 37.528 100.257 37.368C100.353 37.208 100.481 37.048 100.641 36.888C100.737 36.792 100.865 36.744 101.025 36.744C101.169 36.744 101.297 36.792 101.409 36.888C101.537 36.968 101.601 37.072 101.601 37.2C101.601 37.264 101.577 37.336 101.529 37.416C101.481 37.48 101.385 37.648 101.241 37.92C101.113 38.192 100.921 38.488 100.665 38.808ZM97.6405 47.664C97.3845 47.664 97.1285 47.568 96.8725 47.376C96.6325 47.168 96.5365 46.84 96.5845 46.392C96.6485 45.768 96.7365 45.24 96.8485 44.808C96.9605 44.376 97.0885 43.984 97.2325 43.632C97.3765 43.264 97.5285 42.872 97.6885 42.456C97.8645 42.04 98.0405 41.536 98.2165 40.944C98.3125 40.672 98.5125 40.536 98.8165 40.536C99.0245 40.536 99.2085 40.6 99.3685 40.728C99.5285 40.856 99.5765 41.032 99.5125 41.256C99.3045 41.928 99.0965 42.472 98.8885 42.888C98.6805 43.304 98.4885 43.672 98.3125 43.992C98.1365 44.296 97.9845 44.632 97.8565 45C97.7445 45.352 97.6725 45.808 97.6405 46.368C97.6405 46.416 97.7445 46.52 97.9525 46.68C98.1605 46.824 98.2645 46.992 98.2645 47.184C98.2645 47.328 98.1845 47.456 98.0245 47.568C97.9445 47.632 97.8165 47.664 97.6405 47.664ZM103.358 47.544C103.262 47.544 103.166 47.544 103.07 47.544C102.974 47.528 102.878 47.512 102.782 47.496C102.126 47.416 101.614 47.104 101.246 46.56C100.894 46 100.718 45.376 100.718 44.688C100.718 44.24 100.806 43.768 100.982 43.272C101.174 42.76 101.47 42.296 101.87 41.88C102.27 41.448 102.734 41.104 103.262 40.848C103.79 40.592 104.326 40.464 104.87 40.464C105.142 40.464 105.398 40.496 105.638 40.56C105.894 40.624 106.022 40.752 106.022 40.944C106.022 41.072 105.95 41.2 105.806 41.328C105.678 41.44 105.502 41.472 105.278 41.424C105.214 41.408 105.11 41.4 104.966 41.4C104.582 41.4 104.19 41.504 103.79 41.712C103.39 41.92 103.03 42.2 102.71 42.552C102.39 42.888 102.158 43.264 102.014 43.68C101.902 44 101.846 44.32 101.846 44.64C101.846 45.136 101.958 45.56 102.182 45.912C102.422 46.264 102.694 46.44 102.998 46.44C103.078 46.456 103.15 46.464 103.214 46.464C103.294 46.464 103.366 46.464 103.43 46.464C104.134 46.464 104.806 46.272 105.446 45.888C106.102 45.488 106.606 45.056 106.958 44.592C107.134 44.32 107.254 44.08 107.318 43.872C107.382 43.648 107.414 43.464 107.414 43.32C107.414 43 107.318 42.784 107.126 42.672C106.934 42.56 106.758 42.512 106.598 42.528C106.342 42.56 106.094 42.6 105.854 42.648C105.614 42.68 105.406 42.736 105.23 42.816C105.134 42.848 105.062 42.864 105.014 42.864C104.854 42.864 104.718 42.8 104.606 42.672C104.51 42.544 104.462 42.408 104.462 42.264C104.462 42.008 104.582 41.84 104.822 41.76C105.046 41.68 105.31 41.608 105.614 41.544C105.918 41.48 106.23 41.432 106.55 41.4C106.614 41.384 106.67 41.376 106.718 41.376C106.766 41.376 106.822 41.376 106.886 41.376C107.462 41.376 107.91 41.552 108.23 41.904C108.55 42.24 108.71 42.656 108.71 43.152C108.71 43.456 108.638 43.784 108.494 44.136C108.35 44.488 108.118 44.824 107.798 45.144C107.51 45.512 107.142 45.88 106.694 46.248C106.246 46.616 105.742 46.928 105.182 47.184C104.622 47.424 104.014 47.544 103.358 47.544ZM118.379 48.192C118.139 48.192 117.915 48.056 117.707 47.784C117.499 47.496 117.395 47.136 117.395 46.704C117.395 46.432 117.419 46.088 117.467 45.672C117.515 45.256 117.587 44.84 117.683 44.424C117.779 43.992 117.891 43.624 118.019 43.32C118.275 42.744 118.403 42.288 118.403 41.952C118.403 41.536 118.211 41.328 117.827 41.328C117.779 41.328 117.723 41.328 117.659 41.328C117.595 41.328 117.531 41.344 117.467 41.376C117.147 41.472 116.715 41.688 116.171 42.024C115.627 42.344 115.051 42.72 114.443 43.152C113.851 43.584 113.291 44.016 112.763 44.448C112.235 44.88 111.827 45.256 111.539 45.576C111.139 46.024 110.875 46.368 110.747 46.608C110.619 46.848 110.555 46.968 110.555 46.968C110.427 47.144 110.283 47.232 110.123 47.232C109.979 47.232 109.859 47.16 109.763 47.016C109.667 46.856 109.643 46.648 109.691 46.392C109.915 45.08 110.155 43.96 110.411 43.032C110.683 42.104 110.995 41.304 111.347 40.632C111.491 40.376 111.691 40.248 111.947 40.248C112.091 40.248 112.219 40.304 112.331 40.416C112.443 40.512 112.499 40.664 112.499 40.872C112.499 40.984 112.451 41.2 112.355 41.52C112.275 41.84 112.171 42.104 112.043 42.312C111.883 42.568 111.747 42.864 111.635 43.2C111.539 43.52 111.419 43.968 111.275 44.544C111.451 44.272 111.603 44.08 111.731 43.968C111.859 43.84 112.027 43.672 112.235 43.464C112.891 42.808 113.667 42.216 114.563 41.688C115.475 41.144 116.347 40.688 117.179 40.32C117.355 40.24 117.579 40.16 117.851 40.08C118.123 40 118.395 39.96 118.667 39.96C118.987 39.96 119.275 40.048 119.531 40.224C119.787 40.4 119.915 40.736 119.915 41.232C119.915 41.488 119.867 41.8 119.771 42.168C119.691 42.536 119.547 42.968 119.339 43.464C119.083 44.056 118.915 44.672 118.835 45.312C118.771 45.952 118.739 46.496 118.739 46.944C118.739 47.072 118.739 47.2 118.739 47.328C118.755 47.44 118.763 47.544 118.763 47.64C118.763 47.8 118.739 47.928 118.691 48.024C118.643 48.136 118.539 48.192 118.379 48.192Z" fill="black"/>
</svg>
