<svg width="139" height="44" viewBox="0 0 139 44" fill="none" xmlns="http://www.w3.org/2000/svg">
<path d="M87.4381 14.6536C87.2468 14.1355 86.6717 13.8706 86.1536 14.0619C85.6355 14.2532 85.3706 14.8283 85.5619 15.3464L86.5 15L87.4381 14.6536ZM0.889067 34.2083C0.451833 34.5457 0.370909 35.1737 0.708318 35.6109L6.20671 42.7361C6.54412 43.1733 7.1721 43.2542 7.60933 42.9168C8.04656 42.5794 8.12749 41.9514 7.79008 41.5142L2.90262 35.1807L9.23607 30.2933C9.67331 29.9559 9.75423 29.3279 9.41682 28.8907C9.07941 28.4534 8.45144 28.3725 8.01421 28.7099L0.889067 34.2083ZM86.5 15L85.5619 15.3464C86.4724 17.8122 86.5077 20.7383 84.94 23.6242C83.3646 26.5244 80.1082 29.4952 74.2236 31.886C62.4215 36.6812 40.3863 39.0028 1.62781 34.0082L1.5 35L1.37219 35.9918C40.2137 40.9972 62.6785 38.7355 74.9764 33.739C81.1418 31.234 84.8354 28.0068 86.6975 24.5789C88.5673 21.1367 88.5276 17.6045 87.4381 14.6536L86.5 15Z" fill="#FF5E00"/>
<path d="M8.09301 11L11.421 1.77H13.202L16.53 11H15.035L14.19 8.595H10.42L9.58801 11H8.09301ZM10.862 7.321H13.761L12.305 3.109L10.862 7.321ZM19.7793 11.156C19.086 11.156 18.5313 10.9263 18.1153 10.467C17.708 9.999 17.5043 9.35333 17.5043 8.53V4.084H18.8823V8.179C18.8823 8.803 18.9906 9.26233 19.2073 9.557C19.424 9.85167 19.7533 9.999 20.1953 9.999C20.698 9.999 21.088 9.83867 21.3653 9.518C21.6513 9.18867 21.7943 8.72933 21.7943 8.14V4.084H23.1723V11H21.8853L21.8593 9.193L22.0543 9.271C21.933 9.87767 21.6773 10.3457 21.2873 10.675C20.8973 10.9957 20.3946 11.156 19.7793 11.156ZM27.4307 11C26.772 11 26.2867 10.8483 25.9747 10.545C25.6627 10.2417 25.5067 9.76933 25.5067 9.128V2.459H26.8847V9.024C26.8847 9.34467 26.954 9.56567 27.0927 9.687C27.2314 9.80833 27.4437 9.869 27.7297 9.869H28.7177V11H27.4307ZM24.4537 5.215V4.084H28.7177V5.215H24.4537ZM32.7673 11.156C32.1086 11.156 31.5323 11.0087 31.0383 10.714C30.5443 10.4193 30.163 9.999 29.8943 9.453C29.6256 8.907 29.4913 8.27 29.4913 7.542C29.4913 6.80533 29.6256 6.16833 29.8943 5.631C30.163 5.09367 30.5443 4.67767 31.0383 4.383C31.5323 4.07967 32.1086 3.928 32.7673 3.928C33.426 3.928 34.0023 4.07967 34.4963 4.383C34.9903 4.67767 35.3716 5.09367 35.6403 5.631C35.909 6.16833 36.0433 6.80533 36.0433 7.542C36.0433 8.27 35.909 8.907 35.6403 9.453C35.3716 9.999 34.9903 10.4193 34.4963 10.714C34.0023 11.0087 33.426 11.156 32.7673 11.156ZM32.7673 9.96C33.3566 9.96 33.8116 9.74767 34.1323 9.323C34.453 8.88967 34.6133 8.296 34.6133 7.542C34.6133 6.788 34.453 6.19867 34.1323 5.774C33.8116 5.34067 33.3566 5.124 32.7673 5.124C32.1866 5.124 31.7316 5.34067 31.4023 5.774C31.0816 6.19867 30.9213 6.788 30.9213 7.542C30.9213 8.296 31.0816 8.88967 31.4023 9.323C31.7316 9.74767 32.1866 9.96 32.7673 9.96ZM37.1339 7.815V6.606H41.4889V7.815H37.1339ZM42.9965 11V4.084H44.2575L44.3095 5.917L44.1925 5.878C44.2878 5.254 44.4785 4.799 44.7645 4.513C45.0592 4.227 45.4535 4.084 45.9475 4.084H46.6105V5.319H45.9475C45.6008 5.319 45.3105 5.37533 45.0765 5.488C44.8425 5.60067 44.6648 5.774 44.5435 6.008C44.4308 6.242 44.3745 6.54533 44.3745 6.918V11H42.9965ZM47.7445 11V4.084H49.1225V11H47.7445ZM47.7185 3.083V1.705H49.1485V3.083H47.7185ZM53.6088 11.156C52.9588 11.156 52.4084 11.0563 51.9578 10.857C51.5158 10.6577 51.1734 10.3847 50.9308 10.038C50.6881 9.68267 50.5494 9.27533 50.5148 8.816L51.9318 8.751C52.0011 9.13233 52.1658 9.43567 52.4258 9.661C52.6858 9.88633 53.0801 9.999 53.6088 9.999C54.0421 9.999 54.3844 9.92967 54.6358 9.791C54.8871 9.65233 55.0128 9.43133 55.0128 9.128C55.0128 8.96333 54.9694 8.82467 54.8828 8.712C54.8048 8.59067 54.6488 8.491 54.4148 8.413C54.1808 8.32633 53.8341 8.244 53.3748 8.166C52.6901 8.036 52.1528 7.88433 51.7628 7.711C51.3728 7.53767 51.0954 7.31667 50.9308 7.048C50.7661 6.77933 50.6838 6.45433 50.6838 6.073C50.6838 5.44033 50.9178 4.92467 51.3858 4.526C51.8624 4.12733 52.5471 3.928 53.4398 3.928C54.0378 3.928 54.5404 4.032 54.9478 4.24C55.3551 4.43933 55.6714 4.71233 55.8968 5.059C56.1308 5.397 56.2781 5.77833 56.3388 6.203L54.9218 6.281C54.8784 6.03833 54.7918 5.83033 54.6618 5.657C54.5404 5.475 54.3758 5.33633 54.1678 5.241C53.9598 5.137 53.7128 5.085 53.4268 5.085C52.9848 5.085 52.6554 5.17167 52.4388 5.345C52.2221 5.51833 52.1138 5.74367 52.1138 6.021C52.1138 6.229 52.1614 6.398 52.2568 6.528C52.3608 6.658 52.5254 6.76633 52.7508 6.853C52.9761 6.931 53.2751 7.00033 53.6478 7.061C54.3671 7.18233 54.9304 7.334 55.3378 7.516C55.7451 7.68933 56.0311 7.906 56.1958 8.166C56.3604 8.426 56.4428 8.74233 56.4428 9.115C56.4428 9.54833 56.3214 9.91667 56.0788 10.22C55.8361 10.5233 55.5024 10.7573 55.0778 10.922C54.6531 11.078 54.1634 11.156 53.6088 11.156ZM57.8373 11V1.77H59.2153V7.503L62.3223 4.084H64.0643L61.3603 6.996L64.1683 11H62.5823L60.4373 7.854L59.2153 9.154V11H57.8373ZM71.7673 11.156C71.1086 11.156 70.5323 11.0087 70.0383 10.714C69.5443 10.4193 69.163 9.999 68.8943 9.453C68.6256 8.907 68.4913 8.27 68.4913 7.542C68.4913 6.814 68.6256 6.18133 68.8943 5.644C69.163 5.098 69.5443 4.67767 70.0383 4.383C70.5323 4.07967 71.1086 3.928 71.7673 3.928C72.3306 3.928 72.829 4.02767 73.2623 4.227C73.7043 4.41767 74.0596 4.69933 74.3283 5.072C74.6056 5.44467 74.7833 5.89967 74.8613 6.437L73.4183 6.515C73.349 6.06433 73.167 5.722 72.8723 5.488C72.5776 5.24533 72.2093 5.124 71.7673 5.124C71.1866 5.124 70.7316 5.34067 70.4023 5.774C70.0816 6.19867 69.9213 6.788 69.9213 7.542C69.9213 8.296 70.0816 8.88967 70.4023 9.323C70.7316 9.74767 71.1866 9.96 71.7673 9.96C72.2093 9.96 72.5776 9.83867 72.8723 9.596C73.167 9.34467 73.349 8.96767 73.4183 8.465L74.8613 8.543C74.7833 9.07167 74.6056 9.531 74.3283 9.921C74.0596 10.311 73.7043 10.6143 73.2623 10.831C72.829 11.0477 72.3306 11.156 71.7673 11.156ZM78.1952 11.156C77.4759 11.156 76.8995 10.9913 76.4662 10.662C76.0415 10.3327 75.8292 9.869 75.8292 9.271C75.8292 8.673 76.0069 8.20933 76.3622 7.88C76.7262 7.542 77.2852 7.29933 78.0392 7.152L80.4182 6.697C80.4182 6.15967 80.2925 5.761 80.0412 5.501C79.7899 5.23233 79.4172 5.098 78.9232 5.098C78.4812 5.098 78.1345 5.19767 77.8832 5.397C77.6319 5.58767 77.4585 5.87367 77.3632 6.255L75.9462 6.164C76.0762 5.47067 76.3969 4.92467 76.9082 4.526C77.4282 4.12733 78.0999 3.928 78.9232 3.928C79.8592 3.928 80.5699 4.17933 81.0552 4.682C81.5492 5.176 81.7962 5.87367 81.7962 6.775V9.466C81.7962 9.63067 81.8222 9.74767 81.8742 9.817C81.9349 9.87767 82.0302 9.908 82.1602 9.908H82.4072V11C82.3639 11.0087 82.2945 11.0173 82.1992 11.026C82.1039 11.0347 82.0042 11.039 81.9002 11.039C81.6055 11.039 81.3499 10.9913 81.1332 10.896C80.9252 10.8007 80.7692 10.6447 80.6652 10.428C80.5612 10.2027 80.5092 9.90367 80.5092 9.531L80.6522 9.596C80.5829 9.89933 80.4312 10.168 80.1972 10.402C79.9719 10.636 79.6815 10.8223 79.3262 10.961C78.9795 11.091 78.6025 11.156 78.1952 11.156ZM78.4162 10.064C78.8322 10.064 79.1875 9.986 79.4822 9.83C79.7769 9.66533 80.0065 9.44 80.1712 9.154C80.3359 8.868 80.4182 8.543 80.4182 8.179V7.737L78.3902 8.127C77.9742 8.205 77.6795 8.33067 77.5062 8.504C77.3415 8.66867 77.2592 8.881 77.2592 9.141C77.2592 9.43567 77.3589 9.66533 77.5582 9.83C77.7662 9.986 78.0522 10.064 78.4162 10.064ZM84.9898 11C84.5392 11 84.1752 10.883 83.8978 10.649C83.6205 10.415 83.4818 10.0423 83.4818 9.531V1.77H84.8598V9.401C84.8598 9.557 84.8988 9.674 84.9768 9.752C85.0635 9.83 85.1848 9.869 85.3408 9.869H85.8868V11H84.9898ZM89.9089 11.156C89.2502 11.156 88.6739 11.0087 88.1799 10.714C87.6859 10.4193 87.3046 9.999 87.0359 9.453C86.7672 8.907 86.6329 8.27 86.6329 7.542C86.6329 6.814 86.7672 6.18133 87.0359 5.644C87.3046 5.098 87.6859 4.67767 88.1799 4.383C88.6739 4.07967 89.2502 3.928 89.9089 3.928C90.4722 3.928 90.9706 4.02767 91.4039 4.227C91.8459 4.41767 92.2012 4.69933 92.4699 5.072C92.7472 5.44467 92.9249 5.89967 93.0029 6.437L91.5599 6.515C91.4906 6.06433 91.3086 5.722 91.0139 5.488C90.7192 5.24533 90.3509 5.124 89.9089 5.124C89.3282 5.124 88.8732 5.34067 88.5439 5.774C88.2232 6.19867 88.0629 6.788 88.0629 7.542C88.0629 8.296 88.2232 8.88967 88.5439 9.323C88.8732 9.74767 89.3282 9.96 89.9089 9.96C90.3509 9.96 90.7192 9.83867 91.0139 9.596C91.3086 9.34467 91.4906 8.96767 91.5599 8.465L93.0029 8.543C92.9249 9.07167 92.7472 9.531 92.4699 9.921C92.2012 10.311 91.8459 10.6143 91.4039 10.831C90.9706 11.0477 90.4722 11.156 89.9089 11.156ZM96.5352 11.156C95.8418 11.156 95.2872 10.9263 94.8712 10.467C94.4638 9.999 94.2602 9.35333 94.2602 8.53V4.084H95.6382V8.179C95.6382 8.803 95.7465 9.26233 95.9632 9.557C96.1798 9.85167 96.5092 9.999 96.9512 9.999C97.4538 9.999 97.8438 9.83867 98.1212 9.518C98.4072 9.18867 98.5502 8.72933 98.5502 8.14V4.084H99.9282V11H98.6412L98.6152 9.193L98.8102 9.271C98.6888 9.87767 98.4332 10.3457 98.0432 10.675C97.6532 10.9957 97.1505 11.156 96.5352 11.156ZM103.385 11C102.935 11 102.571 10.883 102.293 10.649C102.016 10.415 101.877 10.0423 101.877 9.531V1.77H103.255V9.401C103.255 9.557 103.294 9.674 103.372 9.752C103.459 9.83 103.58 9.869 103.736 9.869H104.282V11H103.385ZM107.471 11.156C106.751 11.156 106.175 10.9913 105.742 10.662C105.317 10.3327 105.105 9.869 105.105 9.271C105.105 8.673 105.282 8.20933 105.638 7.88C106.002 7.542 106.561 7.29933 107.315 7.152L109.694 6.697C109.694 6.15967 109.568 5.761 109.317 5.501C109.065 5.23233 108.693 5.098 108.199 5.098C107.757 5.098 107.41 5.19767 107.159 5.397C106.907 5.58767 106.734 5.87367 106.639 6.255L105.222 6.164C105.352 5.47067 105.672 4.92467 106.184 4.526C106.704 4.12733 107.375 3.928 108.199 3.928C109.135 3.928 109.845 4.17933 110.331 4.682C110.825 5.176 111.072 5.87367 111.072 6.775V9.466C111.072 9.63067 111.098 9.74767 111.15 9.817C111.21 9.87767 111.306 9.908 111.436 9.908H111.683V11C111.639 11.0087 111.57 11.0173 111.475 11.026C111.379 11.0347 111.28 11.039 111.176 11.039C110.881 11.039 110.625 10.9913 110.409 10.896C110.201 10.8007 110.045 10.6447 109.941 10.428C109.837 10.2027 109.785 9.90367 109.785 9.531L109.928 9.596C109.858 9.89933 109.707 10.168 109.473 10.402C109.247 10.636 108.957 10.8223 108.602 10.961C108.255 11.091 107.878 11.156 107.471 11.156ZM107.692 10.064C108.108 10.064 108.463 9.986 108.758 9.83C109.052 9.66533 109.282 9.44 109.447 9.154C109.611 8.868 109.694 8.543 109.694 8.179V7.737L107.666 8.127C107.25 8.205 106.955 8.33067 106.782 8.504C106.617 8.66867 106.535 8.881 106.535 9.141C106.535 9.43567 106.634 9.66533 106.834 9.83C107.042 9.986 107.328 10.064 107.692 10.064ZM115.143 11C114.484 11 113.999 10.8483 113.687 10.545C113.375 10.2417 113.219 9.76933 113.219 9.128V2.459H114.597V9.024C114.597 9.34467 114.666 9.56567 114.805 9.687C114.943 9.80833 115.156 9.869 115.442 9.869H116.43V11H115.143ZM112.166 5.215V4.084H116.43V5.215H112.166ZM117.746 11V4.084H119.124V11H117.746ZM117.72 3.083V1.705H119.15V3.083H117.72ZM123.793 11.156C123.134 11.156 122.558 11.0087 122.064 10.714C121.57 10.4193 121.188 9.999 120.92 9.453C120.651 8.907 120.517 8.27 120.517 7.542C120.517 6.80533 120.651 6.16833 120.92 5.631C121.188 5.09367 121.57 4.67767 122.064 4.383C122.558 4.07967 123.134 3.928 123.793 3.928C124.451 3.928 125.028 4.07967 125.522 4.383C126.016 4.67767 126.397 5.09367 126.666 5.631C126.934 6.16833 127.069 6.80533 127.069 7.542C127.069 8.27 126.934 8.907 126.666 9.453C126.397 9.999 126.016 10.4193 125.522 10.714C125.028 11.0087 124.451 11.156 123.793 11.156ZM123.793 9.96C124.382 9.96 124.837 9.74767 125.158 9.323C125.478 8.88967 125.639 8.296 125.639 7.542C125.639 6.788 125.478 6.19867 125.158 5.774C124.837 5.34067 124.382 5.124 123.793 5.124C123.212 5.124 122.757 5.34067 122.428 5.774C122.107 6.19867 121.947 6.788 121.947 7.542C121.947 8.296 122.107 8.88967 122.428 9.323C122.757 9.74767 123.212 9.96 123.793 9.96ZM128.461 11V4.084H129.722L129.774 5.93L129.605 5.839C129.683 5.38833 129.831 5.02433 130.047 4.747C130.264 4.46967 130.528 4.266 130.84 4.136C131.152 3.99733 131.49 3.928 131.854 3.928C132.374 3.928 132.803 4.045 133.141 4.279C133.488 4.50433 133.748 4.81633 133.921 5.215C134.103 5.605 134.194 6.05133 134.194 6.554V11H132.816V6.97C132.816 6.56267 132.773 6.22033 132.686 5.943C132.6 5.66567 132.457 5.45333 132.257 5.306C132.058 5.15867 131.798 5.085 131.477 5.085C130.992 5.085 130.598 5.24533 130.294 5.566C129.991 5.88667 129.839 6.35467 129.839 6.97V11H128.461Z" fill="black"/>
</svg>
