<svg width="116" height="61" viewBox="0 0 116 61" fill="none" xmlns="http://www.w3.org/2000/svg">
<path d="M17.7874 11V1.77H23.7804V3.057H18.4504L19.1914 2.29V6.528L18.4504 5.865H23.5464V7.113H18.4504L19.1914 6.45V11H17.7874ZM27.2573 11.156C26.564 11.156 26.0093 10.9263 25.5933 10.467C25.186 9.999 24.9823 9.35333 24.9823 8.53V4.084H26.3603V8.179C26.3603 8.803 26.4687 9.26233 26.6853 9.557C26.902 9.85167 27.2313 9.999 27.6733 9.999C28.176 9.999 28.566 9.83867 28.8433 9.518C29.1293 9.18867 29.2723 8.72933 29.2723 8.14V4.084H30.6503V11H29.3633L29.3373 9.193L29.5323 9.271C29.411 9.87767 29.1553 10.3457 28.7653 10.675C28.3753 10.9957 27.8727 11.156 27.2573 11.156ZM34.1075 11C33.6568 11 33.2928 10.883 33.0155 10.649C32.7382 10.415 32.5995 10.0423 32.5995 9.531V1.77H33.9775V9.401C33.9775 9.557 34.0165 9.674 34.0945 9.752C34.1812 9.83 34.3025 9.869 34.4585 9.869H35.0045V11H34.1075ZM37.6495 11C37.1988 11 36.8348 10.883 36.5575 10.649C36.2802 10.415 36.1415 10.0423 36.1415 9.531V1.77H37.5195V9.401C37.5195 9.557 37.5585 9.674 37.6365 9.752C37.7232 9.83 37.8445 9.869 38.0005 9.869H38.5465V11H37.6495ZM44.9086 11.156C44.1892 11.156 43.6129 10.9913 43.1796 10.662C42.7549 10.3327 42.5426 9.869 42.5426 9.271C42.5426 8.673 42.7202 8.20933 43.0756 7.88C43.4396 7.542 43.9986 7.29933 44.7526 7.152L47.1316 6.697C47.1316 6.15967 47.0059 5.761 46.7546 5.501C46.5032 5.23233 46.1306 5.098 45.6366 5.098C45.1946 5.098 44.8479 5.19767 44.5966 5.397C44.3452 5.58767 44.1719 5.87367 44.0766 6.255L42.6596 6.164C42.7896 5.47067 43.1102 4.92467 43.6216 4.526C44.1416 4.12733 44.8132 3.928 45.6366 3.928C46.5726 3.928 47.2832 4.17933 47.7686 4.682C48.2626 5.176 48.5096 5.87367 48.5096 6.775V9.466C48.5096 9.63067 48.5356 9.74767 48.5876 9.817C48.6482 9.87767 48.7436 9.908 48.8736 9.908H49.1206V11C49.0772 11.0087 49.0079 11.0173 48.9126 11.026C48.8172 11.0347 48.7176 11.039 48.6136 11.039C48.3189 11.039 48.0632 10.9913 47.8466 10.896C47.6386 10.8007 47.4826 10.6447 47.3786 10.428C47.2746 10.2027 47.2226 9.90367 47.2226 9.531L47.3656 9.596C47.2962 9.89933 47.1446 10.168 46.9106 10.402C46.6852 10.636 46.3949 10.8223 46.0396 10.961C45.6929 11.091 45.3159 11.156 44.9086 11.156ZM45.1296 10.064C45.5456 10.064 45.9009 9.986 46.1956 9.83C46.4902 9.66533 46.7199 9.44 46.8846 9.154C47.0492 8.868 47.1316 8.543 47.1316 8.179V7.737L45.1036 8.127C44.6876 8.205 44.3929 8.33067 44.2196 8.504C44.0549 8.66867 43.9726 8.881 43.9726 9.141C43.9726 9.43567 44.0722 9.66533 44.2716 9.83C44.4796 9.986 44.7656 10.064 45.1296 10.064ZM50.2841 11V4.084H51.5451L51.5971 5.93L51.4281 5.839C51.5061 5.38833 51.6534 5.02433 51.8701 4.747C52.0867 4.46967 52.3511 4.266 52.6631 4.136C52.9751 3.99733 53.3131 3.928 53.6771 3.928C54.1971 3.928 54.6261 4.045 54.9641 4.279C55.3107 4.50433 55.5707 4.81633 55.7441 5.215C55.9261 5.605 56.0171 6.05133 56.0171 6.554V11H54.6391V6.97C54.6391 6.56267 54.5957 6.22033 54.5091 5.943C54.4224 5.66567 54.2794 5.45333 54.0801 5.306C53.8807 5.15867 53.6207 5.085 53.3001 5.085C52.8147 5.085 52.4204 5.24533 52.1171 5.566C51.8137 5.88667 51.6621 6.35467 51.6621 6.97V11H50.2841ZM59.7621 11.156C59.0428 11.156 58.4664 10.9913 58.0331 10.662C57.6084 10.3327 57.3961 9.869 57.3961 9.271C57.3961 8.673 57.5738 8.20933 57.9291 7.88C58.2931 7.542 58.8521 7.29933 59.6061 7.152L61.9851 6.697C61.9851 6.15967 61.8594 5.761 61.6081 5.501C61.3568 5.23233 60.9841 5.098 60.4901 5.098C60.0481 5.098 59.7014 5.19767 59.4501 5.397C59.1988 5.58767 59.0254 5.87367 58.9301 6.255L57.5131 6.164C57.6431 5.47067 57.9638 4.92467 58.4751 4.526C58.9951 4.12733 59.6668 3.928 60.4901 3.928C61.4261 3.928 62.1368 4.17933 62.6221 4.682C63.1161 5.176 63.3631 5.87367 63.3631 6.775V9.466C63.3631 9.63067 63.3891 9.74767 63.4411 9.817C63.5018 9.87767 63.5971 9.908 63.7271 9.908H63.9741V11C63.9308 11.0087 63.8614 11.0173 63.7661 11.026C63.6708 11.0347 63.5711 11.039 63.4671 11.039C63.1724 11.039 62.9168 10.9913 62.7001 10.896C62.4921 10.8007 62.3361 10.6447 62.2321 10.428C62.1281 10.2027 62.0761 9.90367 62.0761 9.531L62.2191 9.596C62.1498 9.89933 61.9981 10.168 61.7641 10.402C61.5388 10.636 61.2484 10.8223 60.8931 10.961C60.5464 11.091 60.1694 11.156 59.7621 11.156ZM59.9831 10.064C60.3991 10.064 60.7544 9.986 61.0491 9.83C61.3438 9.66533 61.5734 9.44 61.7381 9.154C61.9028 8.868 61.9851 8.543 61.9851 8.179V7.737L59.9571 8.127C59.5411 8.205 59.2464 8.33067 59.0731 8.504C58.9084 8.66867 58.8261 8.881 58.8261 9.141C58.8261 9.43567 58.9258 9.66533 59.1251 9.83C59.3331 9.986 59.6191 10.064 59.9831 10.064ZM66.5567 11C66.1061 11 65.7421 10.883 65.4647 10.649C65.1874 10.415 65.0487 10.0423 65.0487 9.531V1.77H66.4267V9.401C66.4267 9.557 66.4657 9.674 66.5437 9.752C66.6304 9.83 66.7517 9.869 66.9077 9.869H67.4537V11H66.5567ZM68.7522 12.95V11.819H69.5972C69.8312 11.819 70.0045 11.7843 70.1172 11.715C70.2299 11.6457 70.3165 11.5287 70.3772 11.364L70.5982 10.792H70.1692L67.6732 4.084H69.1292L71.0272 9.518L72.8342 4.084H74.3032L71.5472 11.806C71.4085 12.2047 71.2005 12.495 70.9232 12.677C70.6545 12.859 70.2775 12.95 69.7922 12.95H68.7522ZM77.8573 11.156C77.2073 11.156 76.657 11.0563 76.2063 10.857C75.7643 10.6577 75.422 10.3847 75.1793 10.038C74.9366 9.68267 74.798 9.27533 74.7633 8.816L76.1803 8.751C76.2496 9.13233 76.4143 9.43567 76.6743 9.661C76.9343 9.88633 77.3286 9.999 77.8573 9.999C78.2906 9.999 78.633 9.92967 78.8843 9.791C79.1356 9.65233 79.2613 9.43133 79.2613 9.128C79.2613 8.96333 79.218 8.82467 79.1313 8.712C79.0533 8.59067 78.8973 8.491 78.6633 8.413C78.4293 8.32633 78.0826 8.244 77.6233 8.166C76.9386 8.036 76.4013 7.88433 76.0113 7.711C75.6213 7.53767 75.344 7.31667 75.1793 7.048C75.0146 6.77933 74.9323 6.45433 74.9323 6.073C74.9323 5.44033 75.1663 4.92467 75.6343 4.526C76.111 4.12733 76.7956 3.928 77.6883 3.928C78.2863 3.928 78.789 4.032 79.1963 4.24C79.6036 4.43933 79.92 4.71233 80.1453 5.059C80.3793 5.397 80.5266 5.77833 80.5873 6.203L79.1703 6.281C79.127 6.03833 79.0403 5.83033 78.9103 5.657C78.789 5.475 78.6243 5.33633 78.4163 5.241C78.2083 5.137 77.9613 5.085 77.6753 5.085C77.2333 5.085 76.904 5.17167 76.6873 5.345C76.4706 5.51833 76.3623 5.74367 76.3623 6.021C76.3623 6.229 76.41 6.398 76.5053 6.528C76.6093 6.658 76.774 6.76633 76.9993 6.853C77.2246 6.931 77.5236 7.00033 77.8963 7.061C78.6156 7.18233 79.179 7.334 79.5863 7.516C79.9936 7.68933 80.2796 7.906 80.4443 8.166C80.609 8.426 80.6913 8.74233 80.6913 9.115C80.6913 9.54833 80.57 9.91667 80.3273 10.22C80.0846 10.5233 79.751 10.7573 79.3263 10.922C78.9016 11.078 78.412 11.156 77.8573 11.156ZM82.0858 11V4.084H83.4638V11H82.0858ZM82.0598 3.083V1.705H83.4898V3.083H82.0598ZM87.9501 11.156C87.3001 11.156 86.7497 11.0563 86.2991 10.857C85.8571 10.6577 85.5147 10.3847 85.2721 10.038C85.0294 9.68267 84.8907 9.27533 84.8561 8.816L86.2731 8.751C86.3424 9.13233 86.5071 9.43567 86.7671 9.661C87.0271 9.88633 87.4214 9.999 87.9501 9.999C88.3834 9.999 88.7257 9.92967 88.9771 9.791C89.2284 9.65233 89.3541 9.43133 89.3541 9.128C89.3541 8.96333 89.3107 8.82467 89.2241 8.712C89.1461 8.59067 88.9901 8.491 88.7561 8.413C88.5221 8.32633 88.1754 8.244 87.7161 8.166C87.0314 8.036 86.4941 7.88433 86.1041 7.711C85.7141 7.53767 85.4367 7.31667 85.2721 7.048C85.1074 6.77933 85.0251 6.45433 85.0251 6.073C85.0251 5.44033 85.2591 4.92467 85.7271 4.526C86.2037 4.12733 86.8884 3.928 87.7811 3.928C88.3791 3.928 88.8817 4.032 89.2891 4.24C89.6964 4.43933 90.0127 4.71233 90.2381 5.059C90.4721 5.397 90.6194 5.77833 90.6801 6.203L89.2631 6.281C89.2197 6.03833 89.1331 5.83033 89.0031 5.657C88.8817 5.475 88.7171 5.33633 88.5091 5.241C88.3011 5.137 88.0541 5.085 87.7681 5.085C87.3261 5.085 86.9967 5.17167 86.7801 5.345C86.5634 5.51833 86.4551 5.74367 86.4551 6.021C86.4551 6.229 86.5027 6.398 86.5981 6.528C86.7021 6.658 86.8667 6.76633 87.0921 6.853C87.3174 6.931 87.6164 7.00033 87.9891 7.061C88.7084 7.18233 89.2717 7.334 89.6791 7.516C90.0864 7.68933 90.3724 7.906 90.5371 8.166C90.7017 8.426 90.7841 8.74233 90.7841 9.115C90.7841 9.54833 90.6627 9.91667 90.4201 10.22C90.1774 10.5233 89.8437 10.7573 89.4191 10.922C88.9944 11.078 88.5047 11.156 87.9501 11.156Z" fill="black"/>
<path d="M54.4775 20.711C54.594 20.1712 54.2509 19.6391 53.711 19.5225C53.1712 19.406 52.6391 19.7491 52.5225 20.289L53.5 20.5L54.4775 20.711ZM115.815 53.0794C116.135 52.6292 116.03 52.0049 115.579 51.6849L108.244 46.4705C107.794 46.1506 107.169 46.2561 106.849 46.7062C106.529 47.1564 106.635 47.7807 107.085 48.1006L113.606 52.7357L108.971 59.2561C108.651 59.7063 108.756 60.3306 109.206 60.6506C109.656 60.9706 110.281 60.865 110.601 60.4149L115.815 53.0794ZM53.5 20.5L52.5225 20.289C50.8846 27.8751 52.0882 38.693 61.115 46.3621C70.1176 54.0106 86.6499 58.3057 115.167 53.486L115 52.5L114.833 51.514C86.5501 56.2943 70.749 51.9227 62.41 44.8379C54.0951 37.7737 52.9487 27.7916 54.4775 20.711L53.5 20.5Z" fill="#FF5E00"/>
</svg>
