<svg width="150" height="63" viewBox="0 0 150 63" fill="none" xmlns="http://www.w3.org/2000/svg">
<path d="M18.8408 15.696C18.5848 15.696 18.3288 15.592 18.0728 15.384C17.8328 15.192 17.7288 14.872 17.7608 14.424C17.8088 13.928 17.9608 13.256 18.2168 12.408C18.4728 11.544 18.7768 10.616 19.1288 9.624C19.0648 9.544 19.0328 9.432 19.0328 9.288C19.0328 9.16 19.0648 9.048 19.1288 8.952C19.1928 8.84 19.3048 8.752 19.4648 8.688H19.4888C19.8888 7.6 20.3048 6.528 20.7368 5.472C21.1848 4.4 21.5928 3.464 21.9608 2.664C21.4648 2.84 20.9768 3.04 20.4968 3.264C20.0168 3.488 19.5528 3.72 19.1048 3.96C19.0888 3.976 19.0648 3.984 19.0328 3.984C18.9688 3.984 18.9128 3.936 18.8648 3.84C18.8168 3.744 18.7928 3.64 18.7928 3.528C18.7928 3.256 18.8968 3.088 19.1048 3.024C19.7448 2.784 20.3208 2.536 20.8328 2.28C21.3448 2.008 21.8968 1.776 22.4888 1.584C22.5688 1.408 22.6408 1.264 22.7048 1.152C22.8488 0.879999 23.0408 0.743999 23.2808 0.743999C23.6008 0.743999 23.7848 0.911999 23.8328 1.248C24.6168 1.088 25.3368 1.008 25.9928 1.008C26.3768 1.008 26.8088 1.032 27.2888 1.08C27.8968 1.144 28.4648 1.208 28.9928 1.272C29.5208 1.336 29.9848 1.512 30.3848 1.8C30.3848 1.8 30.4648 1.84 30.6248 1.92C30.8008 2 30.9368 2.12 31.0328 2.28C31.0808 2.376 31.1048 2.496 31.1048 2.64C31.1048 2.752 31.0968 2.864 31.0808 2.976C31.0648 3.072 31.0408 3.168 31.0088 3.264C30.9768 3.392 30.9448 3.536 30.9128 3.696C30.8808 3.856 30.8008 4 30.6728 4.128C30.5608 4.256 30.4248 4.344 30.2648 4.392C30.1208 4.424 30.0328 4.44 30.0008 4.44C29.7288 4.44 29.5928 4.312 29.5928 4.056C29.5928 3.864 29.6408 3.672 29.7368 3.48C29.8328 3.272 29.8808 3.16 29.8808 3.144C29.8808 3.128 29.8808 3.12 29.8808 3.12C29.8968 3.104 29.9048 3.088 29.9048 3.072C29.9048 2.976 29.8088 2.856 29.6168 2.712C29.2808 2.392 28.8488 2.184 28.3208 2.088C27.8088 1.992 27.2248 1.912 26.5688 1.848C26.4568 1.832 26.3528 1.824 26.2568 1.824C26.1608 1.824 26.0568 1.824 25.9448 1.824C25.5928 1.824 25.2248 1.856 24.8408 1.92C24.4728 1.968 24.0968 2.04 23.7128 2.136C23.6648 2.296 23.6088 2.456 23.5448 2.616C23.4968 2.76 23.4408 2.88 23.3768 2.976C23.2168 3.232 23.0168 3.496 22.7768 3.768C22.5528 4.04 22.3528 4.36 22.1768 4.728C21.6648 5.784 21.1768 6.92 20.7128 8.136C20.8568 8.072 20.9928 8.032 21.1208 8.016C21.1208 8.016 21.2568 7.984 21.5288 7.92C21.8168 7.856 22.1768 7.776 22.6088 7.68C23.0568 7.568 23.5208 7.464 24.0008 7.368C24.4808 7.256 24.9288 7.168 25.3448 7.104C25.7608 7.04 26.0808 7.008 26.3048 7.008C26.4968 7.008 26.6408 7.056 26.7368 7.152C26.8328 7.248 26.8808 7.36 26.8808 7.488C26.8808 7.616 26.8328 7.744 26.7368 7.872C26.6408 7.984 26.4968 8.056 26.3048 8.088C25.6328 8.216 25.0408 8.304 24.5288 8.352C24.0168 8.4 23.5128 8.464 23.0168 8.544C22.5368 8.608 22.0008 8.744 21.4088 8.952V8.976C21.2008 9.04 20.9928 9.136 20.7848 9.264C20.5928 9.392 20.3768 9.512 20.1368 9.624C19.7848 10.568 19.4888 11.44 19.2488 12.24C19.0248 13.04 18.8968 13.664 18.8648 14.112C18.8648 14.224 18.9128 14.344 19.0088 14.472C19.1208 14.6 19.2248 14.728 19.3208 14.856C19.4328 14.984 19.4888 15.112 19.4888 15.24C19.4888 15.368 19.4088 15.488 19.2488 15.6C19.1688 15.664 19.0328 15.696 18.8408 15.696ZM31.657 14.352C31.385 14.352 31.105 14.312 30.817 14.232C30.529 14.152 30.241 14.032 29.953 13.872C29.425 13.568 29.057 13.176 28.849 12.696C28.641 12.216 28.537 11.704 28.537 11.16C28.537 10.904 28.553 10.656 28.585 10.416C28.617 10.16 28.665 9.904 28.729 9.648C28.857 9.12 29.081 8.64 29.401 8.208C29.721 7.76 30.081 7.384 30.481 7.08C30.881 6.776 31.265 6.584 31.633 6.504C31.681 6.488 31.745 6.48 31.825 6.48C32.049 6.48 32.233 6.544 32.377 6.672C32.521 6.8 32.593 6.944 32.593 7.104C32.593 7.296 32.481 7.448 32.257 7.56V7.584C31.889 7.744 31.561 7.912 31.273 8.088C31.001 8.248 30.761 8.472 30.553 8.76C30.345 9.048 30.153 9.464 29.977 10.008C29.881 10.296 29.833 10.68 29.833 11.16C29.833 11.528 29.881 11.88 29.977 12.216C30.089 12.536 30.273 12.752 30.529 12.864C30.801 12.976 31.089 13.032 31.393 13.032C32.049 13.032 32.697 12.808 33.337 12.36C33.977 11.896 34.545 11.416 35.041 10.92C35.489 10.472 35.905 9.968 36.289 9.408C36.689 8.832 37.025 8.304 37.297 7.824C37.569 7.328 37.729 6.968 37.777 6.744C37.841 6.472 38.017 6.336 38.305 6.336C38.481 6.336 38.641 6.408 38.785 6.552C38.929 6.68 38.969 6.856 38.905 7.08C38.809 7.416 38.617 7.856 38.329 8.4C38.057 8.944 37.721 9.512 37.321 10.104C36.937 10.68 36.529 11.208 36.097 11.688C35.745 12.088 35.337 12.496 34.873 12.912C34.409 13.312 33.905 13.656 33.361 13.944C32.817 14.216 32.249 14.352 31.657 14.352ZM39.982 15.696C39.726 15.696 39.47 15.592 39.214 15.384C38.974 15.192 38.87 14.872 38.902 14.424C38.95 14.008 39.062 13.456 39.238 12.768C39.43 12.064 39.67 11.288 39.958 10.44C40.262 9.592 40.582 8.72 40.918 7.824C41.27 6.912 41.622 6.032 41.974 5.184C42.326 4.32 42.662 3.544 42.982 2.856C43.302 2.152 43.574 1.584 43.798 1.152C43.942 0.895999 44.142 0.767999 44.398 0.767999C44.542 0.767999 44.67 0.823999 44.782 0.935999C44.894 1.032 44.95 1.176 44.95 1.368C44.95 1.432 44.926 1.568 44.878 1.776C44.846 1.984 44.79 2.2 44.71 2.424C44.646 2.648 44.574 2.832 44.494 2.976C44.334 3.232 44.142 3.496 43.918 3.768C43.694 4.04 43.494 4.36 43.318 4.728C42.934 5.56 42.55 6.44 42.166 7.368C41.782 8.28 41.43 9.176 41.11 10.056C40.79 10.936 40.526 11.728 40.318 12.432C40.126 13.136 40.014 13.696 39.982 14.112C39.982 14.224 40.03 14.344 40.126 14.472C40.238 14.6 40.342 14.728 40.438 14.856C40.55 14.984 40.606 15.112 40.606 15.24C40.606 15.368 40.526 15.488 40.366 15.6C40.286 15.664 40.158 15.696 39.982 15.696ZM45.0679 15.696C44.8119 15.696 44.5559 15.592 44.2999 15.384C44.0599 15.192 43.9559 14.872 43.9879 14.424C44.0359 14.008 44.1479 13.456 44.3239 12.768C44.5159 12.064 44.7559 11.288 45.0439 10.44C45.3479 9.592 45.6679 8.72 46.0039 7.824C46.3559 6.912 46.7079 6.032 47.0599 5.184C47.4119 4.32 47.7479 3.544 48.0679 2.856C48.3879 2.152 48.6599 1.584 48.8839 1.152C49.0279 0.895999 49.2279 0.767999 49.4839 0.767999C49.6279 0.767999 49.7559 0.823999 49.8679 0.935999C49.9799 1.032 50.0359 1.176 50.0359 1.368C50.0359 1.432 50.0119 1.568 49.9639 1.776C49.9319 1.984 49.8759 2.2 49.7959 2.424C49.7319 2.648 49.6599 2.832 49.5799 2.976C49.4199 3.232 49.2279 3.496 49.0039 3.768C48.7799 4.04 48.5799 4.36 48.4039 4.728C48.0199 5.56 47.6359 6.44 47.2519 7.368C46.8679 8.28 46.5159 9.176 46.1959 10.056C45.8759 10.936 45.6119 11.728 45.4039 12.432C45.2119 13.136 45.0999 13.696 45.0679 14.112C45.0679 14.224 45.1159 14.344 45.2119 14.472C45.3239 14.6 45.4279 14.728 45.5239 14.856C45.6359 14.984 45.6919 15.112 45.6919 15.24C45.6919 15.368 45.6119 15.488 45.4519 15.6C45.3719 15.664 45.2439 15.696 45.0679 15.696ZM58.408 14.472C57.96 14.472 57.52 14.376 57.088 14.184C56.672 13.992 56.328 13.728 56.056 13.392C55.784 13.056 55.648 12.672 55.648 12.24C55.648 11.6 55.816 11.04 56.152 10.56C56.488 10.08 56.912 9.672 57.424 9.336C57.952 9 58.488 8.744 59.032 8.568C59.56 8.392 60.136 8.304 60.76 8.304C61.416 8.304 62.048 8.424 62.656 8.664C63.28 8.888 63.72 9.28 63.976 9.84C64.104 9.424 64.2 9.016 64.264 8.616C64.328 8.2 64.36 7.84 64.36 7.536C64.36 7.024 64.256 6.632 64.048 6.36C63.856 6.088 63.504 5.952 62.992 5.952C62.784 5.952 62.544 6.032 62.272 6.192C62 6.336 61.736 6.528 61.48 6.768C61.384 6.864 61.312 6.928 61.264 6.96C61.232 6.992 61.144 7.008 61 7.008C60.84 7.008 60.712 6.952 60.616 6.84C60.536 6.728 60.496 6.6 60.496 6.456C60.496 6.264 60.568 6.096 60.712 5.952C60.856 5.808 61.016 5.648 61.192 5.472C61.368 5.296 61.592 5.144 61.864 5.016C62.152 4.872 62.512 4.8 62.944 4.8C63.84 4.8 64.496 5.008 64.912 5.424C65.328 5.84 65.536 6.52 65.536 7.464C65.536 7.928 65.472 8.408 65.344 8.904C65.232 9.4 65.096 9.928 64.936 10.488C64.84 10.84 64.704 11.24 64.528 11.688C64.368 12.12 64.16 12.552 63.904 12.984C63.648 13.416 63.336 13.784 62.968 14.088C62.856 14.184 62.736 14.232 62.608 14.232C62.448 14.232 62.312 14.176 62.2 14.064C62.088 13.952 62.032 13.824 62.032 13.68C62.032 13.536 62.104 13.392 62.248 13.248C62.424 13.104 62.608 12.872 62.8 12.552C63.008 12.232 63.2 11.832 63.376 11.352C63.328 10.696 63.016 10.216 62.44 9.912C61.88 9.608 61.256 9.456 60.568 9.456C60.168 9.456 59.784 9.504 59.416 9.6C59.016 9.712 58.616 9.904 58.216 10.176C57.816 10.432 57.48 10.736 57.208 11.088C56.952 11.44 56.824 11.808 56.824 12.192C56.824 12.496 56.976 12.768 57.28 13.008C57.6 13.248 57.976 13.368 58.408 13.368C58.776 13.368 59.064 13.36 59.272 13.344C59.496 13.328 59.704 13.28 59.896 13.2C60.104 13.104 60.368 12.936 60.688 12.696C60.832 12.6 60.952 12.552 61.048 12.552C61.176 12.552 61.28 12.592 61.36 12.672C61.44 12.752 61.48 12.856 61.48 12.984C61.48 13.16 61.392 13.312 61.216 13.44C60.672 13.888 60.192 14.176 59.776 14.304C59.376 14.416 58.92 14.472 58.408 14.472ZM75.1875 15.192C74.9475 15.192 74.7235 15.056 74.5155 14.784C74.3075 14.496 74.2035 14.136 74.2035 13.704C74.2035 13.432 74.2275 13.088 74.2755 12.672C74.3235 12.256 74.3955 11.84 74.4915 11.424C74.5875 10.992 74.6995 10.624 74.8275 10.32C75.0835 9.744 75.2115 9.288 75.2115 8.952C75.2115 8.536 75.0195 8.328 74.6355 8.328C74.5875 8.328 74.5315 8.328 74.4675 8.328C74.4035 8.328 74.3395 8.344 74.2755 8.376C73.9555 8.472 73.5235 8.688 72.9795 9.024C72.4355 9.344 71.8595 9.72 71.2515 10.152C70.6595 10.584 70.0995 11.016 69.5715 11.448C69.0435 11.88 68.6355 12.256 68.3475 12.576C67.9475 13.024 67.6835 13.368 67.5555 13.608C67.4275 13.848 67.3635 13.968 67.3635 13.968C67.2355 14.144 67.0915 14.232 66.9315 14.232C66.7875 14.232 66.6675 14.16 66.5715 14.016C66.4755 13.856 66.4515 13.648 66.4995 13.392C66.7235 12.08 66.9635 10.96 67.2195 10.032C67.4915 9.104 67.8035 8.304 68.1555 7.632C68.2995 7.376 68.4995 7.248 68.7555 7.248C68.8995 7.248 69.0275 7.304 69.1395 7.416C69.2515 7.512 69.3075 7.664 69.3075 7.872C69.3075 7.984 69.2595 8.2 69.1635 8.52C69.0835 8.84 68.9795 9.104 68.8515 9.312C68.6915 9.568 68.5555 9.864 68.4435 10.2C68.3475 10.52 68.2275 10.968 68.0835 11.544C68.2595 11.272 68.4115 11.08 68.5395 10.968C68.6675 10.84 68.8355 10.672 69.0435 10.464C69.6995 9.808 70.4755 9.216 71.3715 8.688C72.2835 8.144 73.1555 7.688 73.9875 7.32C74.1635 7.24 74.3875 7.16 74.6595 7.08C74.9315 7 75.2035 6.96 75.4755 6.96C75.7955 6.96 76.0835 7.048 76.3395 7.224C76.5955 7.4 76.7235 7.736 76.7235 8.232C76.7235 8.488 76.6755 8.8 76.5795 9.168C76.4995 9.536 76.3555 9.968 76.1475 10.464C75.8915 11.056 75.7235 11.672 75.6435 12.312C75.5795 12.952 75.5475 13.496 75.5475 13.944C75.5475 14.072 75.5475 14.2 75.5475 14.328C75.5635 14.44 75.5715 14.544 75.5715 14.64C75.5715 14.8 75.5475 14.928 75.4995 15.024C75.4515 15.136 75.3475 15.192 75.1875 15.192ZM80.2986 14.472C79.8506 14.472 79.4106 14.376 78.9786 14.184C78.5626 13.992 78.2186 13.728 77.9466 13.392C77.6746 13.056 77.5386 12.672 77.5386 12.24C77.5386 11.6 77.7066 11.04 78.0426 10.56C78.3786 10.08 78.8026 9.672 79.3146 9.336C79.8426 9 80.3786 8.744 80.9226 8.568C81.4506 8.392 82.0266 8.304 82.6506 8.304C83.3066 8.304 83.9386 8.424 84.5466 8.664C85.1706 8.888 85.6106 9.28 85.8666 9.84C85.9946 9.424 86.0906 9.016 86.1546 8.616C86.2186 8.2 86.2506 7.84 86.2506 7.536C86.2506 7.024 86.1466 6.632 85.9386 6.36C85.7466 6.088 85.3946 5.952 84.8826 5.952C84.6746 5.952 84.4346 6.032 84.1626 6.192C83.8906 6.336 83.6266 6.528 83.3706 6.768C83.2746 6.864 83.2026 6.928 83.1546 6.96C83.1226 6.992 83.0346 7.008 82.8906 7.008C82.7306 7.008 82.6026 6.952 82.5066 6.84C82.4266 6.728 82.3866 6.6 82.3866 6.456C82.3866 6.264 82.4586 6.096 82.6026 5.952C82.7466 5.808 82.9066 5.648 83.0826 5.472C83.2586 5.296 83.4826 5.144 83.7546 5.016C84.0426 4.872 84.4026 4.8 84.8346 4.8C85.7306 4.8 86.3866 5.008 86.8026 5.424C87.2186 5.84 87.4266 6.52 87.4266 7.464C87.4266 7.928 87.3626 8.408 87.2346 8.904C87.1226 9.4 86.9866 9.928 86.8266 10.488C86.7306 10.84 86.5946 11.24 86.4186 11.688C86.2586 12.12 86.0506 12.552 85.7946 12.984C85.5386 13.416 85.2266 13.784 84.8586 14.088C84.7466 14.184 84.6266 14.232 84.4986 14.232C84.3386 14.232 84.2026 14.176 84.0906 14.064C83.9786 13.952 83.9226 13.824 83.9226 13.68C83.9226 13.536 83.9946 13.392 84.1386 13.248C84.3146 13.104 84.4986 12.872 84.6906 12.552C84.8986 12.232 85.0906 11.832 85.2666 11.352C85.2186 10.696 84.9066 10.216 84.3306 9.912C83.7706 9.608 83.1466 9.456 82.4586 9.456C82.0586 9.456 81.6746 9.504 81.3066 9.6C80.9066 9.712 80.5066 9.904 80.1066 10.176C79.7066 10.432 79.3706 10.736 79.0986 11.088C78.8426 11.44 78.7146 11.808 78.7146 12.192C78.7146 12.496 78.8666 12.768 79.1706 13.008C79.4906 13.248 79.8666 13.368 80.2986 13.368C80.6666 13.368 80.9546 13.36 81.1626 13.344C81.3866 13.328 81.5946 13.28 81.7866 13.2C81.9946 13.104 82.2586 12.936 82.5786 12.696C82.7226 12.6 82.8426 12.552 82.9386 12.552C83.0666 12.552 83.1706 12.592 83.2506 12.672C83.3306 12.752 83.3706 12.856 83.3706 12.984C83.3706 13.16 83.2826 13.312 83.1066 13.44C82.5626 13.888 82.0826 14.176 81.6666 14.304C81.2666 14.416 80.8106 14.472 80.2986 14.472ZM89.9742 15.696C89.7182 15.696 89.4622 15.592 89.2062 15.384C88.9662 15.192 88.8622 14.872 88.8942 14.424C88.9422 14.008 89.0542 13.456 89.2302 12.768C89.4222 12.064 89.6622 11.288 89.9502 10.44C90.2542 9.592 90.5742 8.72 90.9102 7.824C91.2622 6.912 91.6142 6.032 91.9662 5.184C92.3182 4.32 92.6542 3.544 92.9742 2.856C93.2942 2.152 93.5662 1.584 93.7902 1.152C93.9342 0.895999 94.1342 0.767999 94.3902 0.767999C94.5342 0.767999 94.6622 0.823999 94.7742 0.935999C94.8862 1.032 94.9422 1.176 94.9422 1.368C94.9422 1.432 94.9182 1.568 94.8702 1.776C94.8382 1.984 94.7822 2.2 94.7022 2.424C94.6382 2.648 94.5662 2.832 94.4862 2.976C94.3262 3.232 94.1342 3.496 93.9102 3.768C93.6862 4.04 93.4862 4.36 93.3102 4.728C92.9262 5.56 92.5422 6.44 92.1582 7.368C91.7742 8.28 91.4222 9.176 91.1022 10.056C90.7822 10.936 90.5182 11.728 90.3102 12.432C90.1182 13.136 90.0062 13.696 89.9742 14.112C89.9742 14.224 90.0222 14.344 90.1182 14.472C90.2302 14.6 90.3342 14.728 90.4302 14.856C90.5422 14.984 90.5982 15.112 90.5982 15.24C90.5982 15.368 90.5182 15.488 90.3582 15.6C90.2782 15.664 90.1502 15.696 89.9742 15.696ZM95.5881 20.904C95.3161 20.904 95.0601 20.872 94.8201 20.808C94.5001 20.712 94.2441 20.544 94.0521 20.304C93.8601 20.064 93.7641 19.816 93.7641 19.56C93.7641 19.288 93.7801 19.104 93.8121 19.008C93.8441 18.912 93.9161 18.864 94.0281 18.864C94.1241 18.864 94.2921 18.888 94.5321 18.936C94.6601 18.936 94.7881 19.04 94.9161 19.248C95.0441 19.472 95.1881 19.624 95.3481 19.704C95.5561 19.784 95.7321 19.824 95.8761 19.824C96.1641 19.824 96.4281 19.752 96.6681 19.608C96.9241 19.464 97.1401 19.312 97.3161 19.152C97.8921 18.656 98.3881 18.144 98.8041 17.616C99.2201 17.088 99.6041 16.488 99.9561 15.816C100.324 15.16 100.684 14.392 101.036 13.512C101.148 13.256 101.252 12.96 101.348 12.624C101.46 12.272 101.548 11.944 101.612 11.64C101.692 11.32 101.724 11.088 101.708 10.944C101.628 11.008 101.54 11.08 101.444 11.16C101.364 11.24 101.276 11.32 101.18 11.4C100.812 11.736 100.372 12.072 99.8601 12.408C99.3641 12.744 98.8361 13.024 98.2761 13.248C97.7161 13.472 97.1401 13.584 96.5481 13.584C96.0201 13.584 95.5241 13.48 95.0601 13.272C94.5161 13.016 94.1321 12.68 93.9081 12.264C93.6841 11.848 93.5721 11.408 93.5721 10.944C93.5721 10.72 93.5881 10.504 93.6201 10.296C93.6681 10.088 93.7241 9.88 93.7881 9.672C93.9161 9.224 94.1481 8.816 94.4841 8.448C94.8201 8.064 95.1961 7.744 95.6121 7.488C96.0281 7.232 96.4281 7.064 96.8121 6.984C96.8441 6.968 96.8841 6.96 96.9321 6.96C96.9801 6.96 97.0201 6.96 97.0521 6.96C97.2761 6.96 97.4601 7.024 97.6041 7.152C97.7481 7.264 97.8201 7.384 97.8201 7.512C97.8201 7.672 97.7081 7.8 97.4841 7.896C97.1001 8.04 96.7561 8.184 96.4521 8.328C96.1641 8.472 95.9081 8.664 95.6841 8.904C95.4761 9.144 95.2841 9.496 95.1081 9.96C95.0601 10.088 95.0201 10.24 94.9881 10.416C94.9561 10.592 94.9401 10.776 94.9401 10.968C94.9401 11.272 94.9881 11.568 95.0841 11.856C95.1961 12.144 95.3801 12.328 95.6361 12.408C95.9561 12.504 96.2681 12.552 96.5721 12.552C97.2761 12.552 97.9641 12.368 98.6361 12C99.3241 11.616 99.9241 11.208 100.436 10.776C101.14 10.216 101.588 9.752 101.78 9.384C101.988 9 102.132 8.672 102.212 8.4C102.26 8.224 102.348 8.104 102.476 8.04C102.604 7.96 102.74 7.92 102.884 7.92C103.06 7.92 103.22 7.984 103.364 8.112C103.524 8.224 103.572 8.376 103.508 8.568C103.268 9.448 103.012 10.416 102.74 11.472C102.484 12.528 102.148 13.592 101.732 14.664C101.332 15.736 100.804 16.752 100.148 17.712C99.4921 18.688 98.6521 19.536 97.6281 20.256C97.3721 20.432 97.0681 20.584 96.7161 20.712C96.3641 20.84 95.9881 20.904 95.5881 20.904ZM104.15 15.936C104.038 15.936 103.91 15.928 103.766 15.912C103.638 15.896 103.502 15.872 103.358 15.84C103.15 15.792 103.046 15.64 103.046 15.384C103.046 15.24 103.102 15.112 103.214 15C103.326 14.872 103.486 14.824 103.694 14.856C103.87 14.872 104.15 14.832 104.534 14.736C104.934 14.64 105.374 14.512 105.854 14.352C106.558 14.096 107.134 13.824 107.582 13.536C108.03 13.248 108.398 12.912 108.686 12.528C108.99 12.144 109.142 11.776 109.142 11.424C109.142 11.264 109.11 11.112 109.046 10.968C108.982 10.808 108.862 10.656 108.686 10.512C108.414 10.272 108.086 10.048 107.702 9.84C107.318 9.632 106.942 9.416 106.574 9.192C106.206 8.952 105.894 8.688 105.638 8.4C105.398 8.096 105.278 7.728 105.278 7.296C105.278 6.912 105.414 6.584 105.686 6.312C105.958 6.024 106.27 5.792 106.622 5.616C106.99 5.424 107.302 5.288 107.558 5.208C107.814 5.128 108.07 5.072 108.326 5.04C108.582 4.992 108.838 4.968 109.094 4.968C109.398 4.968 109.686 5.008 109.958 5.088C110.246 5.152 110.518 5.272 110.774 5.448C110.918 5.544 111.022 5.656 111.086 5.784C111.15 5.912 111.182 6.04 111.182 6.168C111.182 6.344 111.126 6.504 111.014 6.648C110.918 6.776 110.782 6.84 110.606 6.84C110.478 6.84 110.31 6.776 110.102 6.648H110.126C109.774 6.392 109.366 6.264 108.902 6.264C108.646 6.264 108.414 6.296 108.206 6.36C107.87 6.44 107.542 6.544 107.222 6.672C106.902 6.8 106.702 7 106.622 7.272C106.574 7.48 106.694 7.712 106.982 7.968C107.286 8.208 107.662 8.456 108.11 8.712C108.558 8.952 108.974 9.192 109.358 9.432C109.726 9.64 110.022 9.92 110.246 10.272C110.47 10.624 110.582 11 110.582 11.4C110.582 11.896 110.398 12.376 110.03 12.84C109.438 13.56 108.822 14.12 108.182 14.52C107.558 14.92 106.854 15.248 106.07 15.504C105.638 15.648 105.278 15.752 104.99 15.816C104.702 15.896 104.422 15.936 104.15 15.936ZM117.192 5.808C117.112 5.904 117.008 5.912 116.88 5.832C116.768 5.752 116.672 5.632 116.592 5.472C116.512 5.296 116.488 5.128 116.52 4.968H116.544C116.608 4.728 116.688 4.528 116.784 4.368C116.88 4.208 117.008 4.048 117.168 3.888C117.264 3.792 117.392 3.744 117.552 3.744C117.696 3.744 117.824 3.792 117.936 3.888C118.064 3.968 118.128 4.072 118.128 4.2C118.128 4.264 118.104 4.336 118.056 4.416C118.008 4.48 117.912 4.648 117.768 4.92C117.64 5.192 117.448 5.488 117.192 5.808ZM114.168 14.664C113.912 14.664 113.656 14.568 113.4 14.376C113.16 14.168 113.064 13.84 113.112 13.392C113.176 12.768 113.264 12.24 113.376 11.808C113.488 11.376 113.616 10.984 113.76 10.632C113.904 10.264 114.056 9.872 114.216 9.456C114.392 9.04 114.568 8.536 114.744 7.944C114.84 7.672 115.04 7.536 115.344 7.536C115.552 7.536 115.736 7.6 115.896 7.728C116.056 7.856 116.104 8.032 116.04 8.256C115.832 8.928 115.624 9.472 115.416 9.888C115.208 10.304 115.016 10.672 114.84 10.992C114.664 11.296 114.512 11.632 114.384 12C114.272 12.352 114.2 12.808 114.168 13.368C114.168 13.416 114.272 13.52 114.48 13.68C114.688 13.824 114.792 13.992 114.792 14.184C114.792 14.328 114.712 14.456 114.552 14.568C114.472 14.632 114.344 14.664 114.168 14.664ZM117.509 15.936C117.397 15.936 117.269 15.928 117.125 15.912C116.997 15.896 116.861 15.872 116.717 15.84C116.509 15.792 116.405 15.64 116.405 15.384C116.405 15.24 116.461 15.112 116.573 15C116.685 14.872 116.845 14.824 117.053 14.856C117.229 14.872 117.509 14.832 117.893 14.736C118.293 14.64 118.733 14.512 119.213 14.352C119.917 14.096 120.493 13.824 120.941 13.536C121.389 13.248 121.757 12.912 122.045 12.528C122.349 12.144 122.501 11.776 122.501 11.424C122.501 11.264 122.469 11.112 122.405 10.968C122.341 10.808 122.221 10.656 122.045 10.512C121.773 10.272 121.445 10.048 121.061 9.84C120.677 9.632 120.301 9.416 119.933 9.192C119.565 8.952 119.253 8.688 118.997 8.4C118.757 8.096 118.637 7.728 118.637 7.296C118.637 6.912 118.773 6.584 119.045 6.312C119.317 6.024 119.629 5.792 119.981 5.616C120.349 5.424 120.661 5.288 120.917 5.208C121.173 5.128 121.429 5.072 121.685 5.04C121.941 4.992 122.197 4.968 122.453 4.968C122.757 4.968 123.045 5.008 123.317 5.088C123.605 5.152 123.877 5.272 124.133 5.448C124.277 5.544 124.381 5.656 124.445 5.784C124.509 5.912 124.541 6.04 124.541 6.168C124.541 6.344 124.485 6.504 124.373 6.648C124.277 6.776 124.141 6.84 123.965 6.84C123.837 6.84 123.669 6.776 123.461 6.648H123.485C123.133 6.392 122.725 6.264 122.261 6.264C122.005 6.264 121.773 6.296 121.565 6.36C121.229 6.44 120.901 6.544 120.581 6.672C120.261 6.8 120.061 7 119.981 7.272C119.933 7.48 120.053 7.712 120.341 7.968C120.645 8.208 121.021 8.456 121.469 8.712C121.917 8.952 122.333 9.192 122.717 9.432C123.085 9.64 123.381 9.92 123.605 10.272C123.829 10.624 123.941 11 123.941 11.4C123.941 11.896 123.757 12.376 123.389 12.84C122.797 13.56 122.181 14.12 121.541 14.52C120.917 14.92 120.213 15.248 119.429 15.504C118.997 15.648 118.637 15.752 118.349 15.816C118.061 15.896 117.781 15.936 117.509 15.936Z" fill="black"/>
<path d="M88.4775 22.711C88.594 22.1712 88.2509 21.6391 87.711 21.5225C87.1712 21.406 86.6391 21.7491 86.5225 22.289L87.5 22.5L88.4775 22.711ZM149.815 55.0794C150.135 54.6292 150.03 54.0049 149.579 53.6849L142.244 48.4705C141.794 48.1506 141.169 48.2561 140.849 48.7062C140.529 49.1564 140.635 49.7807 141.085 50.1006L147.606 54.7357L142.971 61.2561C142.651 61.7063 142.756 62.3306 143.206 62.6506C143.656 62.9706 144.281 62.865 144.601 62.4149L149.815 55.0794ZM87.5 22.5L86.5225 22.289C84.8846 29.8751 86.0882 40.693 95.115 48.3621C104.118 56.0106 120.65 60.3057 149.167 55.486L149 54.5L148.833 53.514C120.55 58.2943 104.749 53.9227 96.41 46.8379C88.0951 39.7737 86.9487 29.7916 88.4775 22.711L87.5 22.5Z" fill="#FF5E00"/>
</svg>
