<svg width="142" height="52" viewBox="0 0 142 52" fill="none" xmlns="http://www.w3.org/2000/svg">
<path d="M54.2718 11V1.77H57.7168C58.7741 1.77 59.5975 2.02567 60.1868 2.537C60.7761 3.03967 61.0708 3.74167 61.0708 4.643C61.0708 5.241 60.9365 5.761 60.6678 6.203C60.3991 6.63633 60.0135 6.97 59.5108 7.204C59.0168 7.42933 58.4188 7.542 57.7168 7.542H55.6758V11H54.2718ZM55.6758 6.268H57.6778C58.3105 6.268 58.7915 6.13367 59.1208 5.865C59.4501 5.58767 59.6148 5.18033 59.6148 4.643C59.6148 4.11433 59.4501 3.72 59.1208 3.46C58.7915 3.19133 58.3105 3.057 57.6778 3.057H55.6758V6.268ZM65.1516 11.156C64.4929 11.156 63.9166 11.0087 63.4226 10.714C62.9286 10.4193 62.5473 9.999 62.2786 9.453C62.0099 8.907 61.8756 8.27 61.8756 7.542C61.8756 6.80533 62.0099 6.16833 62.2786 5.631C62.5473 5.09367 62.9286 4.67767 63.4226 4.383C63.9166 4.07967 64.4929 3.928 65.1516 3.928C65.8103 3.928 66.3866 4.07967 66.8806 4.383C67.3746 4.67767 67.7559 5.09367 68.0246 5.631C68.2933 6.16833 68.4276 6.80533 68.4276 7.542C68.4276 8.27 68.2933 8.907 68.0246 9.453C67.7559 9.999 67.3746 10.4193 66.8806 10.714C66.3866 11.0087 65.8103 11.156 65.1516 11.156ZM65.1516 9.96C65.7409 9.96 66.1959 9.74767 66.5166 9.323C66.8373 8.88967 66.9976 8.296 66.9976 7.542C66.9976 6.788 66.8373 6.19867 66.5166 5.774C66.1959 5.34067 65.7409 5.124 65.1516 5.124C64.5709 5.124 64.1159 5.34067 63.7866 5.774C63.4659 6.19867 63.3056 6.788 63.3056 7.542C63.3056 8.296 63.4659 8.88967 63.7866 9.323C64.1159 9.74767 64.5709 9.96 65.1516 9.96ZM72.2183 11C71.5596 11 71.0743 10.8483 70.7623 10.545C70.4503 10.2417 70.2943 9.76933 70.2943 9.128V2.459H71.6723V9.024C71.6723 9.34467 71.7416 9.56567 71.8803 9.687C72.019 9.80833 72.2313 9.869 72.5173 9.869H73.5053V11H72.2183ZM69.2413 5.215V4.084H73.5053V5.215H69.2413ZM77.5549 11.156C76.8789 11.156 76.2939 11.0087 75.7999 10.714C75.3146 10.4193 74.9376 9.999 74.6689 9.453C74.4089 8.907 74.2789 8.27 74.2789 7.542C74.2789 6.814 74.4089 6.18133 74.6689 5.644C74.9376 5.098 75.3146 4.67767 75.7999 4.383C76.2852 4.07967 76.8572 3.928 77.5159 3.928C78.1399 3.928 78.6902 4.07533 79.1669 4.37C79.6436 4.656 80.0119 5.072 80.2719 5.618C80.5406 6.164 80.6749 6.82267 80.6749 7.594V7.945H75.7089C75.7436 8.621 75.9212 9.128 76.2419 9.466C76.5712 9.804 77.0132 9.973 77.5679 9.973C77.9752 9.973 78.3132 9.87767 78.5819 9.687C78.8506 9.49633 79.0369 9.24067 79.1409 8.92L80.5709 9.011C80.3889 9.65233 80.0292 10.1723 79.4919 10.571C78.9632 10.961 78.3176 11.156 77.5549 11.156ZM75.7089 6.905H79.2189C79.1756 6.28967 78.9979 5.83467 78.6859 5.54C78.3826 5.24533 77.9926 5.098 77.5159 5.098C77.0219 5.098 76.6146 5.254 76.2939 5.566C75.9819 5.86933 75.7869 6.31567 75.7089 6.905ZM82.0712 11V4.084H83.3322L83.3842 5.93L83.2152 5.839C83.2932 5.38833 83.4405 5.02433 83.6572 4.747C83.8739 4.46967 84.1382 4.266 84.4502 4.136C84.7622 3.99733 85.1002 3.928 85.4642 3.928C85.9842 3.928 86.4132 4.045 86.7512 4.279C87.0979 4.50433 87.3579 4.81633 87.5312 5.215C87.7132 5.605 87.8042 6.05133 87.8042 6.554V11H86.4262V6.97C86.4262 6.56267 86.3829 6.22033 86.2962 5.943C86.2095 5.66567 86.0665 5.45333 85.8672 5.306C85.6679 5.15867 85.4079 5.085 85.0872 5.085C84.6019 5.085 84.2075 5.24533 83.9042 5.566C83.6009 5.88667 83.4492 6.35467 83.4492 6.97V11H82.0712ZM91.9087 11C91.2501 11 90.7647 10.8483 90.4527 10.545C90.1407 10.2417 89.9847 9.76933 89.9847 9.128V2.459H91.3627V9.024C91.3627 9.34467 91.4321 9.56567 91.5707 9.687C91.7094 9.80833 91.9217 9.869 92.2077 9.869H93.1957V11H91.9087ZM88.9317 5.215V4.084H93.1957V5.215H88.9317ZM94.5126 11V4.084H95.8906V11H94.5126ZM94.4866 3.083V1.705H95.9166V3.083H94.4866ZM99.6488 11.156C98.9295 11.156 98.3531 10.9913 97.9198 10.662C97.4951 10.3327 97.2828 9.869 97.2828 9.271C97.2828 8.673 97.4605 8.20933 97.8158 7.88C98.1798 7.542 98.7388 7.29933 99.4928 7.152L101.872 6.697C101.872 6.15967 101.746 5.761 101.495 5.501C101.243 5.23233 100.871 5.098 100.377 5.098C99.9348 5.098 99.5881 5.19767 99.3368 5.397C99.0855 5.58767 98.9121 5.87367 98.8168 6.255L97.3998 6.164C97.5298 5.47067 97.8505 4.92467 98.3618 4.526C98.8818 4.12733 99.5535 3.928 100.377 3.928C101.313 3.928 102.023 4.17933 102.509 4.682C103.003 5.176 103.25 5.87367 103.25 6.775V9.466C103.25 9.63067 103.276 9.74767 103.328 9.817C103.388 9.87767 103.484 9.908 103.614 9.908H103.861V11C103.817 11.0087 103.748 11.0173 103.653 11.026C103.557 11.0347 103.458 11.039 103.354 11.039C103.059 11.039 102.803 10.9913 102.587 10.896C102.379 10.8007 102.223 10.6447 102.119 10.428C102.015 10.2027 101.963 9.90367 101.963 9.531L102.106 9.596C102.036 9.89933 101.885 10.168 101.651 10.402C101.425 10.636 101.135 10.8223 100.78 10.961C100.433 11.091 100.056 11.156 99.6488 11.156ZM99.8698 10.064C100.286 10.064 100.641 9.986 100.936 9.83C101.23 9.66533 101.46 9.44 101.625 9.154C101.789 8.868 101.872 8.543 101.872 8.179V7.737L99.8438 8.127C99.4278 8.205 99.1331 8.33067 98.9598 8.504C98.7951 8.66867 98.7128 8.881 98.7128 9.141C98.7128 9.43567 98.8125 9.66533 99.0118 9.83C99.2198 9.986 99.5058 10.064 99.8698 10.064ZM106.443 11C105.993 11 105.629 10.883 105.351 10.649C105.074 10.415 104.935 10.0423 104.935 9.531V1.77H106.313V9.401C106.313 9.557 106.352 9.674 106.43 9.752C106.517 9.83 106.638 9.869 106.794 9.869H107.34V11H106.443ZM111.909 11V1.77H115.354C116.411 1.77 117.234 2.02567 117.824 2.537C118.413 3.03967 118.708 3.74167 118.708 4.643C118.708 5.241 118.573 5.761 118.305 6.203C118.036 6.63633 117.65 6.97 117.148 7.204C116.654 7.42933 116.056 7.542 115.354 7.542H113.313V11H111.909ZM113.313 6.268H115.315C115.947 6.268 116.428 6.13367 116.758 5.865C117.087 5.58767 117.252 5.18033 117.252 4.643C117.252 4.11433 117.087 3.72 116.758 3.46C116.428 3.19133 115.947 3.057 115.315 3.057H113.313V6.268ZM120.199 11V1.77H121.98L126.244 9.297V1.77H127.648V11H125.802L121.603 3.642V11H120.199ZM129.885 11V1.77H131.289V10.48L130.548 9.713H135.787V11H129.885Z" fill="black"/>
<path d="M42.6435 7.77401C43.1693 7.60505 43.7325 7.89433 43.9015 8.42014C44.0705 8.94594 43.7812 9.50916 43.2554 9.67812L42.9494 8.72606L42.6435 7.77401ZM10.2252 51.3849C9.83334 51.7741 9.20018 51.772 8.81096 51.3802L2.46816 44.9951C2.07893 44.6033 2.08103 43.9702 2.47285 43.5809C2.86467 43.1917 3.49783 43.1938 3.88706 43.5856L9.5251 49.2612L15.2007 43.6232C15.5925 43.234 16.2257 43.2361 16.6149 43.6279C17.0041 44.0197 17.002 44.6529 16.6102 45.0421L10.2252 51.3849ZM42.9494 8.72606L43.2554 9.67812C37.8318 11.4209 29.6379 15.5842 22.8054 22.3763C15.9878 29.1534 10.5608 38.5074 10.5204 50.6788L9.52041 50.6754L8.52041 50.6721C8.56297 37.8508 14.2963 28.0148 21.3954 20.9579C28.4795 13.9158 36.9586 9.60075 42.6435 7.77401L42.9494 8.72606Z" fill="#FF5E00"/>
</svg>
