<svg width="187" height="55" viewBox="0 0 187 55" fill="none" xmlns="http://www.w3.org/2000/svg">
<path d="M60.8128 17.632C60.5888 17.632 60.3728 17.552 60.1648 17.392C59.9568 17.248 59.8528 16.984 59.8528 16.6C59.8528 16.552 59.8528 16.496 59.8528 16.432C59.8528 16.384 59.8608 16.328 59.8768 16.264C60.2288 14.28 60.7008 12.456 61.2928 10.792C61.9008 9.128 62.5248 7.648 63.1648 6.352C63.8048 5.056 64.3488 3.976 64.7968 3.112C64.9248 2.872 65.0928 2.696 65.3008 2.584C65.5248 2.456 65.7328 2.392 65.9248 2.392C66.2288 2.392 66.4048 2.504 66.4528 2.728C66.7568 2.6 67.0608 2.512 67.3648 2.464C67.5888 2.432 67.8128 2.408 68.0368 2.392C68.2768 2.36 68.5168 2.344 68.7568 2.344C69.3808 2.344 69.9648 2.432 70.5088 2.608C71.0688 2.784 71.5248 3.08 71.8768 3.496C72.2288 3.896 72.4048 4.464 72.4048 5.2C72.4048 6.016 72.1488 6.72 71.6368 7.312C71.1248 7.904 70.4528 8.432 69.6208 8.896C68.8048 9.344 67.9248 9.784 66.9808 10.216C66.5328 10.424 66.0048 10.6 65.3968 10.744C64.7888 10.872 64.2048 10.968 63.6448 11.032C63.1008 11.08 62.6688 11.104 62.3488 11.104C62.2368 11.392 62.1328 11.664 62.0368 11.92C61.9408 12.176 61.8528 12.416 61.7728 12.64C61.6928 12.864 61.6128 13.16 61.5328 13.528C61.4528 13.88 61.3808 14.256 61.3168 14.656C61.2528 15.056 61.2048 15.416 61.1728 15.736C61.1408 16.04 61.1248 16.256 61.1248 16.384C61.1248 16.48 61.1888 16.584 61.3168 16.696C61.4608 16.824 61.5328 16.96 61.5328 17.104C61.5328 17.248 61.4448 17.384 61.2688 17.512C61.1408 17.592 60.9888 17.632 60.8128 17.632ZM63.2848 10.144C63.5728 10.144 63.9728 10.096 64.4848 10C64.9968 9.888 65.6688 9.656 66.5008 9.304C67.9888 8.648 69.1728 7.952 70.0528 7.216C70.9488 6.464 71.3408 5.72 71.2288 4.984C71.2288 4.648 71.0848 4.352 70.7968 4.096C70.5088 3.84 70.1248 3.64 69.6448 3.496C69.1808 3.336 68.6688 3.256 68.1088 3.256C67.8208 3.256 67.5168 3.28 67.1968 3.328C67.0208 3.328 66.8848 3.392 66.7888 3.52C66.6928 3.632 66.5728 3.76 66.4288 3.904C66.3008 4.048 66.0848 4.176 65.7808 4.288C65.6848 4.32 65.6128 4.336 65.5648 4.336C65.3088 4.784 65.0128 5.336 64.6768 5.992C64.3568 6.632 64.0288 7.312 63.6928 8.032C63.3728 8.736 63.0688 9.432 62.7808 10.12C62.8288 10.12 62.8928 10.128 62.9728 10.144C63.0688 10.144 63.1728 10.144 63.2848 10.144ZM73.1976 15.544C73.1016 15.544 73.0056 15.544 72.9096 15.544C72.8136 15.528 72.7176 15.512 72.6216 15.496C71.9656 15.416 71.4536 15.104 71.0856 14.56C70.7336 14 70.5576 13.376 70.5576 12.688C70.5576 12.24 70.6456 11.768 70.8216 11.272C71.0136 10.76 71.3096 10.296 71.7096 9.88C72.1096 9.448 72.5736 9.104 73.1016 8.848C73.6296 8.592 74.1656 8.464 74.7096 8.464C74.9816 8.464 75.2376 8.496 75.4776 8.56C75.7336 8.624 75.8616 8.752 75.8616 8.944C75.8616 9.072 75.7896 9.2 75.6456 9.328C75.5176 9.44 75.3416 9.472 75.1176 9.424C75.0536 9.408 74.9496 9.4 74.8056 9.4C74.4216 9.4 74.0296 9.504 73.6296 9.712C73.2296 9.92 72.8696 10.2 72.5496 10.552C72.2296 10.888 71.9976 11.264 71.8536 11.68C71.7416 12 71.6856 12.32 71.6856 12.64C71.6856 13.136 71.7976 13.56 72.0216 13.912C72.2616 14.264 72.5336 14.44 72.8376 14.44C72.9176 14.456 72.9896 14.464 73.0536 14.464C73.1336 14.464 73.2056 14.464 73.2696 14.464C73.9736 14.464 74.6456 14.272 75.2856 13.888C75.9416 13.488 76.4456 13.056 76.7976 12.592C76.9736 12.32 77.0936 12.08 77.1576 11.872C77.2216 11.648 77.2536 11.464 77.2536 11.32C77.2536 11 77.1576 10.784 76.9656 10.672C76.7736 10.56 76.5976 10.512 76.4376 10.528C76.1816 10.56 75.9336 10.6 75.6936 10.648C75.4536 10.68 75.2456 10.736 75.0696 10.816C74.9736 10.848 74.9016 10.864 74.8536 10.864C74.6936 10.864 74.5576 10.8 74.4456 10.672C74.3496 10.544 74.3016 10.408 74.3016 10.264C74.3016 10.008 74.4216 9.84 74.6616 9.76C74.8856 9.68 75.1496 9.608 75.4536 9.544C75.7576 9.48 76.0696 9.432 76.3896 9.4C76.4536 9.384 76.5096 9.376 76.5576 9.376C76.6056 9.376 76.6616 9.376 76.7256 9.376C77.3016 9.376 77.7496 9.552 78.0696 9.904C78.3896 10.24 78.5496 10.656 78.5496 11.152C78.5496 11.456 78.4776 11.784 78.3336 12.136C78.1896 12.488 77.9576 12.824 77.6376 13.144C77.3496 13.512 76.9816 13.88 76.5336 14.248C76.0856 14.616 75.5816 14.928 75.0216 15.184C74.4616 15.424 73.8536 15.544 73.1976 15.544ZM83.2028 17.32C83.1388 17.32 83.0828 17.312 83.0348 17.296C82.9868 17.296 82.9308 17.288 82.8668 17.272C82.4188 17.16 81.9788 16.984 81.5468 16.744C81.1308 16.504 80.7868 16.152 80.5148 15.688C80.2428 15.208 80.1068 14.584 80.1068 13.816C80.1068 13.512 80.1308 13.184 80.1788 12.832C80.2588 12.272 80.4028 11.616 80.6108 10.864C80.8348 10.096 81.0988 9.296 81.4028 8.464H81.3788C81.2828 8.464 81.1948 8.48 81.1148 8.512C81.0348 8.544 80.9548 8.56 80.8748 8.56C80.6188 8.56 80.4908 8.408 80.4908 8.104C80.4908 7.928 80.5628 7.76 80.7068 7.6C80.8508 7.44 80.9868 7.36 81.1148 7.36L81.8348 7.336C82.2348 6.296 82.6348 5.312 83.0348 4.384C83.4508 3.44 83.8028 2.696 84.0908 2.152C84.1708 2.008 84.2828 1.904 84.4268 1.84C84.5868 1.76 84.7468 1.72 84.9068 1.72C85.0668 1.72 85.2028 1.76 85.3148 1.84C85.4428 1.904 85.5068 2 85.5068 2.128C85.5068 2.16 85.4908 2.224 85.4588 2.32L83.9708 5.56C83.8268 5.864 83.6908 6.152 83.5628 6.424C83.4508 6.696 83.3308 6.968 83.2028 7.24C83.5228 7.24 83.8508 7.248 84.1868 7.264C84.5388 7.28 84.9308 7.312 85.3628 7.36C85.4428 7.376 85.5228 7.432 85.6028 7.528C85.6828 7.624 85.7228 7.728 85.7228 7.84C85.7228 7.92 85.6908 8 85.6268 8.08C85.5788 8.144 85.4668 8.184 85.2908 8.2C84.9068 8.248 84.4828 8.28 84.0188 8.296C83.5548 8.296 83.1388 8.304 82.7708 8.32C82.4028 9.296 82.1068 10.184 81.8828 10.984C81.6748 11.784 81.5068 12.536 81.3788 13.24C81.3628 13.352 81.3468 13.464 81.3308 13.576C81.3308 13.688 81.3308 13.792 81.3308 13.888C81.3308 14.608 81.5228 15.144 81.9068 15.496C82.2908 15.848 82.7228 16.096 83.2028 16.24C83.4908 16.336 83.6908 16.432 83.8028 16.528C83.9308 16.64 83.9948 16.744 83.9948 16.84C83.9948 16.968 83.9148 17.08 83.7548 17.176C83.6108 17.272 83.4268 17.32 83.2028 17.32ZM89.1537 17.368C89.0257 17.368 88.8737 17.344 88.6977 17.296C87.7217 16.976 87.0097 16.448 86.5617 15.712C86.1137 14.96 85.8897 14.168 85.8897 13.336C85.8897 13.208 85.8897 13.088 85.8897 12.976C85.9057 12.848 85.9217 12.728 85.9377 12.616C86.0817 11.704 86.3857 10.896 86.8497 10.192C87.3297 9.488 87.8657 8.912 88.4577 8.464C89.0657 8 89.6177 7.704 90.1137 7.576C90.4337 7.496 90.7537 7.432 91.0737 7.384C91.3937 7.32 91.7057 7.288 92.0097 7.288C92.7777 7.288 93.4337 7.456 93.9777 7.792C94.5217 8.128 94.7937 8.68 94.7937 9.448C94.7937 9.88 94.6577 10.272 94.3857 10.624C94.1297 10.976 93.8017 11.28 93.4017 11.536C93.0177 11.776 92.6417 11.968 92.2737 12.112C91.7137 12.336 91.0737 12.504 90.3537 12.616C89.6497 12.728 88.9857 12.784 88.3617 12.784C87.9617 12.784 87.5937 12.76 87.2577 12.712V12.736C87.2577 12.8 87.2497 12.864 87.2337 12.928C87.2177 12.976 87.2097 13.032 87.2097 13.096C87.1937 13.16 87.1857 13.224 87.1857 13.288C87.1857 13.336 87.1857 13.384 87.1857 13.432C87.1857 13.928 87.2817 14.368 87.4737 14.752C87.6817 15.12 87.9217 15.44 88.1937 15.712C88.4657 15.968 88.6897 16.176 88.8657 16.336C89.1537 16.48 89.3537 16.616 89.4657 16.744C89.5937 16.888 89.6577 17 89.6577 17.08C89.6577 17.272 89.4897 17.368 89.1537 17.368ZM89.0097 11.704C89.4897 11.704 89.9937 11.672 90.5217 11.608C91.0497 11.528 91.5377 11.384 91.9857 11.176C92.3377 11 92.6657 10.768 92.9697 10.48C93.2737 10.176 93.4257 9.816 93.4257 9.4C93.4257 9.08 93.2977 8.84 93.0417 8.68C92.7857 8.52 92.4257 8.44 91.9617 8.44C91.4337 8.44 90.8577 8.536 90.2337 8.728C90.0097 8.792 89.7297 8.944 89.3937 9.184C89.0737 9.424 88.7457 9.752 88.4097 10.168C88.0737 10.568 87.7937 11.048 87.5697 11.608C87.7617 11.624 87.9777 11.648 88.2177 11.68C88.4737 11.696 88.7377 11.704 89.0097 11.704ZM104.063 16.192C103.823 16.192 103.599 16.056 103.391 15.784C103.183 15.496 103.079 15.136 103.079 14.704C103.079 14.432 103.103 14.088 103.151 13.672C103.199 13.256 103.271 12.84 103.367 12.424C103.463 11.992 103.575 11.624 103.703 11.32C103.959 10.744 104.087 10.288 104.087 9.952C104.087 9.536 103.895 9.328 103.511 9.328C103.463 9.328 103.407 9.328 103.343 9.328C103.279 9.328 103.215 9.344 103.151 9.376C102.831 9.472 102.399 9.688 101.855 10.024C101.311 10.344 100.735 10.72 100.127 11.152C99.5345 11.584 98.9745 12.016 98.4465 12.448C97.9185 12.88 97.5105 13.256 97.2225 13.576C96.8225 14.024 96.5585 14.368 96.4305 14.608C96.3025 14.848 96.2385 14.968 96.2385 14.968C96.1105 15.144 95.9665 15.232 95.8065 15.232C95.6625 15.232 95.5425 15.16 95.4465 15.016C95.3505 14.856 95.3265 14.648 95.3745 14.392C95.5985 13.08 95.8385 11.96 96.0945 11.032C96.3665 10.104 96.6785 9.304 97.0305 8.632C97.1745 8.376 97.3745 8.248 97.6305 8.248C97.7745 8.248 97.9025 8.304 98.0145 8.416C98.1265 8.512 98.1825 8.664 98.1825 8.872C98.1825 8.984 98.1345 9.2 98.0385 9.52C97.9585 9.84 97.8545 10.104 97.7265 10.312C97.5665 10.568 97.4305 10.864 97.3185 11.2C97.2225 11.52 97.1025 11.968 96.9585 12.544C97.1345 12.272 97.2865 12.08 97.4145 11.968C97.5425 11.84 97.7105 11.672 97.9185 11.464C98.5745 10.808 99.3505 10.216 100.247 9.688C101.159 9.144 102.031 8.688 102.863 8.32C103.039 8.24 103.263 8.16 103.535 8.08C103.807 8 104.079 7.96 104.351 7.96C104.671 7.96 104.959 8.048 105.215 8.224C105.471 8.4 105.599 8.736 105.599 9.232C105.599 9.488 105.551 9.8 105.455 10.168C105.375 10.536 105.231 10.968 105.023 11.464C104.767 12.056 104.599 12.672 104.519 13.312C104.455 13.952 104.423 14.496 104.423 14.944C104.423 15.072 104.423 15.2 104.423 15.328C104.439 15.44 104.447 15.544 104.447 15.64C104.447 15.8 104.423 15.928 104.375 16.024C104.327 16.136 104.223 16.192 104.063 16.192ZM110.086 17.32C110.022 17.32 109.966 17.312 109.918 17.296C109.87 17.296 109.814 17.288 109.75 17.272C109.302 17.16 108.862 16.984 108.43 16.744C108.014 16.504 107.67 16.152 107.398 15.688C107.126 15.208 106.99 14.584 106.99 13.816C106.99 13.512 107.014 13.184 107.062 12.832C107.142 12.272 107.286 11.616 107.494 10.864C107.718 10.096 107.982 9.296 108.286 8.464H108.262C108.166 8.464 108.078 8.48 107.998 8.512C107.918 8.544 107.838 8.56 107.758 8.56C107.502 8.56 107.374 8.408 107.374 8.104C107.374 7.928 107.446 7.76 107.59 7.6C107.734 7.44 107.87 7.36 107.998 7.36L108.718 7.336C109.118 6.296 109.518 5.312 109.918 4.384C110.334 3.44 110.686 2.696 110.974 2.152C111.054 2.008 111.166 1.904 111.31 1.84C111.47 1.76 111.63 1.72 111.79 1.72C111.95 1.72 112.086 1.76 112.198 1.84C112.326 1.904 112.39 2 112.39 2.128C112.39 2.16 112.374 2.224 112.342 2.32L110.854 5.56C110.71 5.864 110.574 6.152 110.446 6.424C110.334 6.696 110.214 6.968 110.086 7.24C110.406 7.24 110.734 7.248 111.07 7.264C111.422 7.28 111.814 7.312 112.246 7.36C112.326 7.376 112.406 7.432 112.486 7.528C112.566 7.624 112.606 7.728 112.606 7.84C112.606 7.92 112.574 8 112.51 8.08C112.462 8.144 112.35 8.184 112.174 8.2C111.79 8.248 111.366 8.28 110.902 8.296C110.438 8.296 110.022 8.304 109.654 8.32C109.286 9.296 108.99 10.184 108.766 10.984C108.558 11.784 108.39 12.536 108.262 13.24C108.246 13.352 108.23 13.464 108.214 13.576C108.214 13.688 108.214 13.792 108.214 13.888C108.214 14.608 108.406 15.144 108.79 15.496C109.174 15.848 109.606 16.096 110.086 16.24C110.374 16.336 110.574 16.432 110.686 16.528C110.814 16.64 110.878 16.744 110.878 16.84C110.878 16.968 110.798 17.08 110.638 17.176C110.494 17.272 110.31 17.32 110.086 17.32ZM117.332 6.808C117.252 6.904 117.148 6.912 117.02 6.832C116.908 6.752 116.812 6.632 116.732 6.472C116.652 6.296 116.628 6.128 116.66 5.968H116.684C116.748 5.728 116.828 5.528 116.924 5.368C117.02 5.208 117.148 5.048 117.308 4.888C117.404 4.792 117.532 4.744 117.692 4.744C117.836 4.744 117.964 4.792 118.076 4.888C118.204 4.968 118.268 5.072 118.268 5.2C118.268 5.264 118.244 5.336 118.196 5.416C118.148 5.48 118.052 5.648 117.908 5.92C117.78 6.192 117.588 6.488 117.332 6.808ZM114.308 15.664C114.052 15.664 113.796 15.568 113.54 15.376C113.3 15.168 113.204 14.84 113.252 14.392C113.316 13.768 113.404 13.24 113.516 12.808C113.628 12.376 113.756 11.984 113.9 11.632C114.044 11.264 114.196 10.872 114.356 10.456C114.532 10.04 114.708 9.536 114.884 8.944C114.98 8.672 115.18 8.536 115.484 8.536C115.692 8.536 115.876 8.6 116.036 8.728C116.196 8.856 116.244 9.032 116.18 9.256C115.972 9.928 115.764 10.472 115.556 10.888C115.348 11.304 115.156 11.672 114.98 11.992C114.804 12.296 114.652 12.632 114.524 13C114.412 13.352 114.34 13.808 114.308 14.368C114.308 14.416 114.412 14.52 114.62 14.68C114.828 14.824 114.932 14.992 114.932 15.184C114.932 15.328 114.852 15.456 114.692 15.568C114.612 15.632 114.484 15.664 114.308 15.664ZM120.002 15.472C119.554 15.472 119.114 15.376 118.682 15.184C118.266 14.992 117.922 14.728 117.65 14.392C117.378 14.056 117.242 13.672 117.242 13.24C117.242 12.6 117.41 12.04 117.746 11.56C118.082 11.08 118.506 10.672 119.018 10.336C119.546 10 120.082 9.744 120.626 9.568C121.154 9.392 121.73 9.304 122.354 9.304C123.01 9.304 123.642 9.424 124.25 9.664C124.874 9.888 125.314 10.28 125.57 10.84C125.698 10.424 125.794 10.016 125.858 9.616C125.922 9.2 125.954 8.84 125.954 8.536C125.954 8.024 125.85 7.632 125.642 7.36C125.45 7.088 125.098 6.952 124.586 6.952C124.378 6.952 124.138 7.032 123.866 7.192C123.594 7.336 123.33 7.528 123.074 7.768C122.978 7.864 122.906 7.928 122.858 7.96C122.826 7.992 122.738 8.008 122.594 8.008C122.434 8.008 122.306 7.952 122.21 7.84C122.13 7.728 122.09 7.6 122.09 7.456C122.09 7.264 122.162 7.096 122.306 6.952C122.45 6.808 122.61 6.648 122.786 6.472C122.962 6.296 123.186 6.144 123.458 6.016C123.746 5.872 124.106 5.8 124.538 5.8C125.434 5.8 126.09 6.008 126.506 6.424C126.922 6.84 127.13 7.52 127.13 8.464C127.13 8.928 127.066 9.408 126.938 9.904C126.826 10.4 126.69 10.928 126.53 11.488C126.434 11.84 126.298 12.24 126.122 12.688C125.962 13.12 125.754 13.552 125.498 13.984C125.242 14.416 124.93 14.784 124.562 15.088C124.45 15.184 124.33 15.232 124.202 15.232C124.042 15.232 123.906 15.176 123.794 15.064C123.682 14.952 123.626 14.824 123.626 14.68C123.626 14.536 123.698 14.392 123.842 14.248C124.018 14.104 124.202 13.872 124.394 13.552C124.602 13.232 124.794 12.832 124.97 12.352C124.922 11.696 124.61 11.216 124.034 10.912C123.474 10.608 122.85 10.456 122.162 10.456C121.762 10.456 121.378 10.504 121.01 10.6C120.61 10.712 120.21 10.904 119.81 11.176C119.41 11.432 119.074 11.736 118.802 12.088C118.546 12.44 118.418 12.808 118.418 13.192C118.418 13.496 118.57 13.768 118.874 14.008C119.194 14.248 119.57 14.368 120.002 14.368C120.37 14.368 120.658 14.36 120.866 14.344C121.09 14.328 121.298 14.28 121.49 14.2C121.698 14.104 121.962 13.936 122.282 13.696C122.426 13.6 122.546 13.552 122.642 13.552C122.77 13.552 122.874 13.592 122.954 13.672C123.034 13.752 123.074 13.856 123.074 13.984C123.074 14.16 122.986 14.312 122.81 14.44C122.266 14.888 121.786 15.176 121.37 15.304C120.97 15.416 120.514 15.472 120.002 15.472ZM129.677 16.696C129.421 16.696 129.165 16.592 128.909 16.384C128.669 16.192 128.565 15.872 128.597 15.424C128.645 15.008 128.757 14.456 128.933 13.768C129.125 13.064 129.365 12.288 129.653 11.44C129.957 10.592 130.277 9.72 130.613 8.824C130.965 7.912 131.317 7.032 131.669 6.184C132.021 5.32 132.357 4.544 132.677 3.856C132.997 3.152 133.269 2.584 133.493 2.152C133.637 1.896 133.837 1.768 134.093 1.768C134.237 1.768 134.365 1.824 134.477 1.936C134.589 2.032 134.645 2.176 134.645 2.368C134.645 2.432 134.621 2.568 134.573 2.776C134.541 2.984 134.485 3.2 134.405 3.424C134.341 3.648 134.269 3.832 134.189 3.976C134.029 4.232 133.837 4.496 133.613 4.768C133.389 5.04 133.189 5.36 133.013 5.728C132.629 6.56 132.245 7.44 131.861 8.368C131.477 9.28 131.125 10.176 130.805 11.056C130.485 11.936 130.221 12.728 130.013 13.432C129.821 14.136 129.709 14.696 129.677 15.112C129.677 15.224 129.725 15.344 129.821 15.472C129.933 15.6 130.037 15.728 130.133 15.856C130.245 15.984 130.301 16.112 130.301 16.24C130.301 16.368 130.221 16.488 130.061 16.6C129.981 16.664 129.853 16.696 129.677 16.696ZM141.625 17.632C141.401 17.632 141.185 17.552 140.977 17.392C140.769 17.248 140.665 16.984 140.665 16.6C140.665 16.552 140.665 16.496 140.665 16.432C140.665 16.384 140.673 16.328 140.689 16.264C141.041 14.28 141.513 12.456 142.105 10.792C142.713 9.128 143.337 7.648 143.977 6.352C144.617 5.056 145.161 3.976 145.609 3.112C145.737 2.872 145.905 2.696 146.113 2.584C146.337 2.456 146.545 2.392 146.737 2.392C147.041 2.392 147.217 2.504 147.265 2.728C147.569 2.6 147.873 2.512 148.177 2.464C148.401 2.432 148.625 2.408 148.849 2.392C149.089 2.36 149.329 2.344 149.569 2.344C150.193 2.344 150.777 2.432 151.321 2.608C151.881 2.784 152.337 3.08 152.689 3.496C153.041 3.896 153.217 4.464 153.217 5.2C153.217 6.016 152.961 6.72 152.449 7.312C151.937 7.904 151.265 8.432 150.433 8.896C149.617 9.344 148.737 9.784 147.793 10.216C147.345 10.424 146.817 10.6 146.209 10.744C145.601 10.872 145.017 10.968 144.457 11.032C143.913 11.08 143.481 11.104 143.161 11.104C143.049 11.392 142.945 11.664 142.849 11.92C142.753 12.176 142.665 12.416 142.585 12.64C142.505 12.864 142.425 13.16 142.345 13.528C142.265 13.88 142.193 14.256 142.129 14.656C142.065 15.056 142.017 15.416 141.985 15.736C141.953 16.04 141.937 16.256 141.937 16.384C141.937 16.48 142.001 16.584 142.129 16.696C142.273 16.824 142.345 16.96 142.345 17.104C142.345 17.248 142.257 17.384 142.081 17.512C141.953 17.592 141.801 17.632 141.625 17.632ZM144.097 10.144C144.385 10.144 144.785 10.096 145.297 10C145.809 9.888 146.481 9.656 147.313 9.304C148.801 8.648 149.985 7.952 150.865 7.216C151.761 6.464 152.153 5.72 152.041 4.984C152.041 4.648 151.897 4.352 151.609 4.096C151.321 3.84 150.937 3.64 150.457 3.496C149.993 3.336 149.481 3.256 148.921 3.256C148.633 3.256 148.329 3.28 148.009 3.328C147.833 3.328 147.697 3.392 147.601 3.52C147.505 3.632 147.385 3.76 147.241 3.904C147.113 4.048 146.897 4.176 146.593 4.288C146.497 4.32 146.425 4.336 146.377 4.336C146.121 4.784 145.825 5.336 145.489 5.992C145.169 6.632 144.841 7.312 144.505 8.032C144.185 8.736 143.881 9.432 143.593 10.12C143.641 10.12 143.705 10.128 143.785 10.144C143.881 10.144 143.985 10.144 144.097 10.144ZM160.652 14.848C160.54 14.848 160.42 14.816 160.292 14.752C160.18 14.688 160.092 14.592 160.028 14.464C159.772 13.84 159.492 13.152 159.188 12.4C158.884 11.632 158.62 10.92 158.396 10.264C157.964 8.936 157.62 7.672 157.364 6.472C157.124 5.256 157.004 4.304 157.004 3.616C157.004 3.504 157.004 3.4 157.004 3.304C157.02 3.208 157.036 3.128 157.052 3.064C157.084 2.872 157.172 2.728 157.316 2.632C157.476 2.52 157.636 2.464 157.796 2.464C157.956 2.464 158.092 2.512 158.204 2.608C158.316 2.688 158.356 2.824 158.324 3.016C158.308 3.096 158.276 3.272 158.228 3.544C158.196 3.8 158.188 3.992 158.204 4.12C158.204 4.424 158.244 4.888 158.324 5.512C158.42 6.12 158.564 6.824 158.756 7.624C158.948 8.424 159.188 9.256 159.476 10.12C159.572 10.408 159.708 10.744 159.884 11.128C160.06 11.512 160.236 11.88 160.412 12.232C160.604 12.584 160.74 12.888 160.82 13.144C161.012 12.856 161.268 12.368 161.588 11.68C161.924 10.976 162.292 10.176 162.692 9.28C163.108 8.368 163.54 7.432 163.988 6.472C164.436 5.512 164.868 4.608 165.284 3.76C165.716 2.896 166.108 2.184 166.46 1.624C166.828 1.048 167.124 0.703999 167.348 0.592C167.572 0.463999 167.812 0.399999 168.068 0.399999C168.18 0.399999 168.276 0.423999 168.356 0.472C168.436 0.503999 168.476 0.567999 168.476 0.663999C168.476 0.775999 168.42 0.903999 168.308 1.048C168.196 1.192 168.076 1.312 167.948 1.408C167.612 1.664 167.244 2.112 166.844 2.752C166.444 3.376 166.028 4.12 165.596 4.984C165.18 5.832 164.756 6.736 164.324 7.696C163.908 8.64 163.5 9.568 163.1 10.48C162.716 11.376 162.356 12.192 162.02 12.928C161.684 13.648 161.396 14.208 161.156 14.608C161.06 14.768 160.892 14.848 160.652 14.848ZM152.876 16.696C152.588 16.696 152.3 16.6 152.012 16.408C151.724 16.232 151.604 15.928 151.652 15.496C151.86 13.832 152.196 12.32 152.66 10.96C153.14 9.6 153.66 8.376 154.22 7.288C154.78 6.184 155.284 5.2 155.732 4.336C155.94 3.952 156.164 3.76 156.404 3.76C156.628 3.76 156.716 3.936 156.668 4.288H156.692C156.676 4.368 156.604 4.544 156.476 4.816C156.348 5.088 156.196 5.408 156.02 5.776C155.86 6.128 155.692 6.472 155.516 6.808C155.356 7.128 155.236 7.376 155.156 7.552C154.836 8.208 154.564 8.776 154.34 9.256C154.132 9.72 153.948 10.144 153.788 10.528C153.644 10.912 153.524 11.304 153.428 11.704C153.332 12.104 153.252 12.576 153.188 13.12C153.124 13.648 153.06 14.296 152.996 15.064C152.996 15.176 153.044 15.304 153.14 15.448C153.252 15.576 153.356 15.704 153.452 15.832C153.564 15.96 153.62 16.088 153.62 16.216C153.62 16.344 153.548 16.456 153.404 16.552C153.292 16.648 153.116 16.696 152.876 16.696ZM174.93 17.392C174.658 17.392 174.522 17.256 174.522 16.984C174.522 16.808 174.57 16.616 174.666 16.408C174.762 16.216 174.802 16.12 174.786 16.12C174.786 16.104 174.786 16.088 174.786 16.072C174.802 16.072 174.81 16.064 174.81 16.048C174.81 15.952 174.714 15.824 174.522 15.664C174.186 15.36 173.754 15.16 173.226 15.064C172.714 14.968 172.138 14.888 171.498 14.824C171.386 14.808 171.282 14.8 171.186 14.8C171.09 14.8 170.986 14.8 170.874 14.8C170.186 14.8 169.474 14.888 168.738 15.064C168.002 15.24 167.266 15.464 166.53 15.736C166.594 15.816 166.642 15.896 166.674 15.976C166.722 16.056 166.746 16.136 166.746 16.216C166.746 16.36 166.666 16.48 166.506 16.576C166.394 16.656 166.258 16.696 166.098 16.696C165.954 16.696 165.802 16.664 165.642 16.6C165.498 16.536 165.37 16.432 165.258 16.288C165.05 16.384 164.842 16.48 164.634 16.576C164.426 16.688 164.226 16.8 164.034 16.912V16.936C164.018 16.952 163.994 16.96 163.962 16.96C163.898 16.96 163.842 16.904 163.794 16.792C163.746 16.696 163.722 16.592 163.722 16.48C163.722 16.368 163.746 16.264 163.794 16.168C163.826 16.072 163.898 16 164.01 15.952C164.202 15.872 164.386 15.8 164.562 15.736C164.738 15.656 164.906 15.584 165.066 15.52L165.042 15.448C165.074 15.016 165.178 14.456 165.354 13.768C165.546 13.08 165.786 12.312 166.074 11.464C166.378 10.6 166.706 9.72 167.058 8.824C167.41 7.912 167.762 7.032 168.114 6.184C168.482 5.32 168.826 4.544 169.146 3.856C169.466 3.152 169.738 2.584 169.962 2.152C170.106 1.896 170.306 1.768 170.562 1.768C170.706 1.768 170.834 1.824 170.946 1.936C171.058 2.032 171.114 2.176 171.114 2.368C171.114 2.432 171.09 2.568 171.042 2.776C171.01 2.984 170.954 3.2 170.874 3.424C170.81 3.648 170.738 3.832 170.658 3.976C170.498 4.232 170.306 4.496 170.082 4.768C169.858 5.04 169.658 5.36 169.482 5.728C169.098 6.544 168.714 7.4 168.33 8.296C167.962 9.192 167.618 10.08 167.298 10.96C166.994 11.824 166.738 12.608 166.53 13.312C166.338 14.016 166.218 14.584 166.17 15.016C166.49 14.872 166.826 14.736 167.178 14.608C167.53 14.48 167.906 14.368 168.306 14.272C168.802 14.16 169.242 14.088 169.626 14.056C170.026 14.008 170.41 13.984 170.778 13.984C171.226 13.984 171.698 14.008 172.194 14.056C172.802 14.12 173.37 14.184 173.898 14.248C174.426 14.312 174.89 14.48 175.29 14.752C175.29 14.752 175.37 14.792 175.53 14.872C175.706 14.952 175.85 15.072 175.962 15.232C176.01 15.328 176.034 15.448 176.034 15.592C176.034 15.704 176.026 15.816 176.01 15.928C175.994 16.024 175.97 16.12 175.938 16.216C175.906 16.344 175.874 16.488 175.842 16.648C175.81 16.808 175.73 16.952 175.602 17.08C175.49 17.208 175.354 17.288 175.194 17.32C175.05 17.368 174.962 17.392 174.93 17.392Z" fill="black"/>
<path d="M42.6435 10.774C43.1693 10.605 43.7325 10.8943 43.9015 11.4201C44.0705 11.9459 43.7812 12.5092 43.2554 12.6781L42.9494 11.7261L42.6435 10.774ZM10.2252 54.3849C9.83334 54.7741 9.20018 54.772 8.81096 54.3802L2.46816 47.9951C2.07893 47.6033 2.08103 46.9702 2.47285 46.5809C2.86467 46.1917 3.49783 46.1938 3.88706 46.5856L9.5251 52.2612L15.2007 46.6232C15.5925 46.234 16.2257 46.2361 16.6149 46.6279C17.0041 47.0197 17.002 47.6529 16.6102 48.0421L10.2252 54.3849ZM42.9494 11.7261L43.2554 12.6781C37.8318 14.4209 29.6379 18.5842 22.8054 25.3763C15.9878 32.1534 10.5608 41.5074 10.5204 53.6788L9.52041 53.6754L8.52041 53.6721C8.56297 40.8508 14.2963 31.0148 21.3954 23.9579C28.4795 16.9158 36.9586 12.6007 42.6435 10.774L42.9494 11.7261Z" fill="#FF5E00"/>
</svg>
