<?xml version="1.0" encoding="UTF-8"?>
<svg xmlns="http://www.w3.org/2000/svg" viewBox="0 0 1755.03 599.61">
  <defs>
    <style>
      .cls-1 {
        fill: #e312f9;
      }

      .cls-2 {
        fill: #ff6833;
      }

      .cls-3 {
        isolation: isolate;
      }

      .cls-4 {
        fill: #6e14ef;
      }

      .cls-5 {
        fill: #1c1c1c;
        mix-blend-mode: multiply;
        opacity: .22;
      }

      .cls-6 {
        fill: none;
        stroke: #000;
        stroke-miterlimit: 10;
        stroke-width: 63px;
      }
    </style>
  </defs>
  <g class="cls-3">
    <g id="Layer_2" data-name="Layer 2">
      <g id="Wedge">
        <polygon class="cls-1" points="387.57 523.94 208.97 542.4 443.53 81.38 612.53 74.38 387.57 523.94"/>
        <polygon class="cls-4" points="210.15 548.17 31.55 566.97 264.98 89.14 443.58 81.31 210.15 548.17"/>
        <polygon class="cls-2" points="560.53 514.38 384.53 530.38 612.53 74.38 784.53 67.38 560.53 514.38"/>
        <polygon class="cls-5" points="661.53 313.38 143.53 348.38 31.53 567.38 561.38 514.11 661.53 313.38"/>
        <path class="cls-6" d="M273.63,88.58c2.42-2.42,1282.93-49.28,1440.56-57.07,6.97-.34,11.59,7.1,8.2,13.21l-33.54,60.37c-4.37,7.87-12.25,13.17-21.19,14.25l-734.4,88.88c-7,.85-13.16,5.03-16.52,11.23l-143.22,264.06c-3.82,7.04-10.9,11.65-18.88,12.26-97.05,7.45-721.75,69.01-722.99,71.91-7.26,16.94,239.55-476.68,241.97-479.1Z"/>
      </g>
    </g>
  </g>
</svg>