<svg width="456" height="84" viewBox="0 0 456 84" fill="none" xmlns="http://www.w3.org/2000/svg">
<path d="M23.3594 41.9727H28.04L77.6016 4.7998C80.2384 2.82271 84.0008 4.70414 84.001 8V72C84.001 78.6274 78.6284 84 72.001 84H28.0039L60.6689 42H55.959L6.40039 79.1719C3.76355 81.1497 0.000250408 79.2687 0 75.9727V41.9727H0.0078125V12C0.00781267 5.37258 5.3804 0 12.0078 0H56L23.3594 41.9727Z" fill="#6E6E6E"/>
<path d="M424.394 22.3979L437.435 59.3339L432.089 69.459L413.945 22.3979H424.394ZM414.998 80.9609V72.7799H420.911C422.207 72.7799 423.341 72.6179 424.313 72.2939C425.285 72.0239 426.149 71.4839 426.905 70.6739C427.715 69.8639 428.39 68.676 428.93 67.11L445.535 22.3979H455.741L436.139 71.3219C434.681 74.9939 432.845 77.6669 430.631 79.3409C428.417 81.0149 425.663 81.852 422.369 81.852C420.965 81.852 419.642 81.7709 418.4 81.6089C417.212 81.5009 416.078 81.2849 414.998 80.9609Z" fill="#6E6E6E"/>
<path d="M408.114 62.412H398.312V2.14795H408.114V62.412Z" fill="#6E6E6E"/>
<path d="M336.364 62.4121H326.482V22.3981H335.554L336.769 29.5261L335.635 28.5541C336.445 26.6101 337.93 24.9091 340.09 23.4511C342.25 21.9391 344.95 21.1831 348.19 21.1831C351.7 21.1831 354.562 22.1011 356.776 23.9371C359.044 25.7731 360.61 28.2031 361.474 31.2271H359.854C360.448 28.2031 361.96 25.7731 364.39 23.9371C366.874 22.1011 369.871 21.1831 373.381 21.1831C378.241 21.1831 381.967 22.5601 384.559 25.3141C387.151 28.0141 388.447 31.6591 388.447 36.2491V62.4121H378.646V38.8411C378.646 35.9791 377.917 33.8191 376.459 32.3611C375.055 30.8491 373.165 30.0931 370.789 30.0931C369.277 30.0931 367.873 30.4441 366.577 31.1461C365.335 31.8481 364.336 32.9011 363.58 34.3051C362.824 35.7091 362.446 37.5181 362.446 39.7321V62.4121H352.564V38.7601C352.564 35.9521 351.862 33.8191 350.458 32.3611C349.054 30.9031 347.191 30.1741 344.869 30.1741C343.303 30.1741 341.872 30.5251 340.576 31.2271C339.28 31.8751 338.254 32.9281 337.498 34.3861C336.742 35.7901 336.364 37.5721 336.364 39.7321V62.4121Z" fill="#6E6E6E"/>
<path d="M299.301 63.4651C295.359 63.4651 291.849 62.5741 288.771 60.7921C285.747 58.9561 283.371 56.4721 281.643 53.3401C279.915 50.1541 279.051 46.5091 279.051 42.4051C279.051 38.2471 279.888 34.5751 281.562 31.3891C283.236 28.2031 285.585 25.7191 288.609 23.9371C291.633 22.1011 295.089 21.1831 298.977 21.1831C303.027 21.1831 306.51 22.0471 309.426 23.7751C312.342 25.4491 314.583 27.7981 316.149 30.8221C317.769 33.8461 318.579 37.4641 318.579 41.6761V44.6731L284.235 44.7541L284.397 38.4361H308.778C308.778 35.6821 307.887 33.4681 306.105 31.7941C304.377 30.1201 302.028 29.2831 299.058 29.2831C296.736 29.2831 294.765 29.7691 293.145 30.7411C291.579 31.7131 290.391 33.1711 289.581 35.1151C288.771 37.0591 288.366 39.4351 288.366 42.2431C288.366 46.5631 289.284 49.8301 291.12 52.0441C293.01 54.2581 295.791 55.3651 299.463 55.3651C302.163 55.3651 304.377 54.8521 306.105 53.8261C307.887 52.8001 309.048 51.3421 309.588 49.4521H318.741C317.877 53.8261 315.717 57.2551 312.261 59.7391C308.859 62.2231 304.539 63.4651 299.301 63.4651Z" fill="#6E6E6E"/>
<path d="M250.299 22.3981H275.571V30.6601H250.299V22.3981ZM267.876 62.4121H257.994V9.92407H267.876V62.4121Z" fill="#6E6E6E"/>
<path d="M213.695 50.2621H223.091C223.145 51.9901 223.793 53.3671 225.035 54.3931C226.277 55.4191 228.005 55.9321 230.219 55.9321C232.595 55.9321 234.377 55.5001 235.565 54.6361C236.807 53.7721 237.428 52.6111 237.428 51.1531C237.428 50.1811 237.104 49.3171 236.456 48.5611C235.808 47.8051 234.593 47.2381 232.811 46.8601L225.602 45.1591C221.984 44.3491 219.284 43.0531 217.502 41.2711C215.774 39.4351 214.91 36.9241 214.91 33.7381C214.91 31.1461 215.585 28.9051 216.935 27.0151C218.339 25.1251 220.229 23.6941 222.605 22.7221C224.981 21.6961 227.708 21.1831 230.786 21.1831C233.756 21.1831 236.375 21.7231 238.643 22.8031C240.911 23.8831 242.666 25.3951 243.908 27.3391C245.204 29.2831 245.879 31.5511 245.933 34.1431H236.537C236.537 32.4151 235.997 31.0651 234.917 30.0931C233.837 29.0671 232.325 28.5541 230.381 28.5541C228.437 28.5541 226.925 28.9861 225.845 29.8501C224.765 30.7141 224.225 31.8751 224.225 33.3331C224.225 35.5471 225.953 37.0591 229.409 37.8691L236.618 39.5701C239.966 40.3261 242.477 41.5411 244.151 43.2151C245.879 44.8891 246.743 47.2651 246.743 50.3431C246.743 53.0431 246.041 55.3921 244.637 57.3901C243.233 59.3341 241.262 60.8461 238.724 61.9261C236.186 62.9521 233.27 63.4651 229.976 63.4651C225.008 63.4651 221.039 62.2501 218.069 59.8201C215.153 57.3901 213.695 54.2041 213.695 50.2621Z" fill="#6E6E6E"/>
<path d="M180.603 22.3979L193.644 59.3339L188.298 69.459L170.154 22.3979H180.603ZM171.207 80.9609V72.7799H177.12C178.416 72.7799 179.55 72.6179 180.522 72.2939C181.494 72.0239 182.358 71.4839 183.114 70.6739C183.924 69.8639 184.599 68.676 185.139 67.11L201.744 22.3979H211.95L192.348 71.3219C190.89 74.9939 189.054 77.6669 186.84 79.3409C184.626 81.0149 181.872 81.852 178.578 81.852C177.174 81.852 175.851 81.7709 174.609 81.6089C173.421 81.5009 172.287 81.2849 171.207 80.9609Z" fill="#6E6E6E"/>
<path d="M124.81 19.7249C124.81 16.2689 125.701 13.2179 127.483 10.5719C129.265 7.92595 131.722 5.87395 134.854 4.41595C138.04 2.90395 141.712 2.14795 145.87 2.14795C149.866 2.14795 153.322 2.84995 156.238 4.25395C159.208 5.65795 161.503 7.65595 163.123 10.2479C164.797 12.8399 165.688 15.9179 165.796 19.4819H155.428C155.32 16.9439 154.402 14.9729 152.674 13.5689C150.946 12.1109 148.624 11.3819 145.708 11.3819C142.522 11.3819 139.957 12.1109 138.013 13.5689C136.123 14.9729 135.178 16.9169 135.178 19.4009C135.178 21.5069 135.745 23.1809 136.879 24.4229C138.067 25.6109 139.903 26.5019 142.387 27.0959L151.702 29.2019C156.778 30.2819 160.558 32.1449 163.042 34.7909C165.526 37.3829 166.768 40.8929 166.768 45.3209C166.768 48.9389 165.877 52.125 164.095 54.879C162.313 57.633 159.775 59.766 156.481 61.278C153.241 62.736 149.434 63.465 145.06 63.465C140.902 63.465 137.257 62.763 134.125 61.359C130.993 59.901 128.536 57.876 126.754 55.284C125.026 52.692 124.108 49.6409 124 46.1309H134.368C134.422 48.615 135.394 50.586 137.284 52.044C139.228 53.448 141.847 54.15 145.141 54.15C148.597 54.15 151.324 53.448 153.322 52.044C155.374 50.586 156.4 48.6689 156.4 46.2929C156.4 44.2409 155.86 42.6209 154.78 41.433C153.7 40.1909 151.945 39.3269 149.515 38.8409L140.119 36.735C135.097 35.6549 131.29 33.7109 128.698 30.9029C126.106 28.0409 124.81 24.3149 124.81 19.7249Z" fill="#6E6E6E"/>
</svg>
