<svg width="81" height="26" viewBox="0 0 81 26" fill="none" xmlns="http://www.w3.org/2000/svg">
<g clip-path="url(#clip0_3562_482)">
<path d="M24.0063 23.0854L27.2067 22.8221L36.1989 2.24585L32.9985 2.3782L24.0063 23.0854Z" fill="black"/>
<path d="M27.7487 14.8195L33.1712 2.24585L26.2922 2.51465L20.416 15.4266L27.7487 14.8195Z" fill="#F26322"/>
<path d="M20.4187 15.4268L26.3385 2.49976L19.1871 2.77265L13.0615 16.0353L20.4187 15.4268Z" fill="#A14F9E"/>
<path d="M13.2631 16.019L19.2756 2.71948L11.853 2.99238L5.22607 16.6848L13.2631 16.019Z" fill="#5651A2"/>
<path d="M20.4163 15.4268L16.6191 23.7678L24.1793 23.0951L27.7489 14.8196L20.4163 15.4268Z" fill="#B84726"/>
<path d="M13.0615 16.0353L9.10498 24.6042L16.5289 23.922L20.4187 15.4268L13.0615 16.0353Z" fill="#8E3995"/>
<path d="M5.22622 16.6847L1.08984 25.2344L9.46615 24.4158L13.2633 16.0188L5.22622 16.6847Z" fill="#3F2F90"/>
<path d="M79.1362 5.20825L42.9751 9.58911L35.4878 23.2043L-1.10596 26.7698L10.981 1.80298L82.0845 -0.697021L79.1362 5.20825ZM12.2554 3.75903L2.24658 24.4338L34.2437 21.3157L41.7173 7.72778L77.8267 3.35181L78.7915 1.41919L12.2554 3.75903Z" fill="white"/>
</g>
<defs>
<clipPath id="clip0_3562_482">
<rect width="81" height="26" fill="white"/>
</clipPath>
</defs>
</svg>
