<svg width="53" height="52" viewBox="0 0 53 52" fill="none" xmlns="http://www.w3.org/2000/svg">
<path d="M39.293 41.9375L40.625 43.2695V45.8125H10.75V43.2695L12.082 41.9375H39.293ZM23.5625 10.8711L23.8389 11.0098L25.4639 11.8223L26.1172 12.1484L26.1855 11.4219L26.502 8.04883L29.4648 9.35742C29.4968 9.38816 29.5394 9.42968 29.5928 9.47949C29.7178 9.59633 29.9008 9.76243 30.1348 9.96387C30.6026 10.3667 31.2772 10.9116 32.1074 11.4824C33.7052 12.5809 35.9117 13.7952 38.3506 14.2578L39.7646 17.085L38.3516 20.6182C36.635 20.5558 35.6275 20.0199 35.0518 19.5264C34.7415 19.2604 34.5459 18.9977 34.4297 18.8076C34.3716 18.7125 34.333 18.6355 34.3105 18.5859C34.2994 18.5613 34.2929 18.543 34.2891 18.5332C34.288 18.5306 34.2867 18.5288 34.2861 18.5273L33.9053 17.3838L33.3662 18.4629L33.3652 18.4648C33.3635 18.4681 33.3594 18.4745 33.3545 18.4834C33.3447 18.5012 33.3285 18.5297 33.3057 18.5674C33.2594 18.6436 33.1857 18.7573 33.082 18.8955C32.8746 19.172 32.5478 19.5461 32.0781 19.9219C31.1448 20.6686 29.6285 21.4375 27.3125 21.4375H26.8125V21.9375C26.8125 23.2724 27.405 25.4917 28.832 27.8301C30.2369 30.1321 32.469 32.5757 35.7959 34.4414L36.4756 38.5195L14.2021 39.2871L15.5996 35.0957L15.6738 34.8721L15.5488 34.6729V34.6719C15.5485 34.6714 15.5475 34.671 15.5469 34.6699C15.5453 34.6673 15.5425 34.6629 15.5391 34.6572L15.3828 34.3936C15.2748 34.2069 15.1196 33.9304 14.9326 33.5752C14.5583 32.864 14.0579 31.8386 13.5576 30.5879C12.555 28.0814 11.5625 24.6943 11.5625 21.125C11.5625 16.0037 13.7232 12.675 15.877 10.6191C16.9572 9.5881 18.038 8.87581 18.8477 8.42188C19.2522 8.1951 19.588 8.03278 19.8203 7.92871C19.9364 7.87671 20.027 7.83956 20.0869 7.81543C20.1167 7.80343 20.1391 7.79449 20.1533 7.78906C20.1602 7.78645 20.165 7.78432 20.168 7.7832C20.1693 7.78272 20.1704 7.78241 20.1709 7.78223L20.4209 7.69141L20.4854 7.43359L20.4844 7.43262L20.4854 7.43164C20.4864 7.42781 20.4885 7.42065 20.4912 7.41113C20.4966 7.39208 20.5051 7.3619 20.5176 7.32227C20.5428 7.2424 20.5832 7.12351 20.6416 6.97754C20.7587 6.68485 20.947 6.28553 21.2285 5.86328C21.7071 5.14544 22.4467 4.37599 23.5625 3.93555V10.8711Z" stroke="#6E6E6E"/>
</svg>
