<svg width="53" height="52" viewBox="0 0 53 52" fill="none" xmlns="http://www.w3.org/2000/svg">
<path d="M27.5811 2.66846C27.9065 2.66846 28.1687 2.93075 28.1689 3.24951V22.1685H39.5C40.42 22.1685 41.1653 22.9088 41.1689 23.8247C41.1646 24.1275 41.0867 24.4156 40.9404 24.6665L40.9346 24.6763L40.9297 24.6851L28.1055 49.0112L28.1035 49.0151C28.0034 49.2094 27.8019 49.3315 27.5811 49.3315C27.259 49.3313 27 49.0716 27 48.7495V29.8315H15.6689C14.7466 29.8315 14 29.0875 14 28.1685C14 27.8518 14.0881 27.5495 14.2568 27.2837L14.2676 27.2661L14.2773 27.2485L27.0078 3.104L27.0225 3.07666L27.0342 3.04736C27.1198 2.8201 27.3388 2.66864 27.5811 2.66846Z" stroke="#6E6E6E"/>
</svg>
