<svg width="53" height="52" viewBox="0 0 53 52" fill="none" xmlns="http://www.w3.org/2000/svg">
<path d="M19.2197 2.57996H33.7803C36.3721 2.58011 38.4805 4.68826 38.4805 7.28015V44.7196C38.4805 47.3115 36.3721 49.4196 33.7803 49.4198H19.2197C16.6279 49.4197 14.5195 47.3115 14.5195 44.7196V7.28015C14.5195 4.68826 16.6279 2.5801 19.2197 2.57996ZM26.5 33.8202C23.3514 33.8202 20.7998 36.3718 20.7998 39.5204C20.8 42.6688 23.3515 45.2196 26.5 45.2196C29.6485 45.2196 32.2 42.6688 32.2002 39.5204C32.2002 36.3718 29.6486 33.8202 26.5 33.8202ZM8.625 34.8202H11.4404V42.8505C10.1821 41.4755 8.24415 39.1111 7.27148 36.6093L7.26855 36.6014L7.22168 36.4608C7.13406 36.127 7.19951 35.7638 7.41309 35.4462C7.67219 35.0652 8.12158 34.8202 8.625 34.8202ZM44.375 34.8202C44.8153 34.8202 45.2141 35.0075 45.4805 35.3094L45.5869 35.4462C45.8303 35.8081 45.8835 36.2198 45.7305 36.6053L45.7295 36.6083C44.7569 39.1046 42.8179 41.4727 41.5596 42.8495V34.8202H44.375ZM26.5 20.2997C23.3514 20.2997 20.7998 22.8513 20.7998 25.9999C20.7998 29.1485 23.3514 31.7001 26.5 31.7001C29.6486 31.7001 32.2002 29.1485 32.2002 25.9999C32.2002 22.8513 29.6486 20.2997 26.5 20.2997ZM8.625 21.2997H11.4404V29.33C10.182 27.9549 8.24403 25.5906 7.27148 23.0887L7.26855 23.0819L7.22168 22.9403C7.13427 22.6067 7.19979 22.2441 7.41309 21.9266C7.67219 21.5457 8.12158 21.2997 8.625 21.2997ZM44.375 21.2997C44.8154 21.2997 45.2141 21.4879 45.4805 21.7899L45.5869 21.9266C45.8301 22.2885 45.8835 22.7004 45.7305 23.0858L45.7295 23.0887C44.7569 25.5849 42.8179 27.9522 41.5596 29.329V21.2997H44.375ZM26.5 6.78015C23.3514 6.78015 20.7998 9.33175 20.7998 12.4803C20.8 15.6288 23.3515 18.1796 26.5 18.1796C29.6485 18.1796 32.2 15.6288 32.2002 12.4803C32.2002 9.33175 29.6486 6.78015 26.5 6.78015ZM8.72266 7.78015H11.4404V15.8114C10.1891 14.4451 8.266 12.101 7.28809 9.61121L7.26562 9.47253L7.26465 9.46472L7.2627 9.45691C7.18179 9.04966 7.2843 8.63361 7.54883 8.31238C7.82535 7.97654 8.24877 7.78015 8.72266 7.78015ZM44.375 7.78015C44.8153 7.78015 45.2141 7.96752 45.4805 8.26941L45.5869 8.40613C45.8303 8.76804 45.8835 9.17977 45.7305 9.56531L45.7295 9.56824C44.7569 12.0646 42.8179 14.4327 41.5596 15.8094V7.78015H44.375Z" stroke="#6E6E6E"/>
</svg>
